SplineFontDB: 3.2
FontName: SerpentRegular
FullName: Serpent Regular
FamilyName: Serpent
Weight: Regular
Copyright: Copyright 2022, Beverly Pearl
Version: Version 0.001
ItalicAngle: 0
UnderlinePosition: 0
UnderlineWidth: 0
Ascent: 700
Descent: 300
InvalidEm: 0
sfntRevision: 0x00010000
LayerCount: 2
Layer: 0 0 "Back" 1
Layer: 1 0 "Fore" 0
XUID: [1021 796 -666264523 4545719]
StyleMap: 0x0040
FSType: 0
OS2Version: 3
OS2_WeightWidthSlopeOnly: 0
OS2_UseTypoMetrics: 0
CreationTime: 1652040951
ModificationTime: 1654299879
PfmFamily: 81
TTFWeight: 500
TTFWidth: 5
LineGap: 0
VLineGap: 0
Panose: 0 0 0 0 0 0 0 0 0 0
OS2TypoAscent: 700
OS2TypoAOffset: 0
OS2TypoDescent: -300
OS2TypoDOffset: 0
OS2TypoLinegap: 0
OS2WinAscent: 1226
OS2WinAOffset: 0
OS2WinDescent: 407
OS2WinDOffset: 0
HheadAscent: 700
HheadAOffset: 0
HheadDescent: -300
HheadDOffset: 0
OS2SubXSize: 650
OS2SubYSize: 699
OS2SubXOff: 0
OS2SubYOff: 140
OS2SupXSize: 650
OS2SupYSize: 699
OS2SupXOff: 0
OS2SupYOff: 479
OS2StrikeYSize: 49
OS2StrikeYPos: 258
OS2CapHeight: 677
OS2XHeight: 408
OS2Vendor: 'XXXX'
OS2CodePages: 00000001.00000000
OS2UnicodeRanges: 80000007.50000000.00000000.00000000
Lookup: 4 0 1 "'liga' Standard Ligatures lookup 0" { "'liga' Standard Ligatures lookup 0 subtable"  } ['liga' ('DFLT' <'dflt' > ) ]
MarkAttachClasses: 1
DEI: 91125

StartChar: .notdef
Encoding: 0 0 0
Width: 457
GlyphClass: 1
Flags: W
LayerCount: 2
Fore
SplineSet
20 675 m 1
 437 675 l 1
 437 0 l 1
 20 0 l 1
 20 675 l 1
68 48 m 1
 388 48 l 1
 388 627 l 1
 68 627 l 1
 68 48 l 1
EndSplineSet
Validated: 1
EndChar

StartChar: exclam
Encoding: 2 33 2
Width: 289
GlyphClass: 1
Flags: W
HStem: -0.0612245 50.0612<186.025 243.928> 76 25<186.399 221.335> 168 55<190.414 209.995> 259 53.068<241 258.03> 677 20G<188.984 215.402>
VStem: 155.962 30.0381<40.9187 73.8315> 163.889 16.1111<226.076 258.234> 205.26 67.8644<314.31 577.587> 209 10<52.5655 71.4345> 210 21<224.212 258.368> 244 16.7062<48.9735 73.0708> 259 25.1259<219.479 274.803>
LayerCount: 2
Fore
SplineSet
229 140 m 1xf810
 227 141 225 144 225 145 c 1
 225 144 218 140 218 140 c 1
 217 140 l 1
 224 146 l 2
 223 148 223 151 226 154 c 0
 227 155 227 155 227 155 c 0
 230 158 234 161 231 168 c 1xf850
 199 172.666666667 163.888888889 208 163.888888889 249.111111111 c 0
 163.888888889 269.666666667 172.666666667 291.666666667 195 312 c 1
 202.381039035 369.70630518 205.259620447 421.221731129 205.259620447 467.83027299 c 0
 205.259620447 560.143624935 193.967473385 633.208170333 184 697 c 1
 246.80370002 625.41728815 273.124063365 532.400616003 273.124063365 440.739681327 c 0xfb
 273.124063365 396.668693805 267.03950752 352.911116102 256 312 c 1
 256.455073757 312.045507376 256.908536798 312.068004515 257.36006451 312.068004515 c 0
 271.721964079 312.068004515 284.125877358 289.307480543 284.125877358 260.297736547 c 0
 284.125877358 230.094415887 270.680273378 193.117060635 232 168 c 1
 237 160 228 151 226 150 c 0
 224 150 225 145 232 139 c 0
 236 135 229 140 229 140 c 1xf810
195 261 m 0
 187 261 180 252 180 242 c 0xfa40
 180 232 187 223 195 223 c 0
 203 223 210 232 210 242 c 0
 210 252 203 261 195 261 c 0
245 259 m 0
 237 259 231 250 231 239 c 0
 231 228 237 219 245 219 c 0
 253 219 259 228 259 239 c 0xf850
 259 250 253 259 245 259 c 0
233 95 m 1
 250.5485254 85.8747667919 260.706232951 68.3732733544 260.706232951 50.4503275795 c 0
 260.706232951 42.8398661791 258.874766792 35.1534156157 255 28 c 0
 245.714285714 10.1428571429 227.244897959 -0.0612244897959 207.973760933 -0.0612244897959 c 0
 200.265306122 -0.0612244897959 192.428571429 1.57142857143 185 5 c 0
 166.376273103 14.3118634487 155.961852798 31.8330334904 155.961852798 50.2131310863 c 0xfc60
 155.961852798 57.4929102769 157.59556626 64.9074297091 161 72 c 0
 170 90 189 101 210 101 c 0
 217 100 226 98 233 95 c 1
197 76 m 0
 191 76 186 70 186 63 c 0
 186 56 191 50 197 50 c 0
 204 50 209 56 209 63 c 0xfc80
 209 70 204 76 197 76 c 0
231 74 m 0xf860
 224 74 219 68 219 61 c 0xf880
 219 54 224 48 231 48 c 0
 238 48 244 54 244 61 c 0
 244 68 238 74 231 74 c 0xf860
EndSplineSet
Validated: 1
EndChar

StartChar: quotedbl
Encoding: 3 34 3
Width: 415
GlyphClass: 1
Flags: W
HStem: 669 33.1916<35.0414 67.908 84.092 117.908 280.484 314.989>
VStem: 6.04642 27.9536<633.354 668.212> 68 16<636.059 665.941> 118 34.8069<624.202 668.504> 248.14 31.8603<637.013 671.788> 315 16<639.059 666.441> 369 26.2465<622.481 668.974>
LayerCount: 2
Fore
SplineSet
101 669 m 0
 92 669 84 661 84 651 c 0
 84 641 92 633 101 633 c 0
 110 633 118 641 118 651 c 0
 118 661 110 669 101 669 c 0
  Spiro
    92.6001 666.56 o
    86.4029 660.103 o
    84 651 o
    86.4029 641.897 o
    92.6001 635.44 o
    101 633 o
    109.4 635.44 o
    115.597 641.897 o
    118 651 o
    115.597 660.103 o
    109.4 666.56 o
    101 669 o
    0 0 z
  EndSpiro
331 652 m 0
 331 642 340 634 350 634 c 0
 360 634 369 642 369 652 c 0
 369 662 360 670 350 670 c 0
 340 670 331 662 331 652 c 0
110 695 m 0
 112 694 l 1
 138.145994549 681.280326976 152.806890696 656.076851343 152.806890696 629.681298417 c 0
 152.806890696 618.723693618 150.280326976 607.560653953 145 597 c 0
 129.015969927 566.714469336 82.5997062079 496.796262295 69.4574290904 496.796262295 c 0
 67.2250282826 496.796262295 65.9527086149 498.813668647 65.9527086149 503.385414894 c 0
 65.9527086149 503.892002934 65.9683308032 504.429954458 66 505 c 0
 66.0560264499 505.933774165 66.0834534583 506.874523804 66.0834534583 507.821897186 c 0
 66.0834534583 552.146163926 6.04642308487 610.969638543 6.04642308487 648.270102814 c 0
 6.04642308487 652.861982001 6.95627692834 657.127682601 9 661 c 0
 21 686 47 702 76 702 c 0
 77.4208843727 702.129171307 78.8584539719 702.191601707 80.3083982926 702.191601707 c 0
 90.0834261323 702.191601707 100.420884373 699.354143467 110 695 c 0
  Spiro
    112 694 {
    140.979 668.883 o
    152.669 634.111 o
    145 597 o
    115.665 549.201 o
    81.3416 504.823 o
    66 505 o
    48.365 559.609 o
    15.9737 615.719 o
    9 661 o
    25.2392 682.723 o
    48.4332 696.936 o
    76 702 o
    87.2478 701.742 o
    98.7522 699.256 o
    110 695 v
    0 0 z
  EndSpiro
318 702 m 0
 328 701 337 701 352 694 c 0
 353 693 354 693 354 693 c 1
 380.094534972 680.305361365 395.246524569 654.678623649 395.246524569 628.04654548 c 0
 395.246524569 616.916429637 392.600103663 605.61072273 387 595 c 0
 370.961608057 565.455593789 320.008338578 505.271601168 305.716389606 505.271601168 c 0
 303.322158125 505.271601168 301.956789441 506.960603914 301.956789441 510.76560427 c 0
 301.956789441 511.154781182 301.971072942 511.566094133 302 512 c 0
 302.107019709 513.096952015 302.158920806 514.215378815 302.158920806 515.354035526 c 0
 302.158920806 552.088925126 248.139690305 609.879328842 248.139690305 646.924651643 c 0
 248.139690305 651.649465362 249.01841131 656.036822621 251 660 c 0
 263.370050275 683.788558221 286.605294193 702.144519621 313.813270646 702.144519621 c 0
 315.198847657 702.144519621 316.594727537 702.096915342 318 702 c 0
51 669 m 0
 42 669 34 661 34 651 c 0
 34 641 42 633 51 633 c 0
 60 633 68 641 68 651 c 0
 68 661 60 669 51 669 c 0
  Spiro
    42.6001 666.56 o
    36.4029 660.103 o
    34 651 o
    36.4029 641.897 o
    42.6001 635.44 o
    51 633 o
    59.3999 635.44 o
    65.5971 641.897 o
    68 651 o
    65.5971 660.103 o
    59.3999 666.56 o
    51 669 o
    0 0 z
  EndSpiro
298 672 m 0
 288 672 280 664 280 654 c 0
 280 644 288 636 298 636 c 0
 307 636 315 644 315 654 c 0
 315 664 307 672 298 672 c 0
  Spiro
    288.897 669.56 o
    282.44 663.103 o
    280 654 o
    282.44 644.897 o
    288.897 638.44 o
    298 636 o
    306.4 638.44 o
    312.597 644.897 o
    315 654 o
    312.597 663.103 o
    306.4 669.56 o
    298 672 o
    0 0 z
  EndSpiro
EndSplineSet
Validated: 1
EndChar

StartChar: numbersign
Encoding: 4 35 4
Width: 664
GlyphClass: 1
Flags: W
HStem: -33 22G<233 234 234 239 453 455> 265.971 73.9797<141.414 504.045> 268.499 9.5012<586.925 628.421> 293 9<586.844 626.117> 315 16.0769<585.007 626.37> 346 59<392 480.548> 352 63<179 265.594> 354 53<179.36 267> 414.971 73.9797<146.414 509.045> 417.499 9.5012<591.925 633.421> 442 9<591.534 631.117> 465 15.0769<589.055 631.656>
VStem: 179 88.4444<354 407> 199.389 12.6106<32.147 75.9058> 231 11<36.7344 76.0332> 237 2<-22.75 -17.1688> 259 19.2655<35.4365 77.6222> 392 91.4142<345.426 405> 408.389 12.6106<30.4351 72.8983> 441 10<35.2226 71.4504> 446 2<-25.0067 -20> 468 19.5944<33.3676 74.7559>
LayerCount: 2
Fore
SplineSet
443 -35 m 1x80002c
 442 -35 l 1
 448 -27 l 2
 447 -25 445 -22 446 -20 c 0
 451 -15 453 -10 450 -3 c 1
 420.10641711 3.32364253449 408.38940463 34.7640005459 408.38940463 66.2427903001 c 0
 408.38940463 89.5214738545 414.797038257 112.821174415 425 126 c 1
 415 159 399 232 394 263 c 1
 419 264 458 268 483 272 c 1
 480 242 469 168 462 133 c 1
 480.542568684 110.594396174 487.594396174 87.4426403215 487.594396174 66.6000886302 c 0
 487.594396174 33.4888166505 469.797198087 6.20544728627 452 -3 c 1
 455 -10 450 -20 448 -20 c 0
 446 -22 449 -27 455 -32 c 0
 461 -36 454 -32 454 -32 c 2
 452 -31 450 -29 449 -28 c 0
 448 -26 443 -35 443 -35 c 1x80002c
234 -33 m 1
 233 -33 l 1
 239 -25 l 2
 238 -23 236 -19 237 -18 c 0x8001
 242 -12 244 -8 241 0 c 1
 211.10641711 5.74876594045 199.38940463 37.2752135546 199.38940463 68.9310981143 c 0
 199.38940463 92.3407439442 205.797038257 115.821174415 216 129 c 1
 205 163 190 242 185 275 c 1
 209 272 247 265 273 264 c 1
 270 237 259 167 253 136 c 1
 271.303896619 113.882791585 278.265542695 91.0385158279 278.265542695 70.40605927 c 0
 278.265542695 36.9321178632 259.941395793 9.28003230652 242 0 c 1x800680
 246 -7 241 -17 239 -18 c 0x8001
 237 -20 240 -25 246 -29 c 0
 252 -33 245 -30 245 -30 c 2
 242 -28 241 -27 240 -25 c 0
 239 -24 234 -33 234 -33 c 1
431 28 m 0
 436 28 441 38 441 52 c 0
 441 65 436 75 431 75 c 0
 426 75 421 65 421 52 c 0x800030
 421 38 426 28 431 28 c 0
222 30 m 0
 227 30 231 41 231 54 c 0
 231 67 227 78 222 78 c 0
 216 78 212 67 212 54 c 0x8006
 212 41 216 30 222 30 c 0
460 33 m 0
 465 33 468 42 468 54 c 0
 468 66 465 75 460 75 c 0
 455 75 451 66 451 54 c 0x800014
 451 42 455 33 460 33 c 0
251 35 m 0
 255 35 259 45 259 56 c 0
 259 68 255 78 251 78 c 0
 246 78 242 68 242 56 c 0x800280
 242 45 246 35 251 35 c 0
352 266 m 1
 349.524652923 265.980661351 347.053045679 265.971046269 344.585134874 265.971046269 c 0
 219.437574759 265.971046269 103.795394009 290.696191366 -8 326 c 1
 0.893654649386 325.634507343 9.68712063713 325.46939201 18.4206327977 325.46939201 c 0
 100.210502481 325.46939201 176.742160241 339.950726334 281.062753638 339.950726334 c 0xc0
 348.468437465 339.950726334 427.475907366 333.904818527 527 314 c 1
 548.108972366 326.313567213 569.341719375 331.076881212 588.608036613 331.076881212 c 0
 624.104168929 331.076881212 652.925426885 314.90822726 662 300 c 1
 669 302 678 298 679 296 c 0
 681 295 686 297 691 301 c 1
 691 300 l 2
 690 299 688 297 687 297 c 0
 685 296 694 292 694 292 c 1
 693 291 l 1
 686 296 l 2
 684 295 680 294 679 295 c 0
 674 299 669 301 662 299 c 1
 654.472869317 276.956260144 625.843637457 268.498804607 596.472200499 268.498804607 c 0xa8
 571.214571649 268.498804607 545.408086443 274.753043832 532 284 c 1
 470 272 410 266 352 266 c 1
606 278 m 0xb0
 619 278 630 281 630 285 c 0
 630 289 620 293 607 293 c 0
 594 294 583 291 583 287 c 0
 583 283 593 279 606 278 c 0xb0
605 302 m 0
 617 301 626 304 627 308 c 0
 627 312 618 315 606 315 c 0x98
 594 316 585 313 585 310 c 0
 584 306 593 302 605 302 c 0
483 333 m 1
 450 339 420 343 392 346 c 1
 391 366 391 385 391 405 c 1
 421 406 451 409 482 414 c 1
 482.707106781 396.32233047 483.414213562 377.644660941 483.414213562 357.966991411 c 0x840040
 483.414213562 349.816233816 483.292893219 341.493903346 483 333 c 1
179 352 m 1x8208
 178 373 178 394 178 415 c 1x8208
 207 411 237 408 267 407 c 1
 267 395.666666667 267.444444444 383.888888889 267.444444444 371.962962963 c 0
 267.444444444 366 267.333333333 360 267 354 c 1
 260 354 253 354 247 354 c 0x8108
 223 354 200 353 179 352 c 1x8208
357 415 m 1
 354.524652923 414.980661351 352.053045679 414.971046269 349.585134874 414.971046269 c 0
 224.437574759 414.971046269 108.795394009 439.696191366 -3 475 c 1
 5.89365464939 474.634507343 14.6871206371 474.46939201 23.4206327977 474.46939201 c 0
 105.210502481 474.46939201 181.742160241 488.950726334 286.062753638 488.950726334 c 0x8080
 353.468437465 488.950726334 432.475907366 482.904818527 532 463 c 1
 553.108972366 475.313567213 574.341719375 480.076881212 593.608036613 480.076881212 c 0
 629.104168929 480.076881212 657.925426885 463.90822726 667 449 c 1
 674 451 683 447 684 445 c 0
 686 444 691 446 696 450 c 1
 694 448 693 447 691 446 c 1
 698 441 l 1
 698 440 l 1
 691 445 l 2
 689 445 685 443 684 444 c 0
 679 448 674 450 667 448 c 1
 659.472869317 425.956260144 630.843637457 417.498804607 601.472200499 417.498804607 c 0x8050
 576.214571649 417.498804607 550.408086443 423.753043832 537 433 c 1
 474 421 415 415 357 415 c 1
611 427 m 4x8060
 624 427 635 430 635 434 c 4
 635 438 625 442 612 442 c 4
 599 443 588 440 588 436 c 4
 588 432 598 428 611 427 c 4x8060
610 451 m 4
 622 451 631 453 632 457 c 4
 632 461 623 464 611 465 c 4x8030
 599 465 590 462 589 459 c 4
 589 455 598 451 610 451 c 4
476 482 m 1
 449 487 423 491 398 493 c 1
 408 565 418 643 441 712 c 1x800010
 441 639 466 564 476 482 c 1
189 497 m 1
 199 568 209 636 231 704 c 1x8002
 232 635 255 574 265 498 c 1
 260 499 255 499 250 499 c 0
 229 499 209 498 189 497 c 1
EndSplineSet
Validated: 1
EndChar

StartChar: dollar
Encoding: 5 36 5
Width: 578
GlyphClass: 1
Flags: W
HStem: 4.95779 104.042<229.154 287.416 340.279 367.677> 57.8277 48.1723<59.1789 101.952> 175.834 25.5611<66.3084 118.247> 630.664 72.3363<191.477 258.857 314 341 397 448.249>
VStem: 27.9968 116.066<480.028 587.966> 262.492 74.0802<257.768 521.078> 286.295 12.7047<-107.579 -31.0136> 309 7<-105.513 -63.4609> 314 28<634 703> 328 15.3902<-107.635 -38.3316> 329.842 43.8369<3.92675 104.897> 340.242 33.4365<1.06257 43.5365 44.6715 58.4831 59.3427 106> 344.038 68.9616<200.078 447.17> 372.713 16.2865<-117.72 -29.3838> 401 7<-112.068 -83.1703> 420 13.5824<-108.721 -34.5432> 427.438 148.375<109.19 274.634> 440.321 135.492<92.7262 194.401>
LayerCount: 2
Fore
SplineSet
400 -204 m 1x3803
 399 -204 l 1
 404 -192 l 17
 403 -189 401 -183 402 -181 c 0
 406 -173 408 -166 405 -155 c 1
 381.780381683 -145.131662215 372.713468579 -95.837931338 372.713468579 -47.0227146838 c 0x3807
 372.713468579 -11.7448752189 377.448828243 23.2830515221 385 43 c 1
 349.109376656 209.554923956 344.038433662 305.664864254 344.038433662 434.853853964 c 0
 344.038433662 485.738679359 344.825142994 541.755409588 344.825142994 609.230049825 c 0
 344.825142994 675.923118825 344.056553309 753.810196962 341 849 c 1
 341.077813017 849.005187534 341.155841318 849.007778204 341.234082915 849.007778204 c 0
 367.262881229 849.007778204 416.89717651 562.296412086 416.89717651 216.94496272 c 0
 416.89717651 163.100630512 415.690643289 107.830848257 413 52 c 1x3808
 427.909492225 17.0803997888 433.582434932 -18.6089128823 433.582434932 -50.4775292389 c 0
 433.582434932 -99.8328340779 419.975833653 -140.024166347 406 -154 c 1
 409 -165 405 -180 403 -181 c 0
 402 -184 404 -192 409 -199 c 0
 413 -205 408 -200 408 -200 c 1
 406 -197 405 -195 404 -193 c 1
 404 -194 400 -204 400 -204 c 1x3803
312 -198 m 1
 315 -188 l 1
 314 -185 313 -180 314 -178 c 0x3880
 317 -170 319 -163 316 -152 c 1
 294.662549012 -142.772994167 286.295284855 -95.6331345189 286.295284855 -48.3627446784 c 0x3b
 286.295284855 -13.664373346 290.803693697 21.1043296338 298 41 c 1
 274.579169464 196.4291481 262.491712957 350.158290095 262.491712957 495.551500173 c 0
 262.491712957 623.304079427 271.823955726 744.620818327 291 855 c 1
 291.787199593 683.390488804 336.57190629 536.568305555 336.57190629 282.823572634 c 0x3c
 336.57190629 214.22980933 333.299215887 137.822566203 325 51 c 1
 338.327649698 18.2520607417 343.390241397 -15.6558866569 343.390241397 -46.3618622347 c 0x3840
 343.390241397 -96.2934461339 330.003410181 -137.758169802 317 -152 c 1
 320 -163 316 -177 315 -178 c 0
 313 -181 315 -189 320 -195 c 0
 324 -201 319 -196 319 -196 c 1
 317 -193 316 -191 315 -189 c 1
 312 -198 l 1
395 -118 m 0
 398 -118 401 -110 401 -100 c 0
 401 -90 398 -81 395 -81 c 0
 391 -81 389 -90 389 -100 c 0x3806
 389 -110 391 -118 395 -118 c 0
414 -114 m 0
 417 -114 420 -106 420 -97 c 0x3803
 420 -87 417 -79 414 -79 c 0
 411 -79 408 -87 408 -97 c 0
 408 -106 411 -114 414 -114 c 0
304 -108 m 0
 307 -108 309 -98 309 -84 c 0
 309 -71 307 -61 304 -61 c 0
 302 -61 299 -71 299 -84 c 0x3b
 299 -98 302 -108 304 -108 c 0
322 -108 m 0
 325 -108 328 -98 328 -84 c 0x3940
 328 -71 325 -61 322 -61 c 0
 319 -61 316 -71 316 -84 c 0
 316 -98 319 -108 322 -108 c 0
357 0 m 0
 349 0 346 -1 340 1 c 1
 340.166040304 1.66416121516 340.242480115 2.47995403398 340.242480115 3.4256347204 c 0x7810
 340.242480115 13.8709315838 330.916979848 40.1622821265 330 53 c 0
 329.891805812 54.7311070009 329.842141536 56.6026857884 329.842141536 58.5754742662 c 0
 329.842141536 74.8364608409 333.216388375 97.973747688 335 106 c 1
 339.031326669 105.379795897 342.774163491 105.144244923 346.317971759 105.144244923 c 0
 354.202041029 105.144244923 361.101020514 106.310102051 368 107 c 1
 369 93 379 58 380 44 c 0
 380 34.2222222222 373.679012346 17.3333333333 373.679012346 5.27297668038 c 0x7820
 373.679012346 3.76543209877 373.777777778 2.33333333333 374 1 c 1
 366 1 365 -1 357 0 c 0
433 6 m 0
 432 8 417 52 417 54 c 0
 421 90 423 77 423 110 c 1
 431.660254038 115.773502692 440.320508076 128.880338717 440.320508076 143.354555294 c 0x380040
 440.320508076 153.950417228 435.679491924 165.279056191 423 175 c 1
 425.218800785 209.391412166 427.43760157 236.705901255 427.43760157 263.770546605 c 0
 427.43760157 285.497384536 426.007698234 307.063210989 422 332 c 1
 429 327 464 296 471 292 c 0
 542.916120959 250.714819449 575.812205573 194.846392992 575.812205573 143.204000947 c 0x380080
 575.812205573 78.5154869354 524.196025696 20.4579065127 433 6 c 0
286 13 m 0
 285.434360158 7.34360157778 282.273583041 4.95778711801 277.214759773 4.95778711801 c 0xb8
 255.442959257 4.95778711801 198.515402367 49.1480255096 162 67 c 1
 145.63043928 60.6633958502 130.717028213 57.8277472507 117.128886744 57.8277472507 c 0x78
 53.5190399348 57.8277472507 18.9516140154 119.969141172 0 176 c 1
 -7 177 -13 183 -13 185 c 0
 -14 187 -21 186 -28 182 c 0
 -34 177 -28 183 -28 183 c 2
 -25 184 -23 186 -21 186 c 1
 -23 187 -26 194 -26 194 c 1
 -20 186 l 2
 -18 187 -13 188 -12 186 c 0
 -9 181 -6 178 1 178 c 0
 40.6400865032 193.856034601 76.240442226 201.394976419 106.613363063 201.394976419 c 0
 164.355434004 201.394976419 203.204535279 174.147769672 215 125 c 1
 234 115 267 115 283 109 c 1xb8
 287 94 292 60 292 41 c 0
 292 33 288 33 286 13 c 0
93 106 m 0x78
 98 106 101 107 102 109 c 0xb8
 106 114 97 123 84 128 c 0
 70 134 56 134 53 129 c 0
 49 124 58 115 71 110 c 0
 79 107 86 105 93 106 c 0x78
102 149 m 0
 110 149 116 151 119 154 c 0
 125 160 117 169 103 173 c 0
 97.1547594742 174.948413509 91.1576663404 175.833858761 85.7188126133 175.833858761 c 0
 77.2005322332 175.833858761 70.0515864914 173.66190379 67 170 c 0
 62 164 69 156 84 151 c 0
 90 150 96 149 102 149 c 0
263 268 m 1
 99.8951244923 349.552437754 27.9968028487 450.210487789 27.9968028487 534.177989245 c 0
 27.9968028487 626.274418489 114.489985068 698.292233566 262 703 c 1
 259.783611625 688.593475562 259.204682393 679.099328553 259.204682393 671.291563054 c 0
 259.204682393 662.751145562 259.897358423 656.228446275 259.897358423 647.501439862 c 0
 259.897358423 642.608554947 259.679622759 637.022768509 259 630 c 1
 255.957334763 630.446257568 252.807690369 630.663744321 249.578976506 630.663744321 c 0
 204.52043764 630.663744321 144.062494878 588.30648004 144.062494878 534.261548572 c 0
 144.062494878 496.720642612 173.233602685 453.540408154 257 415 c 1
 256.218951416 402.69848481 255.8954305 392.074571067 255.8954305 382.458225014 c 0
 255.8954305 342.826182399 261.390524292 320.307960518 263 268 c 1
552 590 m 1
 491.244510856 623.753049524 471.075456759 628.312347524 425.400401421 628.312347524 c 0
 416.94694869 628.312347524 407.619815808 628.156173762 397 628 c 1
 397 647 394 680 394 698 c 1
 475 688 500 633 552 590 c 1
341 704 m 1
 342 632 l 1
 314 634 l 1x3880
 309 703 l 1x39
 341 704 l 1
EndSplineSet
Validated: 1
EndChar

StartChar: percent
Encoding: 6 37 6
Width: 479
GlyphClass: 1
Flags: W
HStem: -32 21G<472 474.5> -1 25<410.081 428> 146 55<50.1401 88.0972> 146 26<71 115.827> 237 24<51.2096 84.4724> 450 47<369.005 402.945> 537 27<352.991 401.779> 677 20G<43.5 80.5>
VStem: 24 26<201.765 236.14> 117 26<172.627 209.771> 315 16<502.5 535.591> 354 72<68.2253 120.859> 360 9<510.603 530.467> 403 32<497.425 536.793>
LayerCount: 2
Fore
SplineSet
87 191 m 0xdfe0
 87 181 94 172 102 172 c 0
 110 172 117 181 117 191 c 0
 117 201 110 210 102 210 c 0
 94 210 87 201 87 191 c 0xdfe0
50 219 m 0
 50 209 58 201 68 201 c 0xefe0
 78 201 86 209 86 219 c 0
 86 229 78 237 68 237 c 0
 58 237 50 229 50 219 c 0
109 152 m 1
 101 148 92 146 82 146 c 0
 60 146 39 159 30 179 c 0
 26 187 24 196 24 204 c 0
 24 225 36 245 57 255 c 0
 65 259 75 261 83 261 c 0
 105 261 126 250 137 229 c 0
 141 221 143 213 143 204 c 0
 143 183 130 162 109 152 c 1
425 24 m 0
 426 24 427 24 428 24 c 0
 432 27 430 40 422 52 c 0
 416 60 414 60 409 66 c 0
 405 68 401 69 399 67 c 0
 395 65 396 58 400 48 c 0
 402 45 402 44 405 40 c 0
 411 31 418 25 423 24 c 0
 424 24 424 24 425 24 c 0
457 38 m 2
 459 38 460 38 461 39 c 0
 466 42 463 56 454 69 c 0
 446 83 434 91 429 87 c 0
 427 86 426 83 426 80 c 0xcff0
 426 74 429 65 435 56 c 0xcfe4
 441 47 449 39 456 38 c 2
 457 38 l 2
386 497 m 0
 395 497 403 506 403 517 c 0
 403 528 395 537 386 537 c 0
 376 537 369 528 369 517 c 0xcfec
 369 506 376 497 386 497 c 0
346 505 m 0
 354 505 360 514 360 525 c 0
 360 535 354 544 346 544 c 0
 337 544 331 535 331 525 c 0
 331 514 337 505 346 505 c 0
472 -32 m 0
 476 -24 475 -17 472 -16 c 0
 469 -17 458 -10 456 -1 c 1
 454 -1 453 -1 451 -1 c 0
 414 -1 354 37 354 112 c 0xcff0
 354 118 354 124 355 130 c 1
 116 371 92 548 -5 697 c 1
 166 563 327 387 397 148 c 1
 431 136 474 84 474 40 c 0
 474 25 469 11 458 0 c 1
 460 -9 465 -13 473 -15 c 0
 476 -16 476 -21 476 -23 c 2
 487 -27 l 1
 487 -28 l 1
 487 -28 476 -22 476 -24 c 0
 476 -26 475 -29 474 -32 c 2
 474 -32 469 -41 472 -32 c 0
376 450 m 1
 375 450 375 450 374 450 c 0
 352 450 331 463 321 482 c 0
 317 490 315 498 315 507 c 0
 315 528 327 549 349 559 c 0
 357 563 366 564 375 564 c 0
 397 564 418 553 429 533 c 0
 433 525 435 517 435 509 c 0xcfe4
 435 487 422 466 401 455 c 0
 393 452 385 450 376 450 c 1
EndSplineSet
Validated: 1
EndChar

StartChar: ampersand
Encoding: 7 38 7
Width: 616
GlyphClass: 1
Flags: W
HStem: 0.0737094 37.9263<444.445 493.4> 13.2963 95.4062<197.841 350.704> 69 23<445.107 488.354> 121 25.5362<439.117 488.01> 191 1<562.741 567.709> 371 21G<334.5 401.5> 377 20G<116.515 178> 629.313 40.7384<268.052 390.598>
VStem: -4.05321 128.275<164.992 258.92> 82.8493 150.484<481.013 597.348> 543 14.0252<630 652.127>
LayerCount: 2
Fore
SplineSet
543 685 m 1x1920
 547.251338 650.989295999 557.025248853 642.583247953 557.025248853 613.180940384 c 0
 557.025248853 601.087171798 555.371655 585.441162332 551 563 c 1
 538 576 522 586 508 598 c 1
 545 639 531 630 543 685 c 1x1920
262 670 m 0
 264.0628515 670.034380858 266.134272814 670.051622087 268.213781347 670.051622087 c 0
 387.103244174 670.051622087 532.426805621 613.696482492 614 482 c 1
 511.205511786 587.517521015 412.234335319 629.313179568 340.984455436 629.313179568 c 0
 275.423500771 629.313179568 233.333773668 593.925389895 233.333773668 540.232130263 c 0
 233.333773668 480.844254672 284.824871316 399.062108411 413 318 c 1
 528.341597025 295.114762495 542.288273131 257.145983035 542.288273131 214.832919755 c 0
 542.288273131 210.92288477 542.169181 206.975753491 542 203 c 1
 541 203 l 1
 545 195 555 193 568 192 c 0
 571 192 572 187 572 184 c 2
 592 183 l 1
 591 182 l 1
 572 183 l 1
 572 181 572 178 570 175 c 2
 567 174 l 1
 572 184 570 191 566 191 c 0
 561 190 542 193 538 202 c 1
 511.83577697 195.843712228 484.355585914 190.740198877 459.07006724 190.740198877 c 0
 435.068379836 190.740198877 413.044160665 195.338623506 396 208 c 0
 381 219 370 236 365 262 c 1
 158.695184169 379.252377343 82.8493039791 479.37131098 82.8493039791 551.095128724 c 0x1960
 82.8493039791 624.345299488 161.957682337 667.978943078 262 670 c 0
492 578 m 1
 508 566 530 554 538 542 c 1
 498 430 455 436 348 371 c 1x1d20
 321 389 300 413 278 440 c 1
 394 493 430 497 492 578 c 1
164 397 m 1x5ba0
 192 367 221 351 255 321 c 1
 160.690527339 288.11815321 124.221728606 248.18575023 124.221728606 211.865139392 c 0
 124.221728606 156.01352408 210.457339949 108.70250002 305.216146429 108.70250002 c 0x5ba0
 319.373567805 108.70250002 333.721242212 109.758567091 348 112 c 1
 387.069803761 136.897423965 420.56433998 146.536220974 450.506747439 146.536220974 c 0
 498.735338213 146.536220974 537.74831209 121.529396454 576 95 c 0
 585 92 592 97 598 102 c 0
 600 104 605 101 608 99 c 2
 618 108 l 1
 618 107 l 1
 609 99 l 1
 611 97 614 95 616 92 c 2
 616 90 l 1
 609 99 601 103 598 100 c 0
 598 98 588 92 579 94 c 1
 533.422523529 51.5125219336 537.375764668 0.0737093593339 454.405650622 0.0737093593339 c 0xb9a0
 429.971030845 0.0737093593339 397.997575372 4.53498165549 355 15 c 1
 335.297137825 13.8503360099 316.537243991 13.296313688 298.689166291 13.296313688 c 0
 76.9481655348 13.296313688 -4.05321217002 98.8101467603 -4.05321217002 190.027517122 c 0
 -4.05321217002 276.671873189 69.0300402006 368.462228829 164 397 c 1x5ba0
471 279 m 0
 465 278 461 276 459 273 c 0
 454 265 459 253 471 246 c 0
 483 239 496 239 501 247 c 0
 506 254 500 266 489 273 c 0
 483 277 477 279 471 279 c 0
464 121 m 4
 450 121 439 115 439 107 c 4
 439 98 450 92 464 92 c 4x3920
 478 92 489 98 489 107 c 4
 489 115 478 121 464 121 c 4
469 69 m 4
 455 69 444 62 444 53 c 4
 444 45 455 38 469 38 c 4xb920
 483 38 494 45 494 53 c 4
 494 62 483 69 469 69 c 4
EndSplineSet
Validated: 1
EndChar

StartChar: quotesingle
Encoding: 8 39 8
Width: 197
GlyphClass: 1
Flags: W
HStem: 491.222 127.778<74.4819 135.527> 660 33<66.6932 148.062>
VStem: 26.9709 39.0291<619.283 659.786> 97 22<619.87 655.652> 152 25.2211<613.67 656.084>
LayerCount: 2
Fore
SplineSet
135 685 m 1
 161.853443096 671.573278452 177.221103408 645.662010399 177.221103408 618.911828421 c 0
 177.221103408 607.808134027 174.573278452 596.559896014 169 586 c 0
 152.008739896 553.806033487 137.416673032 491.222285929 107.344274678 491.222285929 c 0
 103.789057114 491.222285929 100.017479792 492.096983257 96 494 c 0
 64.7047573267 509.224712652 26.9708514498 585.259022227 26.9708514498 630.732272134 c 0
 26.9708514498 639.021514633 28.2247126519 646.295242673 31 652 c 0
 44 676 70 692 99 693 c 0
 111 693 124 690 135 685 c 1
82 660 m 0
 73 660 66 650 66 639 c 0
 66 628 73 619 82 619 c 0
 90 619 97 628 97 639 c 0
 97 650 90 660 82 660 c 0
135 657 m 0
 126 657 119 647 119 635 c 0
 119 622 126 613 135 613 c 0
 145 613 152 622 152 635 c 0
 152 647 145 657 135 657 c 0
EndSplineSet
Validated: 1
EndChar

StartChar: parenleft
Encoding: 9 40 9
Width: 379
GlyphClass: 1
Flags: W
HStem: 5.15562 10.8444<303.236 331.383> 12.4695 684.908<94.2917 242.773> 50 23<298.688 333.264> 117.076 22.7877<298.413 330.434>
VStem: 0.209897 78.7071<240.213 465.192>
LayerCount: 2
Fore
SplineSet
329 677 m 1x48
 145.261263033 604.974415109 78.9170332521 473.171259074 78.9170332521 353.813735413 c 0
 78.9170332521 229.569544423 150.804924126 118.810931077 237 103 c 1
 252.47520888 118.47520888 276.820124792 139.863555781 306.45731178 139.863555781 c 0
 328.528896862 139.863555781 353.535664835 128.001217477 380 93 c 0
 384 91 387 94 390 99 c 0
 391 100 394 98 395 96 c 1
 400 104 l 1
 400 103 l 1
 400 103 395 97 396 96 c 0
 397 94 398 92 399 89 c 2
 399 89 402 80 399 88 c 0
 395 95 392 99 390 97 c 1
 390 95 385 89 381 91 c 1
 350.208825017 37.1154437798 365.637352305 5.15561812379 320.092520656 5.15561812379 c 0x98
 306.471267641 5.15561812379 287.396254426 8.01426373895 260 14 c 1
 251.287766863 12.9706006957 242.772841577 12.4694569139 234.458595304 12.4694569139 c 0
 84.8412076655 12.4694569139 0.209897125967 174.755328444 0.209897125967 341.335123688 c 0
 0.209897125967 516.969569415 94.2917381522 697.377428737 305.481462897 697.377428737 c 0
 326.187960104 697.377428737 348.020238121 695.643132981 371 692 c 1
 329 677 l 1x48
303 19 m 0
 308 16 315 15 321 16 c 0
 333 19 341 29 340 38 c 0
 338 47 327 53 315 50 c 0xa8
 304 48 295 38 297 29 c 0
 297 25 300 21 303 19 c 0
302 77 m 0
 306 74 312 73 317 73 c 0
 329 74 337 85 335 97 c 0
 332.152721102 108.38911559 320.297667626 117.075898807 308.838976612 117.075898807 c 0x38
 308.224360346 117.075898807 307.61088441 117.050907034 307 117 c 0
 294 116 286 106 289 94 c 0
 291 87 295 81 302 77 c 0
EndSplineSet
Validated: 1
EndChar

StartChar: parenright
Encoding: 10 41 10
Width: 419
GlyphClass: 1
Flags: W
HStem: 20.4445 64.1822<149.342 217.943> 113.076 21.7175<63.0115 93.5788> 675.323 19.7422<21.1894 106.45>
VStem: 318.148 97.0175<239.876 497.973>
LayerCount: 2
Fore
SplineSet
3 675 m 1
 70 694 l 1
 80.9485917251 694.715452529 91.605289317 695.065214823 101.97443398 695.065214823 c 0
 325.207197414 695.065214823 415.165234573 532.957757944 415.165234573 367.672386647 c 0
 415.165234573 195.777007462 317.86821434 20.4444523079 171.998361628 20.4444523079 c 0
 164.137428087 20.4444523079 156.135432365 20.9536421395 148 22 c 1
 114.893501015 9.34163274117 92.5324949231 3.32018756291 76.164132311 3.32018756291 c 0
 42.1021251273 3.32018756291 33.9907797801 29.3955728425 9 76 c 1
 4 74 -1 80 -1 82 c 1
 -2 84 -5 81 -9 73 c 1
 -10 74 l 2
 -10 74 -8 78 -7 80 c 1
 -8 81 -11 88 -11 88 c 1
 -11 89 l 1
 -6 81 l 1
 -4 83 -2 86 -1 84 c 0
 2 79 5 76 9 78 c 0
 38.6218054693 118.305079573 62.5841557861 134.793285379 84.3223640569 134.793285379 c 0
 107.349513046 134.793285379 127.880944839 116.291814741 150 88 c 1
 156.47432552 85.7197344079 162.981811826 84.6266249377 169.476279514 84.6266249377 c 0
 244.684969833 84.6266249377 318.14778241 231.219407351 318.14778241 378.349869512 c 0
 318.14778241 526.563608714 243.599218577 675.322974356 21.1893740516 675.322974356 c 0
 15.2327766986 675.322974356 9.17012146626 675.216272299 3 675 c 1
88 8 m 0
 91 11 94 14 94 18 c 0
 96 28 87 38 76 40 c 0
 64 43 53 37 51 28 c 0
 50 18 58 8 70 6 c 0
 77 4 83 5 88 8 c 0
91 72 m 0
 97 76 102 82 103 89 c 0
 106 101 98 112 86 113 c 0
 85.3399460488 113.050773381 84.6824700338 113.0757674 84.0286190793 113.0757674 c 0
 71.8046402852 113.0757674 60.8476798574 104.339946049 58 92 c 0
 56 80 63 69 76 68 c 0
 81 68 86 69 91 72 c 0
EndSplineSet
Validated: 1
EndChar

StartChar: asterisk
Encoding: 11 42 11
Width: 258
GlyphClass: 1
Flags: W
HStem: 512.129 82.8709<143.766 179.881> 576.241 74.2224<187.005 235.408> 632 65.0145<112.9 138.821 155.004 173.927> 632 15<174.008 177.365>
VStem: 37.456 73.544<599.87 632.971> 110.578 65.8561<653.002 695.002> 139 16<596.58 626.442> 180 58<595.03 631.985>
LayerCount: 2
Fore
SplineSet
147 697 m 0x85
 147.504854369 697.009708738 148.001413894 697.014515977 148.489805779 697.014515977 c 0xa5
 171.627950269 697.014515977 176.43380434 686.224653617 176.43380434 674.668115542 c 0
 176.43380434 666.456191257 174.007166624 657.857146562 174.007166624 652.467293465 c 0
 174.007166624 649.111706182 174.947730221 647 178 647 c 1x15
 178 647 188.938012877 650.463704078 201.473713029 650.463704078 c 0
 218.297942179 650.463704078 238 644.224719101 238 615 c 0
 238 582.075949367 216.745233136 576.241307483 201.678562953 576.241307483 c 0x45
 193.406665598 576.241307483 187 578 187 578 c 1
 187 578 200.290310651 562.696005917 200.290310651 545.889494197 c 0
 200.290310651 536.213017751 195.884615385 526.038461538 182 518 c 0
 175.118110236 513.834645669 168.892181784 512.129146258 163.31033503 512.129146258 c 0
 138.070680141 512.129146258 126 547 126 547 c 1
 126 547 113.092802173 525.879130828 88.1771669091 525.879130828 c 0
 80.564056134 525.879130828 71.829787234 527.85106383 62 533 c 0
 55.3501787557 536.799897854 49.828421863 550.301149131 49.828421863 563.430409957 c 0
 49.828421863 577.942441251 56.5745275741 592 76 592 c 1
 76 592 37.4560219479 604.389135802 37.4560219479 630.309451202 c 0
 37.4560219479 635.632373114 39.0814814815 641.525925926 43 648 c 0
 52.1121495327 662.214953271 63.6155996157 666.73185431 74.5566098496 666.73185431 c 0
 93.633243078 666.73185431 111 653 111 653 c 1x89
 111 653 110.57771622 655.71468144 110.57771622 659.795699621 c 0
 110.57771622 672.147666738 114.446189438 697.016423137 145.600455697 697.016423137 c 0
 146.060982973 697.016423137 146.527472527 697.010989011 147 697 c 0x85
167 632 m 4
 161 632 155 624 155 614 c 4xa3
 155 604 161 595 167 595 c 4
 174 595 180 604 180 614 c 4
 180 624 174 632 167 632 c 4
125 629 m 4
 117 629 111 619 111 607 c 4x0b
 111 595 117 585 125 585 c 4
 132 585 139 595 139 607 c 4
 139 619 132 629 125 629 c 4
EndSplineSet
Validated: 1
EndChar

StartChar: plus
Encoding: 12 43 12
Width: 501
GlyphClass: 1
Flags: W
HStem: 2 23<295.653 309.998 317.003 317.044> 342 13<463.494 486.608> 346.136 42.6455<169.076 413.653> 370 7<465.215 484.199> 393 14.2403<463.058 484.169>
VStem: 265 67.211<152.745 338.877 394 573.502> 281.748 13.252<23.6149 59.569> 310 7<27.2122 45.1993> 332 14.6262<25.0198 59.6578>
LayerCount: 2
Fore
SplineSet
310 -21 m 1x8980
 309 -21 l 1
 315 -15 l 1
 314 -14 312 -11 313 -10 c 0
 316 -7 319 -3 316 2 c 1
 291.260975875 6.02728299717 281.747959578 28.590575525 281.747959578 51.21787163 c 0
 281.747959578 67.9200869713 286.931196707 84.657175134 295 94 c 1x8b80
 288 136 267 299 265 340 c 1x8c
 274.6 340 304.04 338.72 321.576 338.72 c 0
 325.96 338.72 329.6 338.8 332 339 c 1x8880
 332.144877563 336.392203869 332.21104447 333.13898036 332.21104447 329.330416396 c 0x8c
 332.21104447 289.15089717 324.84680677 187.163152417 324.84680677 129.144414558 c 0
 324.84680677 116.743116633 325.183260638 106.350654255 326 99 c 1
 340.928677406 83.3057493938 346.626243193 67.0253964625 346.626243193 52.2902863115 c 0
 346.626243193 28.531075749 331.813121596 8.78934739833 317 2 c 1
 320 -3 316 -10 314 -11 c 0
 313 -12 315 -16 320 -19 c 0
 325 -22 319 -19 319 -19 c 2
 317 -18 316 -17 315 -16 c 1
 314 -17 310 -21 310 -21 c 1x8980
303 23 m 0
 307 23 310 28 310 35 c 0
 310 41 307 47 303 47 c 0
 299 47 295 41 295 35 c 0
 295 28 299 23 303 23 c 0
325 25 m 0
 329 25 332 30 332 36 c 0
 332 43 329 48 325 48 c 0
 321 48 317 43 317 36 c 0
 317 30 321 25 325 25 c 0
508 375 m 1
 504 354 489 342 467 342 c 0xd8
 456 342 437 342 416 357 c 1
 365.908311808 350.220673778 317.518818579 346.136489583 270.243848626 346.136489583 c 0
 191.997574824 346.136489583 116.804491856 357.324944788 42 386 c 1
 65.0592994827 384.462713368 86.7199406901 383.89001865 108.485961509 383.89001865 c 0
 172.101038552 383.89001865 236.616273354 388.782004725 339.580964438 388.782004725 c 0xa8
 361.803744435 388.782004725 385.817585255 388.55412518 412 388 c 1
 427.36836147 401.904707996 443.004508126 407.240290033 457.144688737 407.240290033 c 0
 481.648028247 407.240290033 501.659133683 391.21807916 508 376 c 1
 513 379 520 374 521 373 c 0
 522 371 526 373 529 378 c 1
 529 377 l 2x98
 528 376 527 374 526 373 c 1
 531 368 l 1
 525 372 l 17
 524 371 522 370 521 371 c 0
 517 375 514 377 508 375 c 1
475 355 m 0
 481 355 487 358 487 362 c 0
 487 367 482 370 475 370 c 0
 469 370 463 367 463 363 c 0
 463 359 468 355 475 355 c 0
474 377 m 0
 481 377 486 380 486 385 c 0
 486 389 481 392 475 393 c 0
 468 393 463 390 463 385 c 0
 463 381 468 377 474 377 c 0
259 393 m 1
 258.987067996 394.00869631 258.980658224 395.029768137 258.980658224 396.062882426 c 0
 258.980658224 474.917950269 296.323300099 623.931104286 321 695 c 1
 320.647508942 686.775208649 320.488295578 677.57022328 320.488295578 667.582941426 c 0
 320.488295578 592.569923584 329.469988077 473.425268263 333 394 c 1
 321 394 270 393 259 393 c 1
EndSplineSet
Validated: 1
EndChar

StartChar: comma
Encoding: 13 44 13
Width: 240
GlyphClass: 1
Flags: W
HStem: -45 25<65.5 97.2494> -9 1<21 22.3174>
VStem: 27 1<-8 1> 32.2357 38.7643<-79.6158 -45.0121> 98 24.3595<-90.122 -45.1937> 135.853 84.2175<-245.319 -170.995>
LayerCount: 2
Fore
SplineSet
29 2 m 1
 28 -8 l 2
 30 -9 34 -10 34 -12 c 0
 33 -19 33 -25 42 -28 c 0
 43 -27 45 -26 47 -25 c 0
 55 -22 62 -20 69 -20 c 0
 104.729193949 -20 122.359494228 -58.6109731651 122.359494228 -86.1620198446 c 0
 122.359494228 -94.0819146326 120.902619101 -101.087875367 118 -106 c 1
 190.189257722 -131.97285463 220.070803179 -166.26136305 220.070803179 -198.779712739 c 0
 220.070803179 -251.39824193 141.831770914 -299.381953745 38 -300 c 1
 77.1510815223 -257.353286199 135.85327509 -253.320018688 135.85327509 -218.189829147 c 0
 135.85327509 -203.071327265 124.981239615 -182.193469234 97 -150 c 1
 52.8100107047 -144.204591568 32.2357112579 -95.3761483005 32.2357112579 -60.1605664311 c 0
 32.2357112579 -46.764448495 35.2129471345 -35.3382007575 41 -29 c 1
 32 -27 31 -15 32 -13 c 0
 33 -10 27 -8 20 -9 c 1
 21 -8 l 2
 23 -7 26 -7 27 -8 c 1
 28 1 l 1
 29 2 l 1
84 -45 m 0
 77 -45 71 -53 71 -63 c 0
 71 -72 77 -80 84 -80 c 0
 92 -80 98 -72 98 -63 c 0
 98 -53 92 -45 84 -45 c 0
EndSplineSet
Validated: 1
EndChar

StartChar: hyphen
Encoding: 14 45 14
Width: 492
GlyphClass: 1
Flags: W
HStem: 330.114 13.8857<396.676 416.909> 360 9<403.447 415.906> 362.267 35.2171<140.084 363.074> 385 14.5371<402.272 422.547>
VStem: 417 34<369.003 384.271>
LayerCount: 2
Fore
SplineSet
472 370 m 1x98
 467 365 l 1
 468 364 469 363 470 361 c 2
 470 360 l 1xd8
 465 368 464 367 462 366 c 0
 462 364 456 359 451 362 c 1
 445.399947313 346.444298092 427.797693479 330.114260627 406.143158354 330.114260627 c 0
 392.996089453 330.114260627 378.3553331 336.133579205 364 352 c 1
 285.168439698 359.644272514 225.05430903 362.266795614 173.515424033 362.266795614 c 0
 117.179797959 362.266795614 71.0898989795 359.133397807 22 356 c 1
 87.9897614201 385.328782853 158.086273075 397.483882908 229.780243592 397.483882908 c 0xa8
 275.421881648 397.483882908 321.710940824 392.557641192 368 384 c 1
 376.69445604 393.563901644 392.192333006 399.537108912 407.510403462 399.537108912 c 0
 427.428742011 399.537108912 447.043059614 389.437473909 451 364 c 1
 456 361 459 363 462 367 c 0
 463 368 465 368 467 366 c 1
 472 371 l 1
 472 370 l 1x98
423 377 m 4
 423 382 418 385 412 385 c 4
 407 385 402 381 402 377 c 4
 402 373 407 369 413 369 c 4
 419 369 423 373 423 377 c 4
417 352 m 4
 417 357 412 360 406 360 c 4
 401 360 396 356 396 352 c 4
 396 347 401 343 407 344 c 4
 412 344 417 347 417 352 c 4
EndSplineSet
Validated: 1
EndChar

StartChar: period
Encoding: 15 46 15
Width: 240
GlyphClass: 1
Flags: W
HStem: 0.244495 90.7555<67.6137 179.437> 143 49<67.5847 172.216>
VStem: 19.8776 47.1224<91.6733 142.709> 108 29<92.1997 139.991> 180 39.9984<85.2969 141.59>
LayerCount: 2
Fore
SplineSet
166 181 m 1
 200.386154262 164.157801994 219.998369271 131.064270809 219.998369271 96.579824834 c 0
 219.998369271 81.9242058896 216.456043744 67.0173622383 209 53 c 0
 191.902271271 19.5169479051 156.53377206 0.244495073459 119.887867919 0.244495073459 c 0
 105.094091778 0.244495073459 90.0921371777 3.38532336558 76 10 c 0
 40.2857142857 26.4285714286 19.8775510204 60.2040816327 19.8775510204 95.6559766764 c 0
 19.8775510204 109.836734694 23.1428571429 124.285714286 30 138 c 0
 47 170 81 191 118 192 c 0
 134 192 152 188 166 182 c 1
 166 181 l 1
88 143 m 4
 76 143 67 132 67 117 c 4
 67 103 76 91 88 91 c 4
 99 91 108 103 108 117 c 4
 108 132 99 143 88 143 c 4
159 142 m 4
 147 142 137 129 137 113 c 4
 137 97 147 85 159 85 c 4
 171 85 180 97 180 113 c 4
 180 129 171 142 159 142 c 4
EndSplineSet
Validated: 1
EndChar

StartChar: slash
Encoding: 16 47 16
Width: 540
GlyphClass: 1
Flags: W
HStem: -9 1<-1.99268 1> -1 2<3.23288 9.14349> 676 20G<433 486.5>
LayerCount: 2
Fore
SplineSet
-10 -11 m 1
 -11 -10 l 1
 1 -8 l 2
 1 -5 1 1 4 1 c 0
 12 2 17 4 20 14 c 1
 9.20137541175 27.9182272471 4.67955177993 43.1609170813 4.67955177993 58.415291189 c 0
 4.67955177993 106.728904767 50.0385940235 155.159724918 85 162 c 1
 132 358 326 584 540 696 c 1
 433 558 285 403 127 134 c 1
 127.316346888 129.52595115 127.469305444 125.184655321 127.469305444 120.974358832 c 0
 127.469305444 43.8618533554 76.1597747337 10.6927198644 37.619079098 10.6927198644 c 0
 31.7009734033 10.6927198644 26.0839447319 11.4748165804 21 13 c 1
 19 3 7 -2 5 -1 c 0
 2 -1 0 -8 4 -18 c 1
 3 -18 3 -18 3 -18 c 1
 1 -14 1 -11 1 -9 c 1
 -1 -9 -10 -11 -10 -11 c 1
24 57 m 4
 29 53 39 56 45 65 c 4
 52 74 53 85 48 90 c 4
 43 94 33 91 27 82 c 4
 20 73 19 62 24 57 c 4
52 35 m 4
 58 30 67 34 73 42 c 4
 80 51 81 62 75 67 c 4
 70 71 61 68 55 59 c 4
 48 51 47 40 52 35 c 4
EndSplineSet
Validated: 1
EndChar

StartChar: zero
Encoding: 17 48 17
Width: 566
GlyphClass: 1
Flags: W
HStem: -0.884171 139.231<229.312 354.528> 684 12<228.828 251.579>
VStem: 63.4494 57.2821<306.21 466.98> 448.612 117.823<249.396 449.861>
LayerCount: 2
Fore
SplineSet
246 696 m 1
 263 696 280 687 298 672 c 1
 484.42152902 656.868382385 566.434629685 473.584243315 566.434629685 309.292697336 c 0
 566.434629685 202.146730557 531.552382558 103.078794244 468 64 c 1
 457.966903811 40.7984650639 378.727981971 -0.884171040637 297.844152564 -0.884171040637 c 0
 249.740753484 -0.884171040637 201.055559892 13.858741832 166 56 c 1
 105.547744008 108.355971708 63.4494373966 213.15179879 63.4494373966 328.087930949 c 0
 63.4494373966 426.09417109 94.0591271314 531.473429701 170 618 c 1
 178.20294045 628.025816105 191.390194383 639.713070039 191.390194383 643.975978091 c 0
 191.390194383 644.390194383 191.265686517 644.734313483 191 645 c 2
 191 645 191 645 191 646 c 1
 187 645 184 642 183 637 c 0
 182 635 179 636 178 637 c 1
 174 628 l 1
 174 629 l 1
 177 637 l 1
 176 637 175 639 173 640 c 2
 173 641 l 1
 177 637 181 636 182 638 c 0
 182 640 186 647 191 647 c 1
 202 680 222 696 246 696 c 1
238 684 m 4
 232 682 227 678 228 675 c 4
 229 672 235 671 241 672 c 4
 248 674 253 678 252 681 c 4
 251 684 245 685 238 684 c 4
198 640 m 1
 192.913899426 598.675432836 120.731586943 529.865670432 120.731586943 415.582711484 c 0
 120.731586943 350.108377339 144.424039494 269.708343055 218 171 c 1
 236.915500241 148.204397146 264.299548395 138.346853604 291.138783503 138.346853604 c 0
 319.636713995 138.346853604 347.520410454 149.460461761 364 168 c 1
 423.606083769 213.086653108 448.611830684 283.430092189 448.611830684 355.099624895 c 0
 448.611830684 471.002339771 383.214819036 590.37315982 293 612 c 1
 206 642 227 617 198 640 c 1
EndSplineSet
Validated: 1
EndChar

StartChar: one
Encoding: 18 49 18
Width: 169
GlyphClass: 1
Flags: W
HStem: -32 21G<121 126 126 127> 676.92 22.5863<104.433 123.177>
VStem: 81.969 12.031<43.3901 83.2> 89.5718 77.3571<142.181 566.343> 112 14<42.6014 83.6482> 146 15.5344<37.829 83.9501>
LayerCount: 2
Fore
SplineSet
126 -32 m 1xcc
 126 -32 121 -26 121 -25 c 1
 119 -26 118 -27 116 -29 c 1
 116 -29 115 -29 115 -28 c 1
 121 -24 123 -19 122 -17 c 0
 121 -15 114 -6 118 1 c 1
 100.173425268 10.2206421028 81.9689827989 37.9568033107 81.9689827989 71.6654242348 c 0xec
 81.9689827989 92.7934739267 89.1207642026 116.267858938 108 139 c 1
 94.2916377372 206.807434764 89.5717574225 278.749571225 89.5717574225 347.213336365 c 0
 89.5717574225 498.616913043 112.654196451 633.009614749 112.654196451 668.056143504 c 0
 112.654196451 673.842034649 112.025078328 676.92021896 110.559117715 676.92021896 c 0
 108.517054428 676.92021896 104.851172534 670.947275395 99 658 c 1
 102.172663832 686.856132944 106.851773291 699.506562919 112.295928094 699.506562919 c 0
 133.699762358 699.506562919 166.928821363 503.970208288 166.928821363 328.948506194 c 0xd0
 166.928821363 253.824425389 160.806831881 182.479882459 145 132 c 1
 155.142441373 118.476744835 161.534446189 94.9523255165 161.534446189 71.4647014231 c 0
 161.534446189 39.3736973064 149.602108634 7.35138103715 119 1 c 1
 116 -6 119 -11 123 -17 c 0
 124 -19 122 -22 121 -24 c 9
 127 -32 l 1
 126 -32 l 1xcc
136 37 m 4
 142 37 146 47 146 61 c 4
 146 74 142 85 136 85 c 4
 131 85 126 74 126 61 c 4
 126 47 131 37 136 37 c 4
103 42 m 4
 108 42 112 51 112 63 c 4
 112 75 108 85 103 85 c 4
 98 85 94 75 94 63 c 4
 94 51 98 42 103 42 c 4
EndSplineSet
Validated: 1
EndChar

StartChar: two
Encoding: 19 50 19
Width: 559
GlyphClass: 1
Flags: W
HStem: -0.0145993 79.0146<211.512 363.349> 175.444 21.6985<466.083 501.8> 619.796 74.3913<192.889 348.336>
VStem: 2.34232 162.137<60.1368 148.361> 381.408 135.023<464.206 576.483> 589 1<191.761 193>
LayerCount: 2
Fore
SplineSet
235 1 m 0
 220.079718911 0.318159197531 205.965383658 -0.0145992764233 192.632347158 -0.0145992764233 c 0
 57.152924176 -0.0145992764233 2.34231503759 34.3425929241 2.34231503759 85.9309935807 c 0
 2.34231503759 155.848103023 103.018657802 257.415564031 240 348 c 0
 341.579687528 415.189072315 381.407567908 482.276745931 381.407567908 532.989590671 c 0
 381.407567908 585.006436351 339.505131673 619.795520566 279.359263462 619.795520566 c 0
 213.996671472 619.795520566 127.088733272 578.709892342 49 474 c 1
 81.9464712058 633.175119922 182.331053165 694.18682162 281.666995719 694.18682162 c 0
 399.790149596 694.18682162 516.430500638 607.914721054 516.430500638 497.83954607 c 0
 516.430500638 467.281940774 507.441556471 434.88994022 487 402 c 0
 376.138750396 223.687026239 164.479526993 161.782331955 164.479526993 125.438019008 c 0
 164.479526993 107.361549484 216.838545659 95.6080573482 360 79 c 1
 368.337381962 142.667280435 432.399210069 197.14289965 496.015959502 197.14289965 c 0
 516.332541536 197.14289965 536.603729917 191.586921635 555 179 c 1
 562 185 576 182 578 180 c 0
 581 179 586 184 589 193 c 1
 590 192 l 2
 589 188 588 186 587 184 c 1
 599 180 l 1
 599 178 l 1
 586 183 l 2
 584 181 581 177 579 178 c 0
 570 182 562 183 554 176 c 1
 528 101 538 58 419 25 c 0
 346 8 285 3 235 1 c 0
461 140 m 4
 468 139 479 142 488 148 c 4
 500 156 506 167 501 173 c 4
 499.333333333 174.666666667 496.666666667 175.444444444 493.37037037 175.444444444 c 4
 486.777777778 175.444444444 477.666666667 172.333333333 469 167 c 4
 457 159 451 148 457 143 c 4
 458 142 459 141 461 140 c 4
EndSplineSet
Validated: 1
EndChar

StartChar: three
Encoding: 20 51 20
Width: 490
GlyphClass: 1
Flags: W
HStem: 10 52.9925<59.3509 97.9297> 48 60<155.407 271.434> 615 70<140.657 313.5>
VStem: 318 118<462.645 554.562> 338 140<154.582 233.613>
LayerCount: 2
Fore
SplineSet
102 11 m 0x68
 99 11 96 10 94 10 c 0xa8
 61 10 26 34 11 51 c 1
 3 51 0 46 -3 40 c 0
 -4 38 -9 39 -11 40 c 1
 -17 30 l 1
 -17 31 l 1
 -17 31 -15 36 -12 40 c 1
 -13 41 -16 42 -19 44 c 1
 -19 44 -19 45 -18 45 c 1
 -11 40 -6 39 -4 41 c 0
 -4 43 3 53 11 52 c 1
 15 80 44 111 99 111 c 0
 108 111 118 110 129 108 c 1
 134 108 140 108 145 108 c 0
 248 108 338 145 338 194 c 0x68
 338 236 268 286 77 326 c 1
 77 326 77 326 77 327 c 0
 77 332 73 350 73 367 c 0
 73 384 77 400 90 400 c 0
 300 406 318 477 318 502 c 0
 318 507 317 510 317 511 c 0
 306 525 301 615 156 615 c 0
 116 615 67 608 2 591 c 1
 102 659 187 685 257 685 c 0
 370 685 436 615 436 537 c 0x70
 436 471 389 400 280 362 c 1
 384 342 478 263 478 189 c 0
 478 122 399 58 178 48 c 0
 155 47 185 21 102 11 c 0x68
94 72 m 0
 98 76 99 81 96 83 c 0
 91 89 79 88 69 82 c 0
 59 77 54 69 60 64 c 0
 60.7065998398 63.2934001602 62.16212468 62.992468029 64.0909545803 62.992468029 c 0
 73.08106234 62.992468029 92.3532999199 69.5299498798 94 72 c 0
EndSplineSet
Validated: 1
EndChar

StartChar: four
Encoding: 21 52 21
Width: 681
GlyphClass: 1
Flags: W
HStem: 259 85<170.729 277> 352 20G<630 638> 649 37<327.926 327.995 342.004 365.512> 699 20G<323 325.5> 711 27<120.143 136.954>
VStem: 70.3529 80.1745<353.387 535.132> 97.8801 21.1199<676.549 710.585> 139 14<679.245 709.909> 175 21.4672<678.346 712.882> 276.039 23.9608<601.871 648.147> 281.893 129.906<157.873 474.047> 328 14<618.13 646.225> 331 2<705.466 710.216> 368 18.7529<600.813 647.816>
LayerCount: 2
Fore
SplineSet
147 773 m 1xeb80
 149 773 l 1
 140 764 l 2
 142 762 145 759 143 757 c 0
 136 751 133 746 139 737 c 0xeb80
 173.6442212 727.883099684 196.467234027 712.486182421 196.467234027 684.747029428 c 0
 196.467234027 666.847063808 186.963572155 643.807705067 165 614 c 1
 158.73640444 551.364044395 150.527389242 484.513012911 150.527389242 433.386523039 c 0
 150.527389242 394.725704142 155.221368903 365.05630221 169 353 c 1
 206 350 235 347 277 344 c 1
 277 313 278 285 281 259 c 1
 190 263 125 283 82 289 c 1
 77.4953802043 326.388344304 70.3528524732 361.138780673 70.3528524732 403.580180417 c 0xec80
 70.3528524732 455.356276643 80.9828005492 518.578536526 120 612 c 1
 111.697383009 633.586804178 97.8800901045 659.462800732 97.8800901045 684.031893426 c 0
 97.8800901045 703.850779943 106.870991364 722.819265181 135 738 c 0
 136 738 136 738 137 737 c 1
 130 745 138 756 141 757 c 0
 143 759 139 765 131 769 c 1
 132 770 l 2
 136 768 138 766 139 765 c 1
 147 773 l 1xeb80
336 722 m 1
 338 722 l 1
 330 713 l 2
 332 711 334 707 333 706 c 0
 327 700 324 694 329 686 c 0
 370.502520275 679.082913287 386.75293824 645.916930752 386.75293824 612.932529836 c 0xf0cc
 386.75293824 588.694457268 377.978011541 564.554435433 364 551 c 1
 397.570375738 470.036152632 411.798980435 392.191945754 411.798980435 316.789730816 c 0
 411.798980435 201.273967361 378.404352247 91.4895749425 330 -15 c 1
 330 93.1647940075 281.89299892 185.631513978 281.89299892 333.029165244 c 0xf0a0
 281.89299892 392.764002862 289.794007491 461.520599251 312 544 c 1
 285.944673512 566.98999396 276.039174927 591.007704241 276.039174927 612.734072918 c 0
 276.039174927 647.709855745 301.709829206 676.74749849 327 686 c 0
 321 694 328 705 331 706 c 0
 333 708 330 714 323 718 c 1
 324 719 l 2xf0c8
 327 717 328 715 330 714 c 1
 336 722 l 1
164 714 m 0
 158 714 153 706 153 696 c 0xe180
 153 686 158 678 164 678 c 0
 170 678 175 686 175 696 c 0
 175 706 170 714 164 714 c 0
129 711 m 0xeb80
 123 711 119 703 119 693 c 0
 119 684 123 676 129 676 c 0
 134 676 139 684 139 693 c 0
 139 703 134 711 129 711 c 0xeb80
314 649 m 0
 306 649 300 641 300 632 c 0
 300 622 306 614 314 614 c 0
 321 614 328 622 328 632 c 0xe0d0
 328 641 321 649 314 649 c 0
355 649 m 0
 348 649 342 642 342 633 c 0
 342 624 348 616 355 616 c 0
 362 616 368 624 368 633 c 0xe094
 368 642 362 649 355 649 c 0
683 372 m 1
 593 304 501 273 415 262 c 1
 416.236067977 278.068883707 417.090169944 294.519733426 417.090169944 311.116481179 c 0
 417.090169944 321.373835392 416.763932023 331.686917696 416 342 c 1
 490 344 577 352 683 372 c 1
EndSplineSet
Validated: 1
EndChar

StartChar: five
Encoding: 22 53 22
Width: 445
GlyphClass: 1
Flags: W
HStem: 0 64<158.188 286.287> 91 23<87.2823 122.397> 290 304<61.8066 152.432> 290 99<156.008 245.409> 598 103<163.654 290.055> 705 2<441 444.392> 714 16<395.673 405.997>
VStem: 61 92<383.851 525.913 526 587.348> 323 130<121.307 221.558> 417 24<678.189 694.999> 451 12<713 714.608>
LayerCount: 2
Fore
SplineSet
406 730 m 1xcf60
 419 730 432 723 441 707 c 1
 446 707 448 711 450 717 c 0
 450 719 454 717 456 717 c 2
 459 726 l 1
 460 725 l 1
 457 716 l 1
 458 716 460 715 463 713 c 2
 463 711 l 1
 457 716 451 718 451 715 c 0
 451 713 447 705 441 705 c 1
 441 704 441 704 441 703 c 0
 441 680 424 649 384 649 c 0
 375 649 365 651 354 654 c 1
 282 606 223 598 172 598 c 0
 147 598 124 600 102 600 c 0
 85 600 68 599 52 595 c 1
 84 629 119 658 159 677 c 0
 192 692 227 701 267 701 c 0
 291 701 317 698 344 691 c 1
 350 709 378 730 404 730 c 0
 405 730 405 730 406 730 c 1xcf60
398 714 m 0
 396 714 394 714 393 713 c 0
 386 712 382 708 383 704 c 0
 383 700 389 699 396 700 c 0
 402 701 407 706 406 709 c 0
 406 712 402 714 398 714 c 0
411 695 m 0
 408 695 405 694 402 692 c 0
 396 688 392 682 395 678 c 0
 397 675 404 674 410 678 c 0
 416 682 419 688 417 692 c 0
 416 694 414 695 411 695 c 0
106 594 m 0xef80
 122 593 152 592 170 589 c 1
 159 554 153 503 153 458 c 0
 153 429 156 401 162 383 c 1
 189 387 215 389 238 389 c 0xdf80
 389 389 453 304 453 213 c 0
 453 110 371 0 239 0 c 0
 211 0 181 5 149 16 c 1
 134 10 121 8 109 8 c 0
 63 8 42 48 42 83 c 0
 42 90 43 96 44 102 c 1
 38 109 43 120 45 120 c 0
 46 121 44 127 38 132 c 1
 39 132 l 2
 41 130 43 129 44 127 c 1
 48 133 l 1
 49 133 l 1
 44 126 l 2
 45 124 47 121 46 120 c 0
 42 115 41 111 45 102 c 1
 65 109 84 114 100 114 c 0
 125 114 146 103 162 71 c 1
 181 66 199 64 215 64 c 0
 286 64 323 108 323 158 c 0
 323 220 265 290 141 290 c 0
 117 290 89 287 59 281 c 1
 61 286 61 307 61 334 c 0
 61 407 57 526 57 526 c 1
 57 540 55 553 55 564 c 0
 55 583 61 594 95 594 c 0
 98 594 102 594 106 594 c 0xef80
101 91 m 0
 94 91 89 88 87 83 c 0
 86 77 92 69 102 67 c 0
 112 64 121 67 123 74 c 0
 125 80 118 88 108 90 c 0
 106 91 104 91 101 91 c 0
79 61 m 0
 75 60 72 59 70 57 c 0
 65 52 67 44 75 38 c 0
 83 33 94 32 99 37 c 0
 104 42 102 50 94 56 c 0
 90 59 84 61 79 61 c 0
EndSplineSet
Validated: 1
EndChar

StartChar: six
Encoding: 23 54 23
Width: 512
GlyphClass: 1
Flags: W
HStem: -0 96.4728<255.753 387.031> 255 66.2667<290.713 376.029> 328 17.8574<265.098 295.553> 596.626 103.374<267.465 354.61>
VStem: 69 110.398<203.829 452.885> 207 56<305.911 320.681> 408.276 102.11<117.281 223.386>
LayerCount: 2
Fore
SplineSet
294 345 m 1
 305 342 317 335 327 320 c 1
 333.639304019 320.854179464 340.185143992 321.266665934 346.621950909 321.266665934 c 0
 439.96972577 321.266665934 510.386386279 234.515227609 510.386386279 150.092379273 c 0
 510.386386279 90.4026359854 475.185398882 31.8769448737 388 6 c 1
 364 2 341 -0 319 -0 c 0
 137 -0 69 142 69 299 c 0
 69 489 170 700 289 700 c 0
 357 700 431 632 495 454 c 1
 431.817569777 556.307951867 373.247686363 596.626070107 324.149395919 596.626070107 c 4
 236.776092462 596.626070107 179.397715175 468.945437738 179.397715175 335.716447375 c 4
 179.397715175 260.615205647 197.630164862 183.750927689 239 127 c 1
 275.030100334 105.267558528 305.79062874 96.4728246888 330.810477829 96.4728246888 c 0
 381.173315847 96.4728246888 408.275907735 132.107574947 408.275907735 169.587034817 c 0
 408.275907735 211.158749008 374.931727548 255 303 255 c 1
 293.636325386 251.286818687 285.393391347 249.684799855 278.081846942 249.684799855 c 0
 240.104592558 249.684799855 227.255474682 292.905967984 213 308 c 1
 211 306 210 303 208 300 c 0
 207 298 203 299 201 300 c 1
 196 290 l 1
 196 291 l 1
 200 300 l 1
 198 301 196 303 196 304 c 2
 196 305 l 1
 201 300 206 299 207 301 c 1
 207 303 211 309 216 311 c 0
 231.338971749 322.729801925 258.075786958 345.857447312 285.191672593 345.857447312 c 0
 288.128000584 345.857447312 291.068773674 345.586245265 294 345 c 1
287 328 m 0
 285 328 282 328 280 328 c 0
 271 327 263 321 263 315 c 0
 263 309 271 304 280 306 c 0
 289 307 296 312 296 319 c 0
 296 323 293 326 287 328 c 0
EndSplineSet
Validated: 1
EndChar

StartChar: seven
Encoding: 24 55 24
Width: 395
GlyphClass: 1
Flags: W
HStem: 606.36 95.3904<137.67 306.279> 619.254 99.7463<21.6507 99.5454> 701 18<39.6104 59.9524>
LayerCount: 2
Fore
SplineSet
55 719 m 0x40
 56 719 58 719 60 719 c 0x40
 78 716 84 713 102 695 c 1
 103.287554211 694.54015921 106.799599788 694.342520825 112.114525908 694.342520825 c 0
 144.653808131 694.342520825 244.768459252 701.750380902 315.710041632 701.750380902 c 0
 358.722578692 701.750380902 391.010777776 699.027170812 391.010777776 690.278535739 c 0
 391.010777776 690.186360639 391.007193591 690.09351668 391 690 c 0
 369.026591359 412.336018084 81.6958215172 -0.00181256248857 81.0012612836 -0.00181256248857 c 0
 81.0004207539 -0.00181256248857 81 -0.00120869814274 81 0 c 0
 164.592362619 433.51388056 313.375386824 583.590102051 313.375386824 627.468670299 c 0
 313.375386824 628.732466151 313.251962051 629.908164444 313 631 c 1
 276.83789751 612.918948755 245.796718559 606.359975473 219.161776073 606.359975473 c 0x80
 167.723163398 606.359975473 132.71853123 630.823038206 109 644 c 1
 97.1318840424 627.045548632 78.2570909433 619.253675064 59.0768413966 619.253675064 c 0
 33.0058489412 619.253675064 6.3704968844 633.649896505 -4 659 c 1
 -10 654 -19 662 -19 665 c 0
 -21 667 -26 665 -30 658 c 1
 -30 659 l 1
 -29 662 -27 663 -26 665 c 1
 -28 667 -31 673 -31 673 c 1
 -31 674 l 1
 -25 665 l 2
 -23 666 -20 668 -19 667 c 0
 -15 661 -11 657 -4 660 c 1
 9 684 31 717 55 719 c 0x40
54 701 m 4x20
 51 701 48 700 44 697 c 4
 37 692 32 683 34 678 c 4
 36 673 43 673 50 678 c 4
 58 684 62 692 60 697 c 4
 59 700 57 701 54 701 c 4x20
EndSplineSet
Validated: 1
EndChar

StartChar: eight
Encoding: 25 56 25
Width: 429
GlyphClass: 1
Flags: W
HStem: 5 119<140.678 290.364> 371 21G<115.5 163.5> 608 45<349.652 359.67> 674 25<129.013 262.203> 674 10<156.604 160> 707 18<312.63 344.702>
VStem: -1 129<96.5 210.348> 52 92<480.092 571.392> 317 108<86 197.51> 345 52<666.907 706.868> 352 73<520.628 618.171>
LayerCount: 2
Fore
SplineSet
391 735 m 1xe540
 393 733 l 2
 396 729 l 1
 403 732 l 1
 403 731 l 1
 396 728 l 1
 396 728 398 723 397 723 c 1
 392 721 389 717 389 712 c 1
 389 712 389 712 390 712 c 0
 395 703 397 692 397 681 c 0
 397 645 369 608 310 608 c 0
 304 608 298 608 291 609 c 1
 270 588 144 600 144 535 c 0
 144 510 164 472 219 415 c 1
 199 401 175 384 152 371 c 1
 79 431 52 488 52 535 c 0
 52 618 136 673 212 673 c 0
 230 673 248 670 264 663 c 1
 269 700 304 725 343 725 c 0
 358 725 374 721 388 712 c 1
 387 718 394 723 396 723 c 0
 397 723 396 728 391 735 c 1xe540
328 707 m 0
 319 707 312 703 312 699 c 0
 312 694 319 691 328 691 c 0
 338 691 345 694 345 699 c 0xf440
 345 703 338 707 328 707 c 0
235 699 m 0
 251 699 264 698 277 697 c 1
 269 688 265 678 263 665 c 1
 246 671 229 674 210 674 c 0
 207 674 205 674 202 674 c 1xf4
 156 683 117 684 117 684 c 1xec
 160 694 200 699 235 699 c 0
362 681 m 0
 358 681 352 678 347 672 c 0
 340 665 338 657 341 653 c 0
 344 650 353 654 360 661 c 0
 366 668 369 677 366 680 c 0
 365 681 364 681 362 681 c 0
393 651 m 1
 414 631 425 607 425 578 c 0xe620
 425 530 394 471 324 407 c 1
 229 336 128 231 128 171 c 0
 128 143 150 124 206 124 c 0
 229 124 257 127 292 134 c 1
 310 148 317 162 317 176 c 0
 317 225 234 275 218 304 c 1
 232 318 256 341 272 355 c 1
 357 289 425 192 425 117 c 0xe680
 425 55 377 7 252 5 c 0
 248 5 243 5 239 5 c 0
 67 5 -1 60 -1 133 c 0
 -1 222 98 337 231 414 c 1
 310 474 352 541 352 583 c 0xe620
 352 594 349 604 343 611 c 1
 368 618 385 633 393 651 c 1
EndSplineSet
Validated: 1
EndChar

StartChar: nine
Encoding: 26 57 26
Width: 354
GlyphClass: 1
Flags: W
HStem: 0 103.021<127 188.343> 574.116 128.107<137.222 257.505>
VStem: 3.05157 74.7637<439.846 536.267> 249.289 100.966<376.249 592.921>
LayerCount: 2
Fore
SplineSet
159 0 m 1
 127 1 107 40 88 54 c 0
 84 57 80 64 81 66 c 1
 78 67 75 69 70 64 c 1
 70 65 70 65 70 65 c 2
 72 67 74 68 76 68 c 1
 77 68 73 78 73 78 c 1
 74 78 l 1
 77 68 l 1
 77 68 78 68 82 67 c 1
 83 63 85 59 86 57 c 1
 98.5001300042 72.441337064 119.650958977 103.021397323 151.042705474 103.021397323 c 0
 162.343290198 103.021397323 174.970993542 99.0585329318 189 89 c 1
 232.64860128 232.691195412 249.289081779 337.790651651 249.289081779 412.659540626 c 0
 249.289081779 531.421868168 207.417392106 574.116384377 165.056048979 574.116384377 c 0
 121.692223623 574.116384377 77.815295269 529.377224255 77.815295269 475.698051474 c 0
 77.815295269 425.533890475 116.134077054 367.562200391 229 331 c 1
 62.1237685877 368.681729674 3.05156843856 438.189751097 3.05156843856 506.959252109 c 0
 3.05156843856 605.347271267 123.965358466 702.223626701 223.083807345 702.223626701 c 0
 291.926402259 702.223626701 350.254968889 655.490669678 350.254968889 530.072919961 c 0
 350.254968889 423.01140315 307.7509418 258.612277113 193 17 c 1
 180 4 171 0 159 0 c 1
155 57 m 4
 159 61 161 66 159 70 c 4
 156 76 146 78 137 74 c 4
 128 71 124 63 127 57 c 4
 130 52 139 50 148 53 c 4
 151 54 153 56 155 57 c 4
EndSplineSet
Validated: 1
EndChar

StartChar: colon
Encoding: 27 58 27
Width: 324
GlyphClass: 1
Flags: W
HStem: 0.0247114 76.9753<165.059 272.671> 328.025 81.9753<148.587 255.017> 469 33<149.457 201>
VStem: 104.81 42.1898<410.419 468.486> 123.81 40.1898<77.5707 134.554> 195 19<416.656 457.344> 206 25<79.8625 130.262> 262 24.0363<409.301 457.364> 273 32.0363<75.0654 131.707>
LayerCount: 2
Fore
SplineSet
239 492 m 1xf1
 237 492 l 1
 267.950579044 476.524710478 286.036283645 446.20533506 286.036283645 414.964087499 c 0
 286.036283645 401.792114528 282.821288227 388.456265458 276 376 c 0
 260.370186161 345.450818405 228.588895915 328.02471139 195.358156745 328.02471139 c 0
 181.81442571 328.02471139 168.029926238 330.919367756 155 337 c 0
 123.497506265 352.035281101 104.810187008 382.961378553 104.810187008 415.097930405 c 0
 104.810187008 427.846976925 107.751246867 440.786527968 114 453 c 0
 129 482 160 501 194 502 c 0
 208 502 226 498 239 492 c 1xf1
171 469 m 4
 158 469 147 456 147 440 c 4
 147 424 158 410 171 410 c 4
 184 410 195 424 195 440 c 4xf4
 195 456 184 469 171 469 c 4
238 464 m 4
 225 464 214 450 214 434 c 4
 214 418 225 405 238 405 c 4
 251 405 262 418 262 434 c 4xe5
 262 450 251 464 238 464 c 4
257 164 m 1
 256 164 l 1
 286.950579044 148.524710478 305.036283645 118.20533506 305.036283645 86.9640874993 c 0
 305.036283645 73.7921145281 301.821288227 60.456265458 295 48 c 0
 279.370186161 17.450818405 247.588895915 0.0247113904048 214.358156745 0.0247113904048 c 0
 200.81442571 0.0247113904048 187.029926238 2.91936775571 174 9 c 0
 142.497506265 24.0352811006 123.810187008 54.9613785526 123.810187008 87.0979304045 c 0xe880
 123.810187008 99.8469769245 126.751246867 112.786527968 133 125 c 0
 148 154 179 173 213 174 c 0
 227 174 244 170 257 164 c 1
185 135 m 0
 173 135 164 122 164 106 c 0
 164 90 173 77 185 77 c 0
 196 77 206 90 206 106 c 0xea
 206 122 196 135 185 135 c 0
252 133 m 0
 240 133 231 119 231 103 c 0
 231 87 240 74 252 74 c 0
 264 74 273 87 273 103 c 0xe280
 273 119 264 133 252 133 c 0
EndSplineSet
Validated: 1
EndChar

StartChar: semicolon
Encoding: 28 59 28
Width: 240
GlyphClass: 1
Flags: W
HStem: 233 19<79.1805 101.52> 264 1<48 52.6719> 329 37<41.2685 99.7662> 396 25<74.0505 99.4742>
VStem: 20 15<373.866 396.804> 51 27<201.128 232.832> 54 1<264 273> 59 1<258.285 261.198> 100 15<366.804 394.833> 103 29<189.5 232.975> 144 76<46.9559 118.516>
LayerCount: 2
Fore
SplineSet
74 383 m 0xf8a0
 73 376 80 366 88 366 c 0
 95 366 100 371 100 380 c 0
 100 389 96 396 87 396 c 0
 81 396 75 394 74 383 c 0xf8a0
90 416 m 1
 106 408 115 392 115 375 c 0
 115 368 114 361 110 354 c 0
 102 338 85 329 68 329 c 0
 61 329 54 331 47 334 c 0
 30 342 20 358 20 375 c 0
 20 381 22 388 25 395 c 0
 33 410 49 420 67 421 c 0
 74 421 82 420 88 416 c 1
 90 416 l 1
48 402 m 0
 41 402 35 395 35 387 c 0
 35 379 41 372 48 372 c 0
 56 372 62 379 62 387 c 0
 62 395 56 402 48 402 c 0
57 273 m 1
 55 264 l 1
 57 264 60 262 60 261 c 1xfb20
 59 255 59 251 63 248 c 0
 64 247 64 248 64 248 c 2
 71 251 78 252 83 252 c 0
 84 252 l 0
 116 252 132 218 132 193 c 0
 132 186 131 179 128 175 c 1
 193 151 220 120 220 91 c 0
 220 44 150 1 56 0 c 1
 92 38 144 42 144 74 c 0
 144 87 134 106 109 135 c 1
 69 140 51 185 51 217 c 0xfc60
 51 231 54 243 62 247 c 1
 58 251 58 259 59 260 c 0
 59 262 55 264 48 264 c 1
 48 265 l 1
 51 265 52 265 54 264 c 1xfb20
 56 273 l 1
 57 273 l 1
90 233 m 0
 84 233 78 226 78 217 c 0
 78 208 84 201 90 201 c 0
 97 201 103 208 103 217 c 0xfc60
 103 226 97 233 90 233 c 0
EndSplineSet
Validated: 1
EndChar

StartChar: less
Encoding: 29 60 29
Width: 554
GlyphClass: 1
Flags: W
HStem: -26 2<574 586.766> -2 28<452.76 498.369>
VStem: 572 2<-41 -26>
LayerCount: 2
Fore
SplineSet
51 367 m 1
 78 413 446 707 446 707 c 1
 446 707 301 357 174 336 c 1
 316 290 347 224 397 161 c 1
 510 118 521 94 552 6 c 1
 556 -3 559 -4 562 -10 c 1
 563 -12 564 -12 564 -16 c 1
 563 -19 l 1
 559 -23 574 -25 588 -24 c 1
 587 -25 l 2
 582 -26 577 -26 574 -26 c 1
 574 -41 l 1
 572 -42 l 1
 572 -26 l 2
 572 -26 559 -23 560 -20 c 0
 561 -17 562 -16 561 -14 c 1
 559 -8 553 -4 549 5 c 1
 527 1 503 -2 481 -2 c 0
 416 -2 357 21 356 109 c 1
 175 179 104 282 51 367 c 1
444 52 m 1
 445 45 453 37 463 31 c 0
 470 28 477 26 483 26 c 0
 490 26 495 28 498 32 c 0
 499 33 499 35 499 37 c 0
 499 44 492 52 480 58 c 0
 473 61 467 63 461 63 c 0
 454 63 448 61 446 57 c 0
 445 56 444 54 444 52 c 1
EndSplineSet
Validated: 1
EndChar

StartChar: equal
Encoding: 30 61 30
Width: 538
GlyphClass: 1
Flags: W
HStem: 193.931 18.0687<438.015 458.825> 197.147 58.3428<115.973 398.726> 239 30<437.09 455.966> 296 13.4047<434.402 453.677> 400.641 58.8487<102.997 385.239> 446 15<423.12 439.411> 489 23.3329<418.448 440.753>
VStem: 441 42.1931<461.53 488.645> 445 30.0475<419.056 424.997>
LayerCount: 2
Fore
SplineSet
451 404 m 0x1680
 437 398 l 0
 420 400 l 1
 401 408 398 408 391 422 c 1
 340.045303278 408.48928496 289.239618328 400.641017262 239.158161034 400.641017262 c 0
 159.501776909 400.641017262 81.6775484346 420.495613947 8 469 c 1
 61.4238672225 464.376780721 111.681192741 459.489682967 172.598281172 459.489682967 c 0
 230.26821248 459.489682967 297.491767639 463.869657837 386 477 c 1
 401.664251335 502.734127192 419.693167685 512.332893101 435.936529765 512.332893101 c 0
 461.834237796 512.332893101 483.193116369 487.933096244 483.193116369 465.625079883 c 0x1b
 483.193116369 464.409074331 483.129652338 463.199284126 483 462 c 1
 489 467 491 456 495 453 c 0
 498 451 500 454 503 463 c 1
 503 461 l 2
 502 458 501 456 500 454 c 2
 505 446 l 1
 505 444 l 1
 499 452 l 1
 497 450 496 446 486 461 c 0
 486 461 482 459 482 454 c 1
 482 454 486 440 475 425 c 1
 475.031918585 424.93616283 475.047536433 424.855006127 475.047536433 424.757700558 c 0
 475.047536433 421.806450898 460.680814151 404 451 404 c 0x1680
448 194 m 1
 447.219120689 193.954065923 446.436131438 193.93134118 445.652001428 193.93134118 c 0x92
 429.365362678 193.93134118 412.586593306 203.734945234 404 219 c 1
 352.980753678 205.085660094 302.110896905 197.146902133 251.96783439 197.146902133 c 0
 172.377811274 197.146902133 94.61886698 217.147736463 21 265 c 1
 74.4238672225 260.376780721 124.681192741 255.489682967 185.733833178 255.489682967 c 0x52
 243.532090955 255.489682967 311.00545867 259.869657837 400 273 c 1
 415.433614617 299.350073736 431.292327021 309.404732293 445.655904405 309.404732293 c 0
 469.449731322 309.404732293 489.140725873 281.813526134 496 255 c 1
 501 260 507 252 508 249 c 0
 509 247 515 254 516 260 c 1
 516 258 l 2
 516 255 515 253 514 252 c 2
 518 242 l 1
 518 241 l 1
 513 250 l 1
 511 248 509 245 508 247 c 0
 504 254 501 258 496 253 c 1
 491 211 469 194 448 194 c 1
448 212 m 0
 455 212 460 218 460 225 c 0
 460 232 455 238 449 239 c 0xb2
 442 239 437 233 437 226 c 0
 437 218 442 212 448 212 c 0
444 269 m 0
 450 268 456 274 456 282 c 0
 456 289 451 296 444 296 c 0
 438 296 433 290 432 283 c 0
 432 275 438 269 444 269 c 0
433 419 m 4
 440 419 445 425 445 432 c 4
 446 439 440 445 434 446 c 4x1680
 427 446 422 440 422 433 c 4
 422 425 427 419 433 419 c 4
429 461 m 4
 435 461 441 467 441 475 c 4x17
 441 482 436 489 429 489 c 4
 423 489 418 483 418 475 c 4
 417 468 423 462 429 461 c 4
EndSplineSet
Validated: 1
EndChar

StartChar: greater
Encoding: 31 62 31
Width: 270
GlyphClass: 1
Flags: W
HStem: 8 1<23 27.4622>
VStem: 23 6<8 9> 33 1<11.2156 15.9613>
LayerCount: 2
Fore
SplineSet
242 186 m 1
 220 144 200 128 129 82 c 1
 116 40 76 26 39 23 c 1
 34 20 34 13 34 11 c 1
 33 9 29 9 29 8 c 9
 30 0 l 1
 29 1 l 1
 29 1 29 7 28 8 c 1
 26 9 25 8 23 8 c 1
 23 9 l 1
 25 9 33 10 33 12 c 1
 32 13 33 21 38 24 c 1
 42 65 60 100 112 107 c 1
 133 138 121 162 188 182 c 1
 187 182 183 183 181 183 c 1
 144 183 84 350 83 366 c 1
 106 356 207 202 249 202 c 0
 250 202 l 1
 242 186 l 1
79 47 m 5
 79 48 79 48 79 49 c 4
 77 52 72 52 67 49 c 4
 62 46 59 42 61 39 c 4
 62 36 68 36 73 38 c 4
 76 41 79 44 79 47 c 5
EndSplineSet
Validated: 1
EndChar

StartChar: question
Encoding: 32 63 32
Width: 316
GlyphClass: 1
Flags: W
HStem: 1.32929 35.6707<81.1569 144.819> 76 17<80.6898 135.712> 651.321 46.6976<75.4954 189.065>
VStem: 2.6157 0.384299<486.301 607.627> 49.0908 80.565<280.1 377.462> 60.3528 14.6472<34.8655 69.0638> 61.1407 83.4736<144.678 227.661> 98 18<38.254 72.5828> 145 10.319<41.7632 68.0218> 230.866 82.2855<498.953 611.925>
LayerCount: 2
Fore
SplineSet
161 698 m 0xf8c0
 235.980004523 696.880895455 313.151700267 628.445560578 313.151700267 549.982797879 c 0
 313.151700267 488.221373229 265.336556868 420.247011381 131 374 c 1
 130.056905989 369.756076949 129.655806138 365.94296977 129.655806138 362.347698692 c 0xf8c0
 129.655806138 341.877564664 142.658417767 328.469109214 142.658417767 282.812111136 c 0
 142.658417767 268.465461418 141.374560115 250.934640751 138 229 c 1
 142.066445914 218.252964371 144.614281202 206.324787144 144.614281202 194.440735775 c 0
 144.614281202 165.410258166 129.410532966 136.643093664 84 126 c 1
 86 119 83 112 81 111 c 0
 80 110 82 104 86 99 c 1
 84 101 83 103 82 104 c 1
 78 98 l 1
 78 99 l 1
 82 105 l 2
 81 107 80 110 80 112 c 0
 83 115 85 119 83 126 c 0
 67.7232786216 147.057102441 61.140705541 166.238996425 61.140705541 182.841823547 c 0xf2c0
 61.140705541 206.45080551 74.4509526553 224.84480287 95 236 c 1
 66.4399843348 272.137162678 49.0908217842 322.542683866 49.0908217842 361.47526593 c 0
 49.0908217842 389.338743906 57.9771582027 411.325719401 78 418 c 0
 190.988442996 456.477145453 230.866233044 510.247845859 230.866233044 556.473407092 c 0
 230.866233044 608.715787619 179.931666633 651.321014438 126.034779843 651.321014438 c 0
 71.4536981985 651.321014438 13.8346083528 607.627216347 3 486 c 1
 2.74192988156 492.414885801 2.61570094772 498.646281294 2.61570094772 504.698946869 c 0
 2.61570094772 660.798673628 86.5752007052 698.018568466 158.22143229 698.018568466 c 0
 159.149758561 698.018568466 160.076017605 698.012319765 161 698 c 0xf8c0
91 201 m 2
 86 201 80 195 78 186 c 0
 75 176 77 167 82 166 c 0
 88 165 94 171 96 181 c 0
 99 191 97 200 92 201 c 0
 91 201 91 201 91 201 c 2
130 76 m 0
 122.272460938 76 116 67.0400390625 116 56 c 0xf1c0
 116 45 122 37 130 37 c 0
 138 37 145 45 145 56 c 0
 145 67 138 76 130 76 c 0
130 88 m 1
 146.081743348 79.6095252097 155.319035718 63.8857100853 155.319035718 47.6652443159 c 0
 155.319035718 40.6873102216 153.60952521 33.6174628844 150 27 c 0
 142.161277382 10.6099436171 125.181891119 1.32929229144 107.746826285 1.32929229144 c 0
 100.715441351 1.32929229144 93.6099436171 2.83872261791 87 6 c 0
 69.8439570192 14.5780214904 60.3527528602 30.8208818027 60.3527528602 47.4231195886 c 0xf4c0
 60.3527528602 54.0461504329 61.8631863662 60.7263727324 65 67 c 0
 73 83 90 93 109 93 c 0
 116 93 122 92 128 89 c 5
 130 88 l 1
87 73 m 0
 80 73 75 64 75 53 c 0
 75 42 80 33 87 33 c 0
 93 33 98 42 98 53 c 0xf5c0
 98 64 93 73 87 73 c 0
EndSplineSet
Validated: 1
EndChar

StartChar: at
Encoding: 33 64 33
Width: 719
GlyphClass: 1
Flags: W
HStem: -0 69<260.481 529.425> 107 94<518.14 567.331> 123 66<273.58 378.869> 134 9<661.094 678.706> 143 1<738 746> 391 21G<544.5 546.5> 435 74<275.603 402.958> 592 108<267.938 508.441>
VStem: 2 83<218.064 400.573> 139 76<244.931 379.12> 636 80<315.497 477.578> 737 1<144.018 150>
LayerCount: 2
Fore
SplineSet
738 150 m 1x8ff0
 738 144 l 1
 746 143 l 1
 747 142 l 1
 738 143 l 1x8ff0
 737 142 736 138 734 138 c 1
 730 140 723 138 720 132 c 0
 714 103 713 85 682 68 c 1
 554 20 445 -0 354 -0 c 0
 115 -0 2 141 2 306 c 0
 2 354 11 404 30 453 c 0
 81 586 214 700 393 700 c 0
 393 700 394 700 395 700 c 1
 419 696 l 1
 568 694 716 593 716 410 c 0
 716 372 710 331 696 286 c 1
 685 228 602 107 533 107 c 0xc7f0
 508 107 485 124 468 166 c 0
 447 219 459 334 451 168 c 0
 449 132 417 123 377 123 c 0
 352 123 325 126 299 130 c 0
 188 147 139 228 139 310 c 0
 139 331 143 352 149 373 c 0
 173 449 245 509 322 509 c 0
 344 509 413 508 441 493 c 1
 440 493 l 0
 425 493 411 470 399 433 c 1
 386 435 374 435 363 435 c 0
 263 435 215 374 215 312 c 0
 215 251 263 189 355 189 c 0xa7f0
 363 189 371 189 380 190 c 1
 379 205 379 219 379 233 c 0
 379 380 412 491 445 491 c 0
 469 491 494 430 507 278 c 0
 512 225 524 201 539 201 c 0xc7f0
 562 201 592 249 620 331 c 0
 626 350 636 377 636 407 c 0
 636 450 617 500 546 550 c 0
 500 582 445 592 396 592 c 0
 325 592 266 571 266 571 c 1
 183 525 117 465 89 344 c 0
 86 333 85 321 85 308 c 0
 85 211 162 69 405 69 c 0
 463 69 531 77 609 96 c 1
 617 123 654 143 686 143 c 0
 698 143 710 140 719 133 c 1
 722 140 729 141 734 140 c 1
 736 142 737 141 737 151 c 1
 738 150 l 1x8ff0
461 488 m 1
 500 458 531 425 558 391 c 1
 535 406 509 419 488 426 c 1
 483 449 475 468 461 488 c 1
668 134 m 0x97f0
 666 134 663 134 661 133 c 0
 654 129 650 122 652 117 c 0
 655 112 663 110 670 113 c 0
 677 117 681 124 679 129 c 0
 677 133 673 135 668 134 c 0x97f0
688 116 m 0
 685 116 682 115 679 114 c 0
 672 110 668 103 671 98 c 0
 673 93 681 93 688 97 c 0
 695 101 699 108 696 113 c 0
 695 115 692 117 688 116 c 0
EndSplineSet
Validated: 1
EndChar

StartChar: A
Encoding: 34 65 34
Width: 578
GlyphClass: 1
Flags: W
HStem: 172.077 20.9234<438.366 449.931> 183.042 48.9581<136.752 343.151> 201.62 25.3799<277.427 400.125> 579.027 118.976<244.129 322.103>
VStem: 94.6474 41.5844<131.229 181.118> 558 9.14507<49.8666 62.8178>
LayerCount: 2
Fore
SplineSet
561 1 m 1x1c
 464 69 486 125 478 151 c 0
 477 157 474 167 471 180 c 0
 473 182 475 184 477 186 c 2
 492 175 l 2
 493 174 493 175 494 175 c 1
 494 176 l 1
 495 176 494 177 494 177 c 1
 493 178 l 1
 495 178 l 2
 496 178 496 179 496 179 c 1
 496 180 l 2
 496 181 496 181 495 181 c 2
 489 181 l 1
 477 189 l 1
 473 199 469 206 463 211 c 1
 430.196535828 331.27936863 359.844351782 579.026759993 283.375105586 579.026759993 c 0
 282.916954381 579.026759993 282.458583599 579.017866893 282 579 c 0
 205 576 143 341 107 211 c 1
 94.3907194297 200.492266191 89.6329922668 189.003088207 89.6329922668 176.876224518 c 0
 89.6329922668 171.691747946 90.5025779362 166.39071943 92 161 c 1
 90 152 87 145 85 140 c 0
 57 66 42 13 8 0 c 1
 15 13 17 2 30 71 c 0
 73 302 158 698 284 698 c 0
 284.188445545 698.001507564 284.376950182 698.002260576 284.565513191 698.002260576 c 0
 397.597145031 698.002260576 531.603267916 427.426762704 531.603267916 218.377082524 c 0
 531.603267916 196.446470814 530.128488326 175.192970106 527 155 c 1
 536.007837296 136.984325408 567.145074433 119.63923869 567.145074433 52.9929463915 c 0
 567.145074433 38.2535307569 565.622114007 21.1027327401 562 1 c 1
 568 -2 571 -5 576 -7 c 0
 581 -9 587 -8 599 -4 c 1
 599 -5 l 1
 594 -7 591 -8 587 -9 c 1
 596 -16 l 1
 596 -17 l 1
 586 -9 l 2
 582 -9 578 -9 576 -8 c 0
 571 -6 567 -3 562 0 c 2
 561 1 l 1x1c
188 232 m 1x5c
 214 232 249 230 311 227 c 0
 421 222 456 231 472 186 c 1
 463.198182602 175.822898633 454.850302642 172.076577646 446.248828188 172.076577646 c 0
 423.578672014 172.076577646 399.14693314 198.100227175 360 201 c 0
 354.627053911 201.426424293 349.741432798 201.620096358 345.224035216 201.620096358 c 0xbc
 300.449720725 201.620096358 291.849095098 182.59406338 203.453957321 182.59406338 c 0
 196.19541544 182.59406338 188.398832964 182.722352629 180 183 c 0
 178.752226425 183.028039856 177.535902191 183.041927508 176.350445836 183.041927508 c 0
 146.514739211 183.041927508 136.231804045 174.245013207 136.231804045 160.868740452 c 0
 136.231804045 136.867817298 169.337502791 98.1237435818 182 69 c 1
 145.536976964 97.8665599032 94.6473908982 139.428495273 94.6473908982 176.589632857 c 0
 94.6473908982 188.347494728 99.7419619753 199.664791469 112 210 c 0
 137 232 155 232 177 232 c 0
 180 232 184 232 188 232 c 1x5c
444 204 m 4
 441 204 438 201 438 198 c 4
 438 195 441 193 444 193 c 4
 447 193 450 195 450 198 c 4
 450 201 447 204 444 204 c 4
551 64 m 0
 547 64 544 61 544 57 c 0
 544 53 547 49 551 49 c 0
 555 49 558 53 558 57 c 0
 558 61 555 64 551 64 c 0
EndSplineSet
Validated: 1
EndChar

StartChar: B
Encoding: 35 66 35
Width: 662
GlyphClass: 1
Flags: W
HStem: -1 11<290.351 299.848> 2.56646 71.5858<253.02 511.57> 47.7736 56.2264<93.929 119.995> 100 2<31.8102 35> 108 1<21.0469 23.9531> 121 16.064<93.2562 119.819> 608.944 89.0559<284.934 447.893> 624.6 29.4885<147.595 189.359>
VStem: 194 120<106 205.633> 203.562 80.4381<481.367 603.986> 464.642 75.2646<527.371 625.604> 588.181 83.2313<136.404 273.548>
LayerCount: 2
Fore
SplineSet
361 698 m 0x0e70
 453.152344261 698 539.906052442 659.794267746 539.906052442 591.143648933 c 0
 539.906052442 553.263733238 513.493088274 506.114591885 447 451 c 1
 594.63746182 396.304227237 671.412130555 284.106426672 671.412130555 185.627312025 c 0
 671.412130555 87.2519930712 594.799215517 2.56645664518 435.680183214 2.56645664518 c 0x4e70
 366.758940344 2.56645664518 282.358512393 18.4545281649 182 56 c 1
 163.155328489 50.3207839282 146.709677282 47.7736221414 132.318991967 47.7736221414 c 0x2c70
 90.9634135499 47.7736221414 66.5789301133 68.8095550331 51 97 c 1
 51 97 44 100 36 100 c 1
 32 100 27 98 23 97 c 1
 23 98 23 98 22 99 c 1
 23 100 24 100 26 100 c 1
 30 100 34 102 35 102 c 1
 33 104 19 108 21 108 c 1
 22 108 23 109 24 109 c 1
 29 106 40 103 50 102 c 1
 71.0125852074 117.008989434 87.3395593272 137.064021577 113.695345549 137.064021577 c 0
 131.23956062 137.064021577 153.227687456 128.177346627 184 103 c 1
 265.298102461 82.9055633539 333.090384488 74.1522511847 388.470440401 74.1522511847 c 0
 527.361066296 74.1522511847 588.180867186 129.209119821 588.180867186 198.501126764 c 0
 588.180867186 281.699024235 500.500286787 385.418942009 355 439 c 1
 422.279834721 470.744710749 464.641500737 517.754605929 464.641500737 554.28989073 c 0
 464.641500737 585.419040633 433.88884976 608.944097793 361.594133903 608.944097793 c 0
 339.655484831 608.944097793 313.891278278 606.777704315 284 602 c 1x5e70
 314 85 l 1
 266 85 194 106 194 106 c 1x5eb0
 193.803042588 114.469168727 193.713151709 123.244020164 193.713151709 132.279078559 c 0
 193.713151709 226.851234659 203.561882802 349.932494017 203.561882802 449.370145363 c 0
 203.561882802 548.806303789 193.713447437 624.599564152 154.320001699 624.599564152 c 0
 141.328706435 624.599564152 125.124186347 616.35652133 105 598 c 1
 138.046619797 637.055096124 163.511864163 654.088101709 182.914150258 654.088101709 c 0x0d70
 195.803388735 654.088101709 206.016952654 646.571180489 214 633 c 1
 215 638 215 641 215 648 c 1
 250 667 304 698 361 698 c 0x0e70
100 120 m 4
 96 119 93 117 93 113 c 4
 92 109 98 104 106 104 c 4x2c30
 113 103 120 106 120 111 c 4
 121 116 115 120 107 121 c 4
 105 121 103 121 100 120 c 4
189 47 m 1
 314 10 l 1
 314 10 286 0 253 -1 c 0
 223 -1 194 10 194 10 c 1x8cb0
 189 47 l 1
EndSplineSet
Validated: 1
EndChar

StartChar: C
Encoding: 36 67 36
Width: 706
GlyphClass: 1
Flags: W
HStem: 13.5135 53.4856<379.74 495.986> 58 1<656 658.804> 85 18.1469<581.305 607.717> 616.145 82.2401<318.63 483.746>
VStem: 68.8908 111.917<262.971 478.002>
LayerCount: 2
Fore
SplineSet
537 0 m 0x78
 519 0 503 4 492 14 c 1
 483.150028342 13.674011958 474.453409428 13.513475783 465.908814454 13.513475783 c 0
 185.590777271 13.513475783 68.890751273 186.292905234 68.890751273 358.286290463 c 0
 68.890751273 528.721826613 183.486304633 698.385493419 367.02280803 698.385493419 c 0
 460.22878349 698.385493419 571.214272263 654.630114051 694 545 c 1
 589.749674375 595.164341641 502.106833701 616.145434003 430.417050565 616.145434003 c 0
 261.138977962 616.145434003 180.807803878 499.164529951 180.807803878 373.186468087 c 0
 180.807803878 226.215533816 290.142292791 66.9990465313 495.130788679 66.9990465313 c 0xb8
 495.420334954 66.9990465313 495.710072074 66.9993641931 496 67 c 1
 523.832871614 90.4382076751 555.003804907 103.146931385 583.225803041 103.146931385 c 0
 612.800711959 103.146931385 639.13717579 89.1905363993 655 59 c 1
 662 59 665 63 668 69 c 0
 669 71 673 70 675 69 c 2
 680 78 l 1
 680 77 l 1
 676 69 l 2
 677 68 679 67 682 65 c 1
 681 64 l 1
 675 69 670 70 668 68 c 1
 668 65 663 58 656 58 c 1
 626 23 577 0 537 0 c 0x78
594 60 m 4
 602 60 609 66 609 72 c 4
 609 79 602 85 594 85 c 4
 586 85 580 79 580 72 c 4
 580 66 586 60 594 60 c 4
EndSplineSet
Validated: 1
EndChar

StartChar: D
Encoding: 37 68 37
Width: 735
GlyphClass: 1
Flags: W
HStem: 1 77<233.451 481.088> 1 56<115.256 150.134> 80 23<115.264 150.926> 643 41<90.7535 362.935>
VStem: 163 127<214.676 511.078> 213 12<-67.9127 -40.4492> 237 12<-67.191 -42.9033> 267 35<-67.6725 -42.1258> 641 94<321.064 487.344>
LayerCount: 2
Fore
SplineSet
253 -141 m 1x3780
 260 -151 246 -161 243 -162 c 1
 241 -164 243 -170 249 -176 c 1
 248 -176 l 2
 246 -174 244 -172 243 -170 c 1
 236 -177 l 1
 235 -177 l 1
 243 -169 l 17
 242 -168 240 -162 242 -161 c 0
 249 -156 256 -152 251 -141 c 1
 250 -139 l 1
 234 -126 213 -108 213 -59 c 0
 213 -39 216 -14 225 18 c 1
 255 9 274 1 293 0 c 1
 298 -17 302 -33 302 -49 c 0
 302 -94 281 -129 254 -139 c 1
 253 -141 l 1x3780
258 -68 m 0
 263 -68 267 -62 267 -55 c 0
 267 -48 263 -42 258 -42 c 0
 253 -42 249 -48 249 -55 c 0
 249 -62 253 -68 258 -68 c 0
231 -68 m 0
 234 -68 237 -61 237 -54 c 0
 237 -46 234 -40 231 -40 c 0
 228 -40 225 -46 225 -54 c 0
 225 -61 228 -68 231 -68 c 0
143 1 m 1x7080
 112 1 83 18 80 40 c 1
 71 36 63 48 63 51 c 0
 62 53 56 52 50 46 c 1
 50 48 l 2
 52 50 54 51 56 52 c 1
 51 62 l 1
 51 63 l 1
 57 52 l 2
 59 53 63 54 64 52 c 0
 67 45 71 40 80 41 c 0
 80 43 80 45 80 46 c 0
 84 85 117 103 149 103 c 0
 169 103 189 96 201 83 c 1
 219 79 237 78 256 78 c 0
 442 78 641 253 641 408 c 0
 641 526 525 634 201 643 c 0
 119 647 116 660 63 669 c 1
 135 680 160 684 198 684 c 0
 205 684 213 684 221 684 c 1
 273 693 321 698 365 698 c 0
 625 698 735 545 735 383 c 0
 735 198 593 1 367 1 c 0xb080
 317 1 262 11 204 33 c 1
 191 11 168 1 146 1 c 0
 145 1 144 1 143 1 c 1x7080
133 57 m 0x7080
 143 57 151 62 151 68 c 0
 151 75 143 80 133 80 c 0
 123 80 115 75 115 68 c 0
 115 62 123 57 133 57 c 0x7080
279 83 m 1
 275 83 255 83 241 83 c 0
 234 83 228 83 226 83 c 1
 178 211 163 305 163 387 c 0x3880
 163 476 180 550 194 638 c 1
 207 635 237 637 249 634 c 1x3280
 281 451 290 348 290 282 c 0x3880
 290 201 277 175 277 123 c 0
 277 111 277 98 279 83 c 1
183 690 m 1
 178 705 168 717 162 732 c 1
 187 725 217 705 229 690 c 1
 228 690 225 689 222 689 c 0
 213 689 199 691 190 691 c 0
 187 691 184 690 183 690 c 1
EndSplineSet
Validated: 1
EndChar

StartChar: E
Encoding: 38 69 38
Width: 473
GlyphClass: 1
Flags: W
HStem: 3 27.3039<187.943 304.791> 55 4<444 459.139> 65 17.7012<386.695 414.6> 310 42<323.189 360.484> 327 39.9189<126.034 290.562> 366 17.0478<323.118 352.933> 617.584 81.3782<139.132 275.009>
VStem: 79 77<429.9 607.006> 85 81<234.312 313 359.571 476.5> 415 27.0479<45.9451 55>
LayerCount: 2
Fore
SplineSet
441 60 m 1xe240
 444 59 l 1
 454 57 461 59 464 66 c 0
 465 68 469 67 471 66 c 2
 476 75 l 1
 476 74 l 1
 472 66 l 2
 473 65 475 64 477 62 c 2
 477 61 l 1
 471 66 466 67 465 65 c 0
 465 62 460 55 453 55 c 0
 451 55 448 55 446 55 c 1
 442 55 l 1
 442.032055938 54.3428532756 442.047927441 53.6926427375 442.047927441 53.0493148579 c 0
 442.047927441 13.5548134122 382.230657493 -1.7763568394e-15 335 0 c 0
 324 0 313 1 305 3 c 2
 88 3 l 1
 86 114 85 213 84 313 c 1
 168 314 l 1
 150 59 l 1
 150 59 205.670339761 30.3039485767 255.705818516 30.3039485767 c 0
 271.717171717 30.3039485767 287.151515152 33.2424242424 300 41 c 0
 333.544110415 61.6425294862 378.739776163 82.7011859486 409.011952738 82.7011859486 c 0
 425.667632124 82.7011859486 437.805711418 76.3263638636 441 60 c 1xe240
400 45 m 4
 409 45 415 50 415 55 c 4
 415 61 409 65 400 65 c 4
 392 65 386 61 386 55 c 4
 386 50 392 45 400 45 c 4
379 344 m 1
 377 345 l 1
 367 325 352 310 332 310 c 1xf640
 320 310 307 315 291 327 c 1
 53 318 l 1
 52.8992101679 318.235176275 52.8494954701 318.479664591 52.8494954701 318.733014629 c 0
 52.8494954701 331.526813974 179.626919951 366.91888676 257.989880841 366.91888676 c 0xea40
 270.452760022 366.91888676 281.691050581 366.023684656 291 364 c 1
 308.276208003 377.750451268 322.071747051 383.047849357 333.394673629 383.047849357 c 0xe640
 354.186630261 383.047849357 366.641210777 365.185608162 377 349 c 1
 377 347 l 1
 384 346 390 348 393 355 c 0
 393 357 397 356 398 355 c 1
 402 364 l 1
 403 363 l 1
 399 355 l 2
 400 354 402 353 404 351 c 2
 404 350 l 1
 399 355 394 355 393 353 c 0
 392 350 390 344 379 344 c 1
338 352 m 0
 346 352 353 355 353 359 c 0
 353 363 346 366 338 366 c 0
 330 366 323 363 323 359 c 0
 323 355 330 352 338 352 c 0
166 360 m 1xe2c0
 131 357 127 353 85 342 c 1xe2c0
 84 431 82 557 79 656 c 1
 87.9855853457 686.807721185 118.919470898 698.962682735 159.736734692 698.962682735 c 0
 275.359241064 698.962682735 470.287081481 601.429909779 470.287081481 554.057966945 c 0
 470.287081481 553.01374436 470.192366725 551.993894747 470 551 c 1
 434.710645168 582.137666028 324.250911781 617.584462037 241.323608647 617.584462037 c 0
 204.404785946 617.584462037 172.942852632 610.558956364 156 593 c 1xe340
 166 360 l 1xe2c0
EndSplineSet
Validated: 1
EndChar

StartChar: F
Encoding: 39 70 39
Width: 471
GlyphClass: 1
Flags: W
HStem: 321.379 43.6209<307.617 344.694> 341.849 33.1514<76.3695 272.934> 363 21G<401 406> 387 16<319.613 344.229> 625.567 74.2737<175.425 342.895>
VStem: 109 65.7347<410.123 598.124> 112.103 24.8967<51.4762 85.7161> 119.941 95.6805<216.473 329.526> 156 59.6211<52.6729 86.0403 125.54 132 132.013 142> 167 5.18782<-14.2355 2.54624>
LayerCount: 2
Fore
SplineSet
156 142 m 1x1a80
 156 142 134 259 120 329 c 0
 119.960177981 329.219021104 119.940574825 329.431699036 119.940574825 329.638175881 c 0x19
 119.940574825 334.261937746 129.77104288 335.776017532 142.517702385 335.776017532 c 0
 157.78951915 335.776017532 177.247388426 333.602628851 189 332 c 0
 212.170212766 328.489361702 215.621095518 231.31190584 215.621095518 173.730445084 c 0x1880
 215.621095518 149.301946582 215 132 215 132 c 1
 215.451889456 122.20906178 215.722264174 112.985357118 215.722264174 104.29812679 c 0
 215.722264174 55.3126439758 207.125437068 23.3848843497 174 3 c 1
 172.907376292 -1.09733890676 172.187823386 -3.92623708469 172.187823386 -6.50575954343 c 0
 172.187823386 -13.3696435887 177.282586324 -18.4678337406 194 -41 c 1
 156 1 180 -37 177 -36 c 0
 165 -26 168 -15 167 2 c 1x1840
 143.406558088 6.96704040258 112.103275438 39.6895074612 112.103275438 76.2329696495 c 0
 112.103275438 98.5470310188 123.774804277 122.285762617 156 142 c 1x1a80
157 69 m 0
 157 79 151 87 146 86 c 0
 140 86 136 77 137 68 c 0x1a
 137 58 143 51 148 51 c 0
 154 51 158 60 157 69 c 0
401 371 m 1
 397 372 l 17
 395 378 392 382 386 380 c 1
 364.854717709 339.75575306 341.383093259 321.379122424 313.998314981 321.379122424 c 0x98
 301.235692296 321.379122424 287.623129504 325.370541128 273 333 c 1
 273 333 182.377959184 341.84861678 124.171787064 341.84861678 c 0
 96.6358960022 341.84861678 76.354678176 339.868295848 76.354678176 334.033972911 c 0
 76.354678176 329.874505536 86.6630136986 323.756164384 112 315 c 1
 99.9215686275 315 89.6516724337 313.945021146 81.0248245396 313.945021146 c 0
 58.2252979623 313.945021146 46.9019607843 321.31372549 44 375 c 1x58
 265 374 l 1
 290 395 309 402 323 403 c 0
 348 403 363 385 386 382 c 0
 392 384 400 376 398 373 c 0
 398 372 402 372 406 377 c 1
 407 376 l 1
 405 374 404 373 402 372 c 1
 403 371 l 1
 406 364 l 1
 406 363 l 1x38
 401 371 l 1
332 387 m 4
 325 387 319 382 319 376 c 4
 319 370 325 365 332 365 c 4
 339 365 345 370 345 376 c 4
 345 382 339 387 332 387 c 4
109 641 m 0x1c
 108.950687171 642.052007025 108.926232283 643.087464606 108.926232283 644.106559834 c 0
 108.926232283 685.416055158 149.108636612 699.840182604 202.628161728 699.840182604 c 0
 308.433784096 699.840182604 466.365487413 643.465703666 469 627 c 0
 470.992545193 617.321923347 471.769711913 599.78439923 471.769711913 580.753029972 c 0
 471.769711913 543.078380883 468.724114079 499.549580542 466.032469427 499.549580542 c 0
 465.307095013 499.549580542 464.607426619 502.710880567 464 510 c 0
 457.429037357 574.979519472 351.176570258 625.566522257 271.728706041 625.566522257 c 0
 242.359823492 625.566522257 216.653796299 618.653796299 201 603 c 0
 181.02739726 583.397260274 174.734659411 548.062675924 174.734659411 511.315130187 c 0
 174.734659411 448.708200413 193 382 193 382 c 1
 117 382 l 1
 117 382 117.373702422 388.975778547 117.373702422 406.928149807 c 0
 117.373702422 439.84083045 116.117647059 509.647058824 109 641 c 0x1c
EndSplineSet
Validated: 1
EndChar

StartChar: G
Encoding: 40 71 40
Width: 592
GlyphClass: 1
Flags: W
HStem: -5.79565 111.621<248.855 430.724> 247.778 78.2518<238.972 272 272.002 336.24> 274 4<221.043 227> 275.653 50.9156<307.266 477.287> 412 21G<539.879 555.924> 612.156 75.9532<245.064 397.445>
VStem: 39.8948 92.2964<232.443 463.63> 518.919 71.0811<156.072 309.849>
LayerCount: 2
Fore
SplineSet
590 300 m 0x9f
 588 191 590 201 562 123 c 1
 518.58202542 45.0568890075 417.425564993 -5.79565279592 314.213795507 -5.79565279592 c 0
 220.120717167 -5.79565279592 124.319457214 36.4682474053 69 139 c 1
 48.8832329599 202.814115313 39.8947965291 264.001447643 39.8947965291 320.859539743 c 0
 39.8947965291 535.264183338 167.705716312 688.109268718 308.586719652 688.109268718 c 0
 410.778513586 688.109268718 519.847410667 607.686568039 592 412 c 1
 487.758789819 557.431445551 394.902262709 612.156090626 320.400209694 612.156090626 c 0
 203.827459227 612.156090626 132.191240633 478.175909825 132.191240633 348.055014807 c 0
 132.191240633 225.220475903 196.029284249 105.825108677 346.166239701 105.825108677 c 0
 377.058580587 105.825108677 411.604611898 110.880024211 450 122 c 1
 498.401199482 148.245720846 518.918930073 176.001796257 518.918930073 200.595338494 c 0
 518.918930073 242.775506995 458.56524766 275.652964266 375.018075745 275.652964266 c 0x9f
 364.363559191 275.652964266 353.331844026 275.118274081 342 274 c 1xaf
 321.666666667 254.333333333 302.111111111 247.777777778 285.074074074 247.777777778 c 0xcf
 251 247.777777778 227 274 227 274 c 1
 207 273 l 1
 207 273 222 275 221 276 c 2
 210 284 l 1
 213 282 228 274 229 278 c 0xaf
 230 283 237 323 272 324 c 2
 272 324 274.609467456 326.029585799 286.229403732 326.029585799 c 0xcf
 296.189349112 326.029585799 312.769230769 324.538461538 340 319 c 1
 372.652550831 323.434297026 419.605458113 326.568561648 464.023090422 326.568561648 c 0
 529.79066954 326.568561648 590 319.697108921 590 300 c 0x9f
264 307 m 4
 261 305 260 302 260 299 c 4
 261 294 267 292 273 293 c 4
 280 294 284 299 284 303 c 4
 283 308 277 311 271 310 c 4
 268 309 266 308 264 307 c 4
EndSplineSet
Validated: 1
EndChar

StartChar: H
Encoding: 41 72 41
Width: 554
GlyphClass: 1
Flags: W
HStem: 0.931341 40.0687<61.7507 92.4915 478.001 503.947> 5 72.7308<431.521 515.76> 16 1<547 548.105> 56 14.4643<61.0418 92.9473> 289.725 30.2746<424.959 453.995> 296.895 9.15911<180.456 369.036> 332 15.938<425.004 453.885> 380 20G<153 156> 682 15.1305G<146.156 159.863 427.615 438.275>
VStem: 113.858 29.4438<276.92 342.564> 150 7<387 399.766> 173 67<163.233 255.954 311.953 344.982> 182.385 59.8928<313.993 489.187> 306 66<266.811 285.82 333.246 342.51>
LayerCount: 2
Fore
SplineSet
473 5 m 0x43e4
 418 7 399 37 384 51 c 0
 334.239115734 97.9442304399 305.634334875 173.096598756 305.634334875 266.525535013 c 0
 305.634334875 272.607162015 305.755538435 278.766230097 306 285 c 1
 323 287 359 294 372 294 c 1
 387 208 393 184 431 75 c 1
 442.13675381 76.8784885945 451.851217658 77.7307679758 460.392207831 77.7307679758 c 0x43e4
 515.505510144 77.7307679758 521.756977189 42.2430228111 546 18 c 1
 547 17 l 1
 559 15 564 19 568 25 c 0
 569 27 574 26 577 25 c 2
 583 33 l 1
 584 32 l 1
 584 32 576 25 578 25 c 0
 580 24 582 23 585 21 c 2
 585 21 592 15 585 20 c 0
 578 25 570 26 569 24 c 1
 569 21 560 11 547 16 c 0
 546 16 l 1x23e4
 520.518289963 8.09188309204 498.89696962 4.81623381593 480.457629791 4.81623381593 c 0
 477.911688245 4.81623381593 475.426406871 4.87867965644 473 5 c 0x43e4
478 39 m 1
 478 39 479 40 480 40 c 0
 481 39 483 38 484 38 c 0
 494 35 503 36 504 41 c 0x83e4
 506 45 499 51 490 55 c 0
 481 58 472 57 470 52 c 0
 469 49 472 44 479 40 c 1
 478 40 478 39 478 39 c 1
84 1 m 0
 66 1 52 12 31 36 c 1
 24 33 17 42 17 44 c 0
 16 46 11 45 5 41 c 1
 5 42 l 2
 7 44 9 45 11 45 c 1
 7 53 l 1
 7 54 l 1
 11 46 l 2
 13 46 17 47 18 45 c 0
 20 39 24 35 32 37 c 1
 46.5496153821 57.0923260038 49.0985897343 70.4642930309 78.891410554 70.4642930309 c 0
 92.0996740093 70.4642930309 110.662655667 67.8360622734 138 62 c 1
 137.87355291 64.7818359886 137.812837827 67.5956497105 137.812837827 70.4370232771 c 0
 137.812837827 135.008198892 169.168596121 213.812408296 173 255 c 1x93f4
 200 259 217 264 238 266 c 1
 232 228 240 179 164 26 c 1
 126.791429009 10.7349452343 104.14672658 0.931341179584 86.5131553569 0.931341179584 c 0
 85.6641764745 0.931341179584 84.8268133886 0.954065922854 84 1 c 0
77 41 m 4
 86 41 93 44 93 48 c 4
 94 52 86 56 78 56 c 4
 69 57 61 53 61 49 c 4
 61 45 68 42 77 41 c 4
157 400 m 1
 153 386 l 0
 146 335 l 1
 144.184357991 330.625953341 143.301832013 326.830847286 143.301832013 323.560719111 c 0
 143.301832013 310.827619201 156.682144023 306.053908597 180.45619426 306.053908597 c 0x07e4
 224.558500589 306.053908597 304.428260764 322.48144121 401 335 c 1
 411.432816309 344.315014562 422.2821262 347.937950167 434.168672679 347.937950167 c 0
 454.183704024 347.937950167 477.139626793 337.665790098 506 327 c 0
 512 326 516 331 518 338 c 0
 519 340 523 338 525 338 c 2
 530 348 l 1
 530 347 l 1
 526 337 l 1
 527 337 529 335 531 333 c 2
 531 331 l 1
 525 337 520 339 519 336 c 0
 519 333 511 322 503 326 c 1
 488.595126837 320.068581639 467.728304408 289.725354941 427.014968594 289.725354941 c 0x0be4
 419.680209782 289.725354941 411.701307628 290.710182203 403 293 c 0
 392.59358059 295.729552632 381.161268096 296.894800208 369.035713856 296.894800208 c 0x07e4
 298.222493433 296.894800208 203.765858214 257.153350834 151.922159255 257.153350834 c 0
 128.565606867 257.153350834 113.858075963 265.219555128 113.858075963 288.619914382 c 0
 113.858075963 308.653697968 124.638123494 339.926820122 150 387 c 0
 152 391 155 395 157 400 c 1
439 320 m 0x0be4
 447 319 454 322 454 325 c 0
 455 329 448 332 440 332 c 0
 431 333 425 330 425 327 c 0
 424 323 431 320 439 320 c 0x0be4
240 315 m 1x03f4
 229.432085017 312.561250389 195.735004664 309.461667481 180.273337183 309.461667481 c 0
 176.715010882 309.461667481 174.122500777 309.625833074 173 310 c 1x03f4
 179.685549414 364.867612434 182.385078825 411.816331795 182.385078825 452.377694502 c 0
 182.385078825 587.759914831 152.311421013 651.984852135 140 702 c 1
 179.726425797 646.021854559 242.277897763 450.64789144 242.277897763 345.51150425 c 0x03ec
 242.277897763 334.201446949 241.554026983 323.935655152 240 315 c 1x03f4
307 326 m 1
 319.810946902 498.455054454 417.109890056 697.130521538 438.120200559 697.130521538 c 0
 438.430252916 697.130521538 438.723691626 697.087255276 439 697 c 1
 418.246336448 626.832851801 376.98245619 583.035982224 376.98245619 342.64351004 c 0
 376.98245619 339.790161878 376.988269693 336.909116149 377 334 c 1
 362 332 323 330 307 326 c 1
EndSplineSet
Validated: 1
EndChar

StartChar: I
Encoding: 42 73 42
Width: 209
GlyphClass: 1
Flags: W
HStem: -33 21G<124 133 133 134> 678 20G<99.2898 125.021>
VStem: 47.3668 70.0061<197.314 544.633> 48.0284 33.9716<56.5695 80.4778> 107 28<57.0455 80.7568> 165 23.9476<57.9938 85.657>
LayerCount: 2
Fore
SplineSet
133 -33 m 1xe4
 133 -33 125 -26 123 -27 c 0
 121 -28 119 -30 115 -31 c 2
 115 -31 104 -35 113 -31 c 0
 123 -27 127 -22 125 -20 c 0
 121 -19 110 -8 121 -1 c 1
 68.5966302291 5.33447326901 48.0284088317 37.2033884626 48.0284088317 69.0174538045 c 0xd4
 48.0284088317 92.4494529574 59.1861706635 115.851697394 77 129 c 1
 57.9150360943 204.147045379 47.3668498593 282.139683314 47.3668498593 359.709374889 c 0
 47.3668498593 477.232805523 71.5795141525 593.785390743 127 698 c 1
 123.042851088 624.298101518 117.372996042 550.106858426 117.372996042 462.234481075 c 0
 117.372996042 372.459002741 123.291100945 268.403373138 143 136 c 1
 176.306134187 113.795910542 188.947570395 90.5659140915 188.947570395 69.5080940128 c 0
 188.947570395 35.560120368 156.092885313 7.25756307112 124 -2 c 0
 123 -1 123 -1 122 -1 c 0
 114 -10 119 -15 127 -20 c 0
 129 -21 126 -24 124 -26 c 1
 134 -33 l 1
 133 -33 l 1xe4
150 57 m 4
 158 57 165 64 165 72 c 4
 165 80 158 86 150 86 c 4
 141 86 135 80 135 72 c 4xcc
 135 64 141 57 150 57 c 4
94 56 m 4
 101 56 107 62 107 68 c 4
 107 75 101 81 94 81 c 4
 87 81 82 75 82 68 c 4xdc
 82 62 87 56 94 56 c 4
EndSplineSet
Validated: 1
EndChar

StartChar: J
Encoding: 43 74 43
Width: 316
GlyphClass: 1
Flags: W
HStem: 0.136424 100.032<91.841 185.514> 680 20G<222.322 254.256>
VStem: 19.8131 73.821<178.672 283.335> 233.01 88.6267<161.576 434.094>
LayerCount: 2
Fore
SplineSet
37 314 m 2
 37 314 42 318 38 314 c 0
 35 309 34 305 35 305 c 0
 37 305 45 299 42 293 c 1
 44 293 47 294 49 294 c 0
 69.8335111144 293.348952778 93.6340596286 266.842293928 93.6340596286 232.968974546 c 0
 93.6340596286 214.813319346 86.7965916615 194.54135555 69 175 c 1
 78.1697127167 123.474947592 106.596674327 100.168438117 136.630866304 100.168438117 c 0
 175.379421509 100.168438117 216.803182852 138.961705395 223 206 c 0
 228.137113327 266.104225929 233.010327321 296.123927853 233.010327321 361.809623725 c 0
 233.010327321 423.988920676 228.643505349 518.128038439 216 700 c 1
 292.511235101 508.950987802 321.636994797 363.345853456 321.636994797 255.755693534 c 0
 321.636994797 73.257417205 237.835900493 0.136423731942 159.349089834 0.136423731942 c 0
 90.2232039425 0.136423731942 25.2195534417 56.8556294116 25.2195534417 145.524643445 c 0
 25.2195534417 155.923633381 26.1136332847 166.762070632 28 178 c 1
 22.2445416698 203.391727927 19.8130754404 223.969398329 19.8130754404 240.315093296 c 0
 19.8130754404 272.24996931 29.0940147026 288.031338234 41 292 c 1
 42 299 39 302 35 304 c 0
 33 305 34 307 35 309 c 9
 28 313 l 1
 29 313 l 1
 29 313 32 312 35 310 c 1
 35 311 36 314 37 314 c 2
63 254 m 5
 58 246 58 251 57 240 c 4
 60 232 56 236 63 226 c 5
 70 231 71 229 73 240 c 4
 72 251 70 247 63 254 c 5
EndSplineSet
Validated: 1
EndChar

StartChar: K
Encoding: 44 75 44
Width: 501
GlyphClass: 1
Flags: W
HStem: -32 21G<102 110> -4.01603 51.016<66.9681 85.9963 94.0037 98 409.362 437.134> 641.98 56.7112<345.966 398.134>
VStem: 46.3738 16.6262<46.9065 94.2767> 86 8<52.4404 71.356> 119 21.4166<48.523 79.6179>
LayerCount: 2
Fore
SplineSet
102 -23 m 1
 94 -29 l 1
 94 -29 93 -29 92 -28 c 1
 101 -21 102 -22 103 -19 c 1
 100 -19 90 -7 98 0 c 1
 62.2419446549 5.95967589085 46.3738218752 44.2404922006 46.3738218752 81.6095996466 c 0
 46.3738218752 106.943746757 53.6669304398 131.858865618 67 146 c 1
 57.7919067444 203.44096269 52.4291187679 268.764801202 52.4291187679 345.175090119 c 0
 52.4291187679 443.026292992 61.2237833551 559.058638436 82 700 c 1
 128 518 140 478 165 377 c 1
 225.53298272 565.324835128 290.926198677 698.691648264 355.007527286 698.691648264 c 0
 395.729419124 698.691648264 435.92153845 644.834835204 474 517 c 1
 423.771715291 601.338537758 393.775932487 641.980491539 371.214804395 641.980491539 c 0
 333.586913852 641.980491539 316.639422843 528.929936445 261 317 c 1
 389 102 l 1
 393.098449143 102.604689218 397.115642942 102.893385429 401.043695656 102.893385429 c 0
 454.912909372 102.893385429 492.017083801 48.5973970395 492.017083801 10.4101188242 c 0
 492.017083801 9.93756802296 492.011402047 9.46748394462 492 9 c 1
 499 3 505 5 512 8 c 0
 514 9 517 6 518 5 c 2
 528 9 l 1
 528 8 l 1
 519 4 l 1
 520 3 521 1 522 -2 c 2
 521 -3 l 1
 518 4 514 8 512 7 c 1
 510 5 498 1 492 8 c 1
 461.564177028 2.79387238638 433.85476826 -4.01602828815 409.835171451 -4.01602828815 c 0
 373.876453917 -4.01602828815 346.187273418 11.2461927796 330 70 c 1
 163 253 193 259 167 321 c 1
 136 232 121 201 111 137 c 1
 132.319516037 114.51760127 140.416580756 91.4341820263 140.416580756 70.6618937441 c 0
 140.416580756 37.8459179423 120.208290378 10.7979589711 100 1 c 1
 94 -8 98 -12 104 -18 c 0
 105 -19 105 -21 104 -22 c 1
 103 -23 108 -28 110 -31 c 1
 109 -32 l 1
 102 -23 l 1
428 47 m 4
 431 47 434 48 436 50 c 4
 441 54 440 64 432 71 c 4
 425 78 414 79 409 75 c 4
 403 70 405 60 412 53 c 4
 417 49 423 47 428 47 c 4
74 46 m 0
 81 46 86 53 86 61 c 0
 86 69 81 75 74 75 c 0
 68 75 63 69 63 61 c 0
 63 53 68 46 74 46 c 0
106 48 m 0
 113 48 119 56 119 64 c 0
 119 73 113 80 106 80 c 0
 99 80 94 73 94 64 c 0
 94 56 99 48 106 48 c 0
EndSplineSet
Validated: 1
EndChar

StartChar: L
Encoding: 45 76 45
Width: 440
GlyphClass: 1
Flags: W
HStem: 2 51<144 388> 676.187 20G<78.7774 94.5937>
VStem: 60.0064 102.621<58.2747 444.799> 60.0064 83.9936<55 242.037> 361.121 75.1197<59.8699 107.071> 411 25.2408<61.1662 128.866>
LayerCount: 2
Fore
SplineSet
436 56 m 0xd8
 436 54 435 51 435 48 c 0
 431.757774721 7.14796148548 414.219195769 0.354883191203 393.017957096 0.354883191203 c 0
 382.453716069 0.354883191203 370.980083931 2.0415168088 359.912634904 2.0415168088 c 0
 358.938309399 2.0415168088 357.967131897 2.02844505579 357 2 c 2
 59 2 l 1
 59.7910810293 38.2315111412 60.0064175993 80.6460171279 60.0064175993 126.336491688 c 0
 60.0064175993 180.934797465 59.6989319962 240.210957879 59.6989319962 299.204655729 c 0
 59.6989319962 499.321155959 63.2371072878 696.187415999 94.3176238199 696.187415999 c 0
 94.8696815685 696.187415999 95.4304287897 696.125305666 96 696 c 1
 94.8320981115 688.019337095 94.2956753069 679.828181163 94.2956753069 671.393207875 c 0
 94.2956753069 576.192510647 162.627035751 449.933529781 162.627035751 244.705771173 c 0xe8
 162.627035751 187.866988004 157.3857552 124.970993092 144 55 c 1
 388 53 l 1
 367.833886576 77.9884448949 361.121009988 96.826838665 361.121009988 114.401942489 c 0
 361.121009988 136.916605043 372.137512781 157.358082274 380 186 c 0
 380 192 378 195 375 198 c 0
 374 199 375 202 375 204 c 2
 370 209 l 1
 371 209 l 1
 376 205 l 1
 376 206 377 208 378 210 c 1
 379 209 l 1
 376 205 375 200 376 199 c 1
 377 198 382 192 381 186 c 0
 392.512729407 165.852723538 436.240756339 143.864572932 436.240756339 66.1687715321 c 0
 436.240756339 62.8803350621 436.162423531 59.4921059191 436 56 c 0xd8
411 115 m 4xc4
 411 119 410 124 408 129 c 4
 404 139 398 145 395 144 c 4
 391 142 391 133 395 123 c 4
 398 113 404 106 408 108 c 4
 410 109 411 111 411 115 c 4xc4
EndSplineSet
Validated: 1
EndChar

StartChar: M
Encoding: 46 77 46
Width: 561
GlyphClass: 1
Flags: W
HStem: 0.491172 67.4262<73.6253 142.922> 353.2 164.652<295.794 355.86>
VStem: 175.993 90.7549<145.929 451.592> 475 80<39.5503 131.451>
LayerCount: 2
Fore
SplineSet
460 704 m 1
 502 538 473 397 510 153 c 1
 545 133 555 106 555 80 c 0
 555 54 545 27 543 7 c 0
 542 7 542 7 541 7 c 1
 548 2 553 4 558 9 c 0
 560 10 563 8 565 7 c 2
 572 13 l 1
 572 12 l 1
 565 6 l 1
 566 5 568 3 569 1 c 2
 568 0 l 1
 565 6 560 9 559 8 c 0
 558 5 546 -1 540 7 c 1
 495 15 475 74 475 120 c 0
 475 121 475 122 475 123 c 1
 409.021061915 213.943941684 397.452960751 279.0957334 397.452960751 343.026944183 c 0
 397.452960751 377.551476793 400.82654713 411.720053387 400.82654713 449.402375988 c 0
 400.82654713 459.333892276 400.592206482 469.509485171 400 480 c 1
 372.688058802 389.870594046 349.727446707 353.200374219 326.685122051 353.200374219 c 0
 299.1071166 353.200374219 271.412063702 405.727862796 236 482 c 1
 257.440815709 423.190905483 266.747826767 360.170421724 266.747826767 299.741585109 c 0
 266.747826767 141.196406506 202.681792366 0.491171799413 125.60263539 0.491171799413 c 0
 88.1882381035 0.491171799413 47.707749287 33.6434860022 10 114 c 1
 18.2675261091 112.425233122 61.8734949754 67.9173581576 102.314584683 67.9173581576 c 0
 140.569761119 67.9173581576 175.992946663 107.743806564 175.992946663 261.41125478 c 0
 175.992946663 357.923317242 162.020030666 499.340734852 126 704 c 1
 206.17691015 576.688785095 260.144622936 517.852049791 307.637567158 517.852049791 c 0
 357.882684704 517.852049791 400.880876771 583.705436213 460 704 c 1
522 97 m 0
 521 97 520 96 519 96 c 0
 515 93 514 86 517 80 c 0
 521 73 527 70 532 72 c 0
 536 74 537 82 533 88 c 0
 531 93 526 96 522 97 c 0
EndSplineSet
Validated: 1
EndChar

StartChar: N
Encoding: 47 78 47
Width: 496
GlyphClass: 1
Flags: W
HStem: 676.821 20G<124.18 191.65> 702 2<501.094 506.767>
VStem: 35.6875 19.3125<125.028 410.387> 359.295 101.314<226.321 485.429> 410.899 89.6715<577.278 627.653>
LayerCount: 2
Fore
SplineSet
400 0 m 0xf0
 398.371262609 -0.308139506423 396.754757291 -0.459684252188 395.150212154 -0.459684252188 c 0
 298.849353627 -0.459684252188 245.63032721 545.420492793 176.712686284 545.420492793 c 0
 142.435735923 545.420492793 104.275450444 410.387196641 55 6 c 1
 41.6386342126 111.4542203 35.6874740395 207.186415965 35.6874740395 291.509195009 c 0
 35.6874740395 546.215617898 89.9864463584 696.821398358 158.372566898 696.821398358 c 0
 224.928070132 696.821398358 304.826622718 554.170783071 361 226 c 1
 359.981792219 251.658836072 359.295343506 276.032105759 359.295343506 299.677178505 c 0xf0
 359.295343506 392.143341582 369.793002475 473.473402296 412 577 c 1
 411.273804444 582.930597042 410.899182212 589.110225189 410.899182212 595.407682961 c 0
 410.899182212 641.141315592 430.656792598 693.089293334 479 701 c 1
 479 700 l 1
 490 695 495 698 501 704 c 0
 503 705 507 703 509 702 c 2
 517 709 l 1
 517 708 l 1
 510 701 l 1
 511 700 513 699 515 697 c 2
 515 696 l 1
 510 701 503 704 502 702 c 0
 501 700 488 692 479 699 c 1
 484.549627562 676.246526995 500.570699591 647.333380774 500.570699591 618.07182302 c 0xe8
 500.570699591 594.606314992 490.267867771 570.916750458 456 550 c 1
 459.201164541 490.458339533 460.609024559 436.01478764 460.609024559 386.542229643 c 0
 460.609024559 126.923784293 421.838486096 4.19970886469 400 0 c 0xf0
448 629 m 6
 453 630 458 636 459 644 c 4
 460 653 456 661 450 662 c 4
 445 663 439 656 438 647 c 4
 437 638 441 630 447 629 c 6
 448 629 l 6
EndSplineSet
Validated: 1
EndChar

StartChar: O
Encoding: 48 79 48
Width: 597
GlyphClass: 1
Flags: W
HStem: -3.34501 128.533<193.459 362.615> 612.681 58.3187<247.098 286.878> 687 15.115<247.414 286.945>
VStem: -0.0312229 89.9686<269.739 451.374> 496.553 83.7996<249.819 456.35>
LayerCount: 2
Fore
SplineSet
0 296 m 1
 -0.0208062770106 298.122240255 -0.0312229261082 300.237554092 -0.0312229261082 302.345941509 c 0
 -0.0312229261082 401.571753227 23.0403138505 485.456439391 72 554 c 1
 110 603 188 616 188 616 c 1
 161 585 129 580 109 516 c 1
 96.3282086243 481.906847013 89.9373846354 441.896840691 89.9373846354 400.364245125 c 0
 89.9373846354 304.239191346 124.170931847 199.958126567 194 142 c 1
 211.147824317 131.087748162 235.130439207 125.187676076 262.988203557 125.187676076 c 0
 306.611322655 125.187676076 359.736755515 139.655333837 411 172 c 0
 469.574985699 209.057644014 496.553194084 282.634176381 496.553194084 359.893470056 c 0
 496.553194084 476.52438454 435.072466296 601.547955876 328 622 c 1
 312.040862573 617.089496176 297.086435472 612.681347515 280.669901749 612.681347515 c 0
 256.968677345 612.681347515 230.219854926 621.86964125 193 652 c 1
 190 653 l 1
 188 652 184 650 181 647 c 0
 178 646 176 645 174 645 c 2
 169 637 l 1
 169 638 l 1
 173 646 l 1
 171 646 167 646 167 649 c 2
 167 649 178 642 184 652 c 0
 189 655 187 658 192 660 c 0
 214.995050111 691.937569599 240.891457313 702.114961024 264.901669748 702.114961024 c 0
 297.275394952 702.114961024 326.220022272 683.61248608 340 675 c 1
 506.776043125 618.052082835 580.352792794 471.957015408 580.352792794 329.529429832 c 0
 580.352792794 226.857561707 542.118302733 126.09151708 473 62 c 1
 431.813876172 31.4045937278 375.741882502 -3.34500877947 300.302953166 -3.34500877947 c 0
 247.525761082 -3.34500877947 185.269570837 13.6629177174 112 61 c 1
 10 148 13 209 0 296 c 1
267 687 m 4
 256 687 247 683 247 679 c 4
 247 675 256 671 267 671 c 4
 278 671 287 675 287 679 c 4
 287 683 278 687 267 687 c 4
EndSplineSet
Validated: 1
EndChar

StartChar: P
Encoding: 49 80 49
Width: 524
GlyphClass: 1
Flags: W
HStem: 331 62<65.5625 151.482> 337 44<113.656 161.926 163.991 347.961> 670 30<156.416 292.369> 698 21G<179 183.5>
VStem: 162 15<31.316 52.7954> 163 88<149.179 330> 178 38<609 662.646 703.619 772.938> 189 7<32.4737 51.5263> 189 1<-17 -13> 211 22<31.1948 52.9434> 447 74<451.428 559.516>
LayerCount: 2
Fore
SplineSet
196 777 m 5x1120
 201 758 214 723 214 704 c 1
 202 703 189 702 178 698 c 1x1220
 180 724 189 756 196 777 c 5x1120
237 700 m 1x60a0
 238 700 238 700 239 700 c 0
 408 700 521 582 521 485 c 0
 521 470 518 456 513 443 c 0
 498 406 467 367 382 346 c 1
 377 346 308 337 244 337 c 0x60a0
 214 337 184 339 163 345 c 1
 140 334 123 331 110 331 c 0
 79 331 69 351 56 353 c 1
 52 346 41 350 40 352 c 0
 39 353 35 350 33 344 c 1
 32 345 l 2
 33 347 34 349 35 350 c 1
 28 354 l 1
 28 355 l 1
 35 351 l 2
 37 352 39 354 40 354 c 0
 45 350 50 349 55 353 c 1
 66 381 90 393 113 393 c 0x8420
 127 393 141 389 152 382 c 1
 165 381 178 381 190 381 c 0
 401 381 444 461 447 496 c 0
 447 498 447 500 447 502 c 0
 447 580 330 670 213 670 c 0
 160 670 107 652 65 606 c 1
 100 677 177 699 237 700 c 1x60a0
216 664 m 1x0220
 241 389 l 1
 215 385 189 387 159 386 c 1
 178 662 l 1
 187 663 202 664 216 664 c 1x0220
97 376 m 0
 90 374 85 370 86 366 c 0
 87 362 94 361 101 363 c 0
 108 365 113 370 112 373 c 0
 111 377 105 378 97 376 c 0
190 -12 m 1x40e0
 193 -17 l 1
 192 -17 l 1
 190 -13 l 1
 190 -17 l 1
 189 -17 l 1
 189 -17 189 -17 189 -16 c 1
 190 -12 189 -12 190 -11 c 0
 194 -7 195 -3 192 0 c 1
 179 15 162 20 162 40 c 0x48e0
 162 52 163 76 184 95 c 1
 169 202 163 211 163 254 c 0
 163 273 164 297 166 337 c 1
 185 333 213 329 234 329 c 0
 239 329 243 330 247 330 c 1
 250 306 251 287 251 270 c 0x4420
 251 200 232 178 218 93 c 1
 228 74 233 59 233 46 c 0
 233 23 216 10 194 0 c 1
 197 -5 192 -12 190 -12 c 1x40e0
203 53 m 0
 199 53 196 48 196 42 c 0x0160
 196 36 199 31 203 31 c 0
 208 31 211 36 211 42 c 0
 211 48 208 53 203 53 c 0
183 53 m 0
 180 53 177 48 177 42 c 0x0920
 177 36 180 31 183 31 c 0
 187 31 189 36 189 42 c 0
 189 48 187 53 183 53 c 0
EndSplineSet
Validated: 33
EndChar

StartChar: Q
Encoding: 50 81 50
Width: 697
GlyphClass: 1
Flags: W
HStem: -77 1<479 484> -73 1<469.114 477.087> 594.549 27.451<312.245 350.991> 640 14<312.643 346.104> 673 28<309.179 346.794> 695 1.90199<120.257 289.553>
VStem: 3.85716 49.0954<316.376 493.211> 301.61 33.5486<90.376 127.909> 478 1<-80.907 -77> 584.057 118.179<262.383 443.028>
LayerCount: 2
Fore
SplineSet
338 701 m 1xfbc0
 359 701 431 648 457 633 c 1
 605.640802987 614.48602098 702.236920292 471.456530516 702.236920292 323.356729004 c 0
 702.236920292 191.479274013 625.643434979 55.5814421619 441 0 c 1
 414.896674657 28.8036693436 344.23199656 86.7747695813 344.23199656 111.924613229 c 0
 344.23199656 114.715480438 345.102178673 117.102178673 347 119 c 1
 351.850445895 118.843534003 356.407112494 118.760512831 360.71500863 118.760512831 c 0
 411.472062446 118.760512831 427.693979899 130.285785929 483 169 c 0
 554.469916536 219.028941575 584.05748141 289.857564551 584.05748141 360.515539944 c 0
 584.05748141 477.699050525 502.677075117 594.41319603 396 615 c 1
 380.704455118 600.384257113 364.138050668 594.548998515 347.950113037 594.548998515 c 0
 316.512601622 594.548998515 286.502475066 616.556633911 270 639 c 1
 263 640 260 636 257 631 c 0
 256 629 253 630 251 630 c 2
 246 622 l 1
 246 623 l 1
 250 631 l 1
 249 631 247 632 245 634 c 2
 245 635 l 1
 250 631 255 630 256 632 c 0
 256 634 263 642 270 640 c 1
 284 683 308 700 338 701 c 1xfbc0
290 695 m 1xf7c0
 120.256942444 664.913267576 52.9526074805 550.536405144 52.9526074805 431.736757781 c 0
 52.9526074805 285.982040743 154.263926955 133.569830136 292 122 c 1
 317 68 363 48 397 2 c 1
 112.668488432 19.4973237888 3.85716239549 193.852525362 3.85716239549 363.51764377 c 0
 3.85716239549 532.537044907 111.841828814 696.901994302 261.861055654 696.901994302 c 0
 271.086844964 696.901994302 280.471605941 696.280377952 290 695 c 1xf7c0
328 673 m 0xfbc0
 318 673 309 669 309 664 c 0
 309 658 318 654 328 654 c 0
 338 654 347 658 347 664 c 0
 347 669 338 673 328 673 c 0xfbc0
331 640 m 0
 321 640 312 636 312 631 c 0
 312 626 321 622 331 622 c 0
 342 622 351 626 351 631 c 0
 351 636 342 640 331 640 c 0
401 157 m 1
 346 125 l 1
 338.491434326 120.620003357 335.159058169 115.761484998 335.159058169 110.12502728 c 0
 335.159058169 88.7373519398 383.13998993 56.1485835771 433 -4 c 1
 469 -9 462 -35 466 -65 c 1
 467 -73 471 -73 477 -72 c 0
 478 -72 479 -75 479 -76 c 1
 484 -76 l 1
 479 -77 l 2
 479 -78 479 -79 478 -81 c 1
 479 -77 478 -73 476 -73 c 0
 474 -74 466 -74 465 -68 c 0
 456 -60 421 -61 415 -18 c 1
 390.862392833 37.4512597087 301.610480184 86.9443476739 301.610480184 119.929054743 c 0
 301.610480184 137.505869912 326.954333152 150.394987464 401 157 c 1
447 -14 m 6
 446 -15 l 6
 443 -16 442 -20 443 -24 c 4
 445 -28 448 -31 451 -30 c 4
 454 -29 455 -25 453 -20 c 4
 452 -17 450 -15 447 -14 c 6
432 -21 m 6
 432 -21 431 -21 430 -21 c 4
 428 -23 427 -27 430 -31 c 4
 432 -35 436 -37 439 -36 c 4
 441 -34 441 -30 439 -26 c 4
 437 -23 435 -21 432 -21 c 6
EndSplineSet
Validated: 1
EndChar

StartChar: R
Encoding: 51 82 51
Width: 553
GlyphClass: 1
Flags: W
HStem: 51 19.1944<468.243 509.011> 354 20G<93 100.5> 389 21G<95.6949 96.7633> 394.755 7.34548<130.395 288.696> 636.825 60.4807<175.779 336.874>
VStem: 76.0862 19.9138<28.1004 54.6868> 104.536 126.867<321.901 385.456> 114 47<569.889 625> 114 16<28.1609 45.4954> 151 24.0777<21.0444 54.1495> 415.759 136.755<461.979 574.685>
LayerCount: 2
Fore
SplineSet
92 703 m 1xcc20
 86 712 l 1
 143 692 148 700 156 672 c 1
 140 669 134 665 117 659 c 1
 118.299126454 664.052158431 118.868987055 668.437559511 118.868987055 672.261470859 c 0
 118.868987055 694.928592804 98.8452209302 697.866084302 92 703 c 1xcc20
592 21 m 1
 593 20 l 1
 592 19 590 17 589 16 c 1
 596 8 l 1
 596 7 l 1
 587 15 l 2
 585 14 581 12 579 14 c 0
 573 21 565 22 557 19 c 1
 542.214420147 1.33944628634 521.693612952 -5.86275168728 499.871495375 -5.86275168728 c 0
 468.561017506 -5.86275168728 434.571577941 8.96415875034 411 29 c 1
 296.478573574 147.983300183 104.535912728 315.631376287 104.535912728 377.72825774 c 0
 104.535912728 393.184091888 116.426870267 402.100969203 144.362219786 402.100969203 c 0
 155.117531732 402.100969203 168.251113181 400.779215321 184 398 c 1
 200.319198696 395.791791596 215.91900791 394.755491865 230.75255819 394.755491865 c 0
 346.640129708 394.755491865 415.758596266 458.006709938 415.758596266 519.844993199 c 0
 415.758596266 578.980899354 352.549183176 636.82466486 206.584864533 636.82466486 c 0
 161.972978483 636.82466486 109.630700609 631.421299719 49 619 c 1
 146.227782735 674.942100045 234.805189424 697.305400465 309.621471018 697.305400465 c 0
 458.205506064 697.305400465 552.513770336 609.101466629 552.513770336 520.544595873 c 0
 552.513770336 437.680922819 469.94162121 354.508233791 272 343 c 1
 243.278624294 341.147008019 231.403246939 338.811168951 231.403246939 333.221361592 c 0xde20
 231.403246939 314.678059184 362.088895753 260.32562459 442 69 c 1
 453.720256557 69.8153221953 463.851344471 70.1944020179 472.634616731 70.1944020179 c 0
 550.033443382 70.1944020179 522.770865153 40.757863963 556 21 c 1
 564 27 578 18 579 16 c 0
 581 13 590 17 592 21 c 1
114 625 m 1xed20
 121 625 151 629 161 629 c 1
 188 401 l 1
 179.951635836 401.574883155 154.387267674 410.412032345 131.636200287 410.412032345 c 0
 114.812151921 410.412032345 99.5265189902 405.57955697 94 389 c 1
 114 625 l 1xed20
120 -27 m 1
 118 -26 116 -24 116 -24 c 1
 110 -28 l 1
 109 -28 l 1
 115 -23 l 1
 114 -22 113 -20 114 -19 c 0
 119 -16 121 -13 118 -7 c 0
 96.1195611325 6.97916927644 76.0861654943 28.7159201159 76.0861654943 49.9029063564 c 0
 76.0861654943 63.5749788979 84.4284482698 77.0181191191 106 88 c 1
 92.7454545455 162.618181818 89.3715702479 232.898512397 89.3715702479 285.117607814 c 0
 89.3715702479 339.270743802 93 374 93 374 c 1
 108 330 129 307 175 257 c 1
 156 128 172 193 150 86 c 1
 167.899868074 73.1661323242 175.077736844 60.2182008261 175.077736844 48.0807612969 c 0xcce0
 175.077736844 24.2802658434 147.477465525 3.59626624178 119 -7 c 1
 123 -14 119 -17 115 -20 c 1
 114 -21 118 -25 121 -27 c 1
 120 -27 l 1
140 46 m 0
 135 46 130 41 130 34 c 0
 130 27 135 21 140 21 c 0
 146 21 151 27 151 34 c 0
 151 41 146 46 140 46 c 0
105 55 m 0
 100 55 96 49 96 42 c 0
 96 34 100 28 105 28 c 0
 110 28 114 34 114 42 c 0
 114 49 110 55 105 55 c 0
491 51 m 4
 487 51 484 49 483 46 c 4
 483 42 488 37 496 35 c 4
 503 33 510 35 510 39 c 4
 511 43 505 48 498 50 c 4
 496 51 493 51 491 51 c 4
EndSplineSet
Validated: 1
EndChar

StartChar: S
Encoding: 52 83 52
Width: 518
GlyphClass: 1
Flags: W
HStem: 3.99763 97.2025<229.978 352.459> 637.678 65.049<186.504 304.416>
VStem: 54.9502 80.7697<450.623 583.75> 385.287 105.728<134.804 239.77>
LayerCount: 2
Fore
SplineSet
348 4 m 0
 190 5 191 69 151 102 c 1
 22 121 36 146 26 206 c 1
 21 206 26 209 26 211 c 1
 25 213 12 211 1 208 c 1
 13 212 l 2
 16 213 17 213 18 214 c 1
 6 225 l 1
 16 219 l 1
 21 214 l 2
 23 214 27 214 28 212 c 0
 30 208 23 208 28 208 c 0
 48.2661616633 218.133080832 65.6219115595 222.328921659 80.7834703183 222.328921659 c 0
 128.464148629 222.328921659 154.444234026 180.831974486 181 152 c 0
 214.940828138 115.781263934 252.825193319 101.200092964 286.662940721 101.200092964 c 0
 341.238053257 101.200092964 385.286797108 139.129739356 385.286797108 185.384212651 c 0
 385.286797108 236.350575826 331.806558372 297.424235859 180 329 c 1
 89.8397344888 368.246233223 54.9501831036 433.51048709 54.9501831036 498.61238421 c 0
 54.9501831036 600.869747563 141.029195855 702.726546623 234.204554261 702.726546623 c 0
 305.408241096 702.726546623 380.7560981 643.243549498 425 479 c 1
 370.724471761 595.855508887 305.453418999 637.677558438 250.658161633 637.677558438 c 0
 185.865427872 637.677558438 135.719862482 579.20232307 135.719862482 517.160065465 c 0
 135.719862482 454.761945879 186.4423275 388.75576725 324 375 c 1
 444.750702949 349.091803199 491.014906472 267.532773493 491.014906472 187.460681887 c 0
 491.014906472 94.7320815467 428.969425907 3.99763180035 348.710328311 3.99763180035 c 0
 348.473710141 3.99763180035 348.236933663 3.99842044225 348 4 c 0
96 133 m 4
 100 133 103 134 104 136 c 4
 106 142 100 150 89 156 c 4
 79 161 68 162 65 157 c 4
 63 151 69 143 80 137 c 4
 85 134 91 133 96 133 c 4
108 174 m 4
 114 174 118 176 120 179 c 4
 123 185 119 193 109 197 c 4
 99 202 89 200 85 195 c 4
 82 189 87 181 96 176 c 4
 100 175 104 174 108 174 c 4
EndSplineSet
Validated: 1
EndChar

StartChar: T
Encoding: 53 84 53
Width: 783
GlyphClass: 1
Flags: W
HStem: -3.83334 26.8333<191.302 231.635> -2.28576 73.4069<195.027 319.273 324.739 375.8> 44 14<191.847 219.295> 77 13.4741<188.694 219.418> 537.462 90.6617<446.488 569.969> 564.528 135.472<675.199 724 726.43 778.349> 629 3<857.466 861> 657 42.1252<725.142 747.859> 670.527 29.6118<98.768 195.148>
VStem: 438.961 97.4245<145.683 330.649>
LayerCount: 2
Fore
SplineSet
365 696 m 1x5040
 387.401462897 662.077784756 536.385857906 379.086240308 536.385857906 183.946408854 c 0
 536.385857906 77.8442912913 492.340815372 -2.28576097361 359.954975984 -2.28576097361 c 0x5040
 355.408123275 -2.28576097361 350.757062818 -2.19123870624 346 -2 c 1
 263 19 l 1
 257.758412558 3.27523767426 242.274949072 -3.83334321779 224.480899349 -3.83334321779 c 0x9040
 198.142775572 -3.83334321779 166.742417388 11.7407574957 156 38 c 1
 141 37 l 1
 132 26 l 1
 131 27 l 1
 140 38 l 1
 128 45 l 1
 128 46 l 1
 141 39 l 1
 156 40 l 1
 166.880709754 77.4780002648 191.281247459 90.4741499162 215.065365777 90.4741499162 c 0
 230.62740588 90.4741499162 245.925548507 84.9103224952 257 77 c 1
 274.716098311 73.0124537564 290.851879133 71.1211808146 305.524908046 71.1211808146 c 0
 407.724208448 71.1211808146 438.961324977 162.872117846 438.961324977 277.104967251 c 0
 438.961324977 434.380351264 379.749230088 634.271740743 365 696 c 1x5040
720 700 m 1x1440
 724 699 l 1
 725.211496531 699.083551485 726.429973913 699.125217866 727.655359238 699.125217866 c 0
 755.76243464 699.125217866 787.503926728 677.203643074 822 636 c 0
 827 630 834 639 846 638 c 0
 849 638 849 647 851 649 c 2
 854 649 l 1
 847 634 l 1
 861 632 l 1
 861 629 l 1x1340
 853 633 848 630 845 633 c 0
 840 639 839 628 819 631 c 1
 797.982424489 589.665434829 767.148438304 564.527947271 712.399702685 564.527947271 c 0x1440
 689.001362408 564.527947271 661.234970611 569.119333062 628 579 c 1
 543.233245922 548.095454242 502.127792346 537.462226575 464.754407521 537.462226575 c 0
 459.801706108 537.462226575 454.914545091 537.648961065 450 538 c 1
 438 567 405 641 395 663 c 1
 437.587584359 652.539891561 490.781615161 628.12393254 556.250431952 628.12393254 c 0x1840
 578.40627416 628.12393254 601.967909677 630.920216878 627 638 c 1
 665 669 691 699 720 700 c 1x1440
166 700 m 0x1440
 170.193023553 700.093178301 174.277519658 700.138604525 178.261375991 700.138604525 c 0
 259.787907418 700.138604525 299.16806224 681.114806139 364 663 c 1
 370 641 385 576 392 548 c 1
 314.198708175 569.131215064 310.203738674 670.526805656 50.3687139534 670.526805656 c 0x10c0
 39.6859039621 670.526805656 28.570635743 670.355412019 17 670 c 1
 89 694 119 699 166 700 c 0x1440
739 657 m 0x1140
 733 658 728 656 725 653 c 0
 720 648 722 640 730 636 c 0
 738 632 749 633 754 638 c 0
 759 643 756 651 748 655 c 0
 745 656 742 657 739 657 c 0x1140
750 620 m 0
 744 620 739 618 736 615 c 0
 731 609 732 601 740 598 c 0
 747 594 757 595 763 601 c 0
 768 606 766 614 759 618 c 0
 756 620 753 620 750 620 c 0
204 77 m 4
 195 77 188 73 188 68 c 4
 188 62 195 58 204 58 c 4x3040
 213 58 220 62 220 68 c 4
 220 73 213 77 204 77 c 4
206 44 m 4
 198 44 191 40 191 34 c 4
 191 28 198 23 206 23 c 4xb040
 214 23 221 28 221 34 c 4
 221 40 214 44 206 44 c 4
EndSplineSet
Validated: 1
EndChar

StartChar: U
Encoding: 54 85 54
Width: 585
GlyphClass: 1
Flags: W
HStem: 8 86<165.811 302.069> 42 7<586.188 630.988> 678 25G<100 103 371.5 407.5>
VStem: 21 75<159.195 320.85> 101 5<644.606 697.43> 309 146<154 557.77> 653 1<31 33>
LayerCount: 2
Fore
SplineSet
516 117 m 0x3e
 512 117 509 116 508 112 c 0
 505 103 514 95 520 93 c 2
 520 93 540 82 545 90 c 0
 549 99 540 108 533 112 c 0
 530 114 522 117 516 117 c 0x3e
  Spiro
    516 117 o
    512.374 116.593 o
    509.627 115.072 o
    508 112 o
    508.441 103.526 o
    513.562 96.8094 o
    520 93 v
    525.361 90.4484 o
    536.307 87.2209 o
    545 90 o
    545.225 98.8064 o
    540.104 106.525 o
    533 112 o
    528.598 114.183 o
    522.401 116.15 o
    0 0 z
  EndSpiro
653 31 m 0
 653 33 627 42 596 42 c 0x7e
 592 42 587 41 584 40 c 1
 551 14 523 -1 497 -1 c 0
 475 -1 454 10 431 34 c 1
 412 63 408 75 404 75 c 0
 400 75 396 62 376 41 c 1
 363 27 320 8 265 8 c 0
 199 8 115 35 46 130 c 1
 28 154 21 184 21 219 c 0
 21 336 99 506 101 698 c 1
 105 686 106 664 106 637 c 0
 106 564 96 448 96 343 c 0
 96 242 106 151 143 119 c 1
 160 104 198 94 233 94 c 0xbe
 275 94 314 108 314 145 c 0
 314 146 314 148 314 149 c 1
 310 199 309 247 309 293 c 0
 309 529 352 703 391 703 c 0
 424 703 455 578 455 260 c 0
 455 227 455 192 454 154 c 1
 465 153 486 155 497 151 c 1
 574 123 573 91 586 50 c 1
 590 49 594 49 599 49 c 0x7e
 631 49 653 55 656 55 c 0
 658 51 l 1
 658 48 630 48 630 44 c 1
 630 41 654 39 654 36 c 1
 653 31 l 0
EndSplineSet
Validated: 33
EndChar

StartChar: V
Encoding: 55 86 55
Width: 463
GlyphClass: 1
Flags: W
HStem: 640 36<362.438 401.43> 682 20G<398 405 409 411>
VStem: 46.6634 1.33659<535 746.894> 333.428 28.5721<592.241 639.783> 381.415 81.0639<303.468 494.017> 388 49.6409<608.235 639.587>
LayerCount: 2
Fore
SplineSet
399 702 m 1xf8
 405 696 l 1
 406 697 408 698 410 700 c 1
 411 699 l 1
 405 696 402 691 404 690 c 0
 406 689 412 680 407 674 c 1
 424.39603033 669.489918063 437.64086901 651.696022848 437.64086901 615.269110219 c 0xf4
 437.64086901 595.158604693 433.60396967 569.368934815 424 537 c 1
 450.45222245 477.887380443 462.478729119 420.596189646 462.478729119 366.01138179 c 0
 462.478729119 218.370793277 374.493967844 90.5298409812 246 0 c 1
 126.828409063 86.5856090401 46.6634138226 363.870130373 46.6634138226 677.71132257 c 0
 46.6634138226 700.961145819 47.1033647045 724.411594534 48 748 c 1
 87 535 196 226 258 121 c 1
 318.141860531 230.204957279 381.414818177 291.8172384 381.414818177 418.822846986 c 0
 381.414818177 452.311545815 377.015667033 490.34681781 367 535 c 1
 342.74472402 557.888781559 333.42790407 581.594509932 333.42790407 602.887734605 c 0
 333.42790407 643.9239987 368.031438636 676 397 676 c 0
 400 676 403 675 406 675 c 0
 410 681 407 685 403 690 c 0
 401 691 403 694 405 695 c 1
 398 702 l 1
 399 702 l 1xf8
375 640 m 0
 368 640 362 633 362 624 c 0
 362 615 368 608 375 608 c 0
 382 608 388 615 388 624 c 0
 388 633 382 640 375 640 c 0
EndSplineSet
Validated: 1
EndChar

StartChar: W
Encoding: 56 87 56
Width: 700
GlyphClass: 1
Flags: W
HStem: 656 60<102.558 163.132> 721 1<704.764 707>
VStem: 176 95<343.905 641.754> 586 75<220.236 271> 610 94<568.474 633.965>
LayerCount: 2
Fore
SplineSet
415 515 m 1xf0
 489 489 528 427 555 376 c 1
 565 430 593 555 610 575 c 1
 610 576 610 577 610 578 c 0
 609.971360223 579.374709301 609.956664472 580.751879312 609.956664472 582.130734818 c 0
 609.956664472 628.896650159 626.861585511 677.601435319 690 698 c 1
 697 703 697 709 694 716 c 0
 694 717 696 719 698 720 c 9
 696 730 l 1
 697 730 l 1
 697 730 699 720 700 721 c 1
 701 721 704 722 707 722 c 1
 707 722 708 723 707 721 c 1
 701 720 695 717 696 715 c 0
 698 713 699 701 691 697 c 1
 693 676 704 649 704 622 c 0xe8
 704 595 693 568 654 547 c 1
 654 545 654 542 654 540 c 0
 654 454 661 386 661 320 c 0
 661 229 648 139 586 6 c 1
 535 271 463 383 407 383 c 0
 346 383 300 248 210 0 c 1
 172 47 162 131 162 225 c 0
 162 333 176 453 176 539 c 0
 176 608 167 656 134 656 c 0
 113 656 81 636 36 589 c 1
 70 676 114 716 154 716 c 0
 218 716 271 661 271 495 c 0
 271 461 271 381 266 342 c 1
 304 424 319 494 415 515 c 1xf0
660 666 m 0
 654 665 649 660 647 653 c 0
 646 645 650 638 656 636 c 0
 663 635 669 641 671 649 c 0
 673 657 669 664 662 665 c 0
 661 666 661 666 660 666 c 0
EndSplineSet
Validated: 1
EndChar

StartChar: X
Encoding: 57 88 57
Width: 538
GlyphClass: 1
Flags: W
HStem: -4 1<535.476 539.093> 1.50138 30.4986<114.125 143.436 457.08 493.403> 2.04056 56.9594<74.0664 104.995 502.004 529.903> 89 44.0092<485.538 526.356> 401 21G<351.368 373.206> 678 20G<442.421 509>
VStem: 48.9525 25.0475<58.8825 91.1013> 145 43.3064<32.3817 107.611> 421 36<33.9461 62.9949> 530 8.67682<52.8005 83.5667> 541 1<-16 -11.0342>
LayerCount: 2
Fore
SplineSet
71 -28 m 1x9fe0
 69 -28 l 1
 69 -28 69 -19 68 -19 c 0
 66 -19 61 -21 61 -21 c 2
 61 -21 60 -21 60 -20 c 1
 68 -19 72 -16 71 -14 c 0
 70 -12 69 -2 74 2 c 1
 61.8061982084 26.3876035833 48.9525348688 50.7752071665 48.9525348688 73.2028338577 c 0
 48.9525348688 98.5960840296 65.4302452835 121.476748428 118 139 c 1
 248 360 l 1
 296 285 l 1
 188 114 l 1
 188.205636946 109.64049674 188.306403239 105.451831156 188.306403239 101.427185838 c 0
 188.306403239 7.59380049397 133.532356645 2.91774522151 76 1 c 0
 70 -3 71 -8 73 -14 c 0
 73 -16 71 -18 69 -19 c 2
 71 -28 l 1x9fe0
542 -11 m 1
 542 -16 l 1
 541 -16 l 1
 541 -8 540 -4 538 -4 c 1
 537 -4 534 -5 532 -5 c 1
 529 -4 526 -2 524 2 c 1
 522.472949639 2.02827871039 520.953896132 2.04056371156 519.443495288 2.04056371156 c 0xbfe0
 509.437166509 2.04056371156 499.810602676 1.50137561028 490.754492262 1.50137561028 c 0xdfe0
 452.838361982 1.50137561028 424.921881357 10.9529660791 421 109 c 1
 205.623229462 441 l 1
 192 462 l 1
 168.620626488 505.836325335 147.376390108 609.456490367 112.667863201 609.456490367 c 0
 99.8698621658 609.456490367 85.2412529763 595.368267997 68 559 c 1
 100 628 66 687 165 704 c 1
 278 523 399 350 485 133 c 1
 485.355157004 133.006123397 485.708401713 133.009172122 486.059738489 133.009172122 c 0
 522.800794714 133.009172122 538.676815105 99.6684954277 538.676815105 62.658654943 c 0
 538.676815105 42.2265335327 533.838054428 20.6761088558 525 3 c 1
 528 -3 533 -4 539 -3 c 0
 541 -3 542 -7 542 -9 c 1
 543 -11 548 -13 547 -15 c 1
 542 -11 l 1
129 32 m 0xdfe0
 138 32 145 40 145 49 c 0
 145 58 138 66 129 66 c 0
 121 66 114 58 114 49 c 0
 114 40 121 32 129 32 c 0xdfe0
472 32 m 0
 480 32 487 39 487 47 c 4
 487 56 480 63 472 63 c 4
 464 63 457 56 457 47 c 4
 457 39 464 32 472 32 c 0
90 58 m 0
 98 58 105 66 105 75 c 0
 105 85 98 92 90 92 c 0
 81 92 74 85 74 75 c 0
 74 66 81 58 90 58 c 0
516 59 m 4xbfe0
 523 59 530 65 530 74 c 0
 530 82 523 89 516 89 c 4
 508 89 502 82 502 74 c 4
 502 65 508 59 516 59 c 4xbfe0
364 401 m 1
 316 477 l 1
 455 698 l 1
 563 679 513 666 546 594 c 1
 529.788122912 609.773718247 514.92012801 624.011571141 498.535965117 624.011571141 c 0
 477.526924018 624.011571141 454.024946108 600.601191933 422 527 c 1
 364 401 l 1
EndSplineSet
Validated: 1
EndChar

StartChar: Y
Encoding: 58 89 58
Width: 448
GlyphClass: 1
Flags: W
HStem: 0.215473 50.7845<82 96.9956> 0.215473 34.7845<99.5974 134.313> 257 1<430.455 433> 270.821 16.179<345.078 369.995> 317 4<364 365> 347 21.403<332.445 378.663> 680 20G<14.5323 31 390.5 452>
VStem: 60.9256 10.0744<54.3018 76.3982> 97 8<55 60.8229> 372 45<287.08 331.921> 419 2<262.414 278.287> 422 1<250 259>
LayerCount: 2
Fore
SplineSet
446 700 m 1x7ff0
 452 700 l 1
 443 692 380 631 353 533 c 1
 324 384 235 253 177 110 c 1
 170.125159837 13.7522377187 143.311061296 0.215473153098 102.9039643 0.215473153098 c 0
 96.2908007066 0.215473153098 89.3135389408 0.578065061106 82 1 c 1
 82 -6 77 -7 73 -11 c 1
 71 -12 73 -20 76 -24 c 1
 75 -25 l 2
 72 -19 l 2
 65 -23 l 1
 64 -22 l 1
 71 -18 l 1
 72 -18 70 -13 71 -11 c 1
 75 -7 80 -4 81 1 c 1
 69.5154004485 25.6706212588 60.9256382492 42.9232218026 60.9256382492 59.0683940297 c 0
 60.9256382492 80.880109039 76.6030875766 100.670621259 122 134 c 1
 196 341 335 669 446 700 c 1x7ff0
17 700 m 1
 45 647 136 481 239 445 c 1
 202 362 l 1
 101.040291545 422.403244375 9.76041474352 549.820707891 9.76041474352 653.014544792 c 0
 9.76041474352 669.409790527 12.0645256785 685.193577035 17 700 c 1
312 379 m 1
 312 379 321 371 325 368 c 0
 327.966670972 368.269697361 330.951526111 368.403013472 333.938626696 368.403013472 c 0
 375.254526667 368.403013472 417 342.898480347 417 300 c 0
 417 295 415 291 414 286 c 1
 423 280 421 270 421 266 c 1
 419 263 425 259 433 258 c 1
 433 257 l 1
 429 257 427 258 425 259 c 1
 423 250 l 1
 422 250 l 1
 423 260 l 17
 420 261 419 264 419 265 c 0
 419 273 421 278 413 285 c 1
 396.583643985 275.514994302 378.836439847 270.821041846 361.84605446 270.821041846 c 0
 332.262928545 270.821041846 304.974225948 285.051548104 291 313 c 1
 281 320 290 314 283 318 c 1
 312 379 l 1
371 347 m 4
 364 347 359 341 359 334 c 4
 359 327 364 321 371 321 c 4
 378 321 384 327 384 334 c 4
 384 341 378 347 371 347 c 4
357 317 m 4
 349 317 343 310 343 302 c 4
 343 294 349 287 357 287 c 4
 365 287 372 294 372 302 c 4
 372 310 365 317 357 317 c 4
84 80 m 0
 77 80 71 73 71 65 c 0
 71 57 77 51 84 51 c 0xbff0
 91 51 97 57 97 65 c 0
 97 73 91 80 84 80 c 0
120 66 m 0
 112 66 105 59 105 50 c 0
 105 42 112 35 120 35 c 0x7ff0
 129 35 135 42 135 50 c 0
 135 59 129 66 120 66 c 0
EndSplineSet
Validated: 1
EndChar

StartChar: Z
Encoding: 59 90 59
Width: 708
GlyphClass: 1
Flags: W
HStem: 0.623224 96.3768<249.689 470.588> 16.3277 75.6723<564.955 607.502> 116 31.2527<565.054 607.812> 673.632 26.1634<322.641 497.261>
VStem: 50.1237 190.437<70.3109 144.159> 559.234 151.75<553.762 643.637>
LayerCount: 2
Fore
SplineSet
156 12 m 0xbc
 81.1373899148 26.074170696 50.1236867113 52.7918912291 50.1236867113 87.8300072223 c 0
 50.1236867113 169.799954244 219.862610085 297.307673977 395 415 c 1
 514.197385427 508.247715394 559.233744185 568.074178638 559.233744185 606.375054252 c 0
 559.233744185 666.726138674 447.414636839 673.63213872 337.720067211 673.63213872 c 0
 305.164604902 673.63213872 272.796271949 673.023857997 243.593628151 673.023857997 c 0
 214.653848072 673.023857997 188.823022587 673.62123729 169 676 c 1
 264.227350291 688.735572683 371.853890722 699.795579131 465.957227011 699.795579131 c 0
 602.760425979 699.795579131 710.983635242 676.421320553 710.983635242 600.84031886 c 0
 710.983635242 548.79113206 659.659337139 471.983166946 531 361 c 1
 378.810167421 213.474989875 240.560699057 155.372316063 240.560699057 128.403499107 c 0
 240.560699057 109.121780753 311.230057454 105.754841057 498 97 c 1
 516.862297145 130.257208124 543.116275458 147.252717677 573.33748369 147.252717677 c 0
 603.999947473 147.252717677 638.746336846 129.757286914 674 94 c 0
 682 91 686 93 691 97 c 0xbc
 693 98 697 96 699 94 c 2
 708 100 l 1
 708 99 l 1
 700 94 l 1
 702 92 704 91 706 88 c 2
 705 87 l 1
 700 94 694 97 692 96 c 0
 691 94 684 90 676 92 c 1
 677 91 677 91 677 91 c 1
 636.58272237 50.5827223704 624.175669895 16.3276942748 578.561743021 16.3276942748 c 0x7c
 563.23262287 16.3276942748 544.153189575 20.1963836488 519 29 c 1
 363.033921963 7.29598266798 285.790877901 0.623224250278 240.591857348 0.623224250278 c 0
 196.242576587 0.623224250278 182.743792188 7.04744589117 156 12 c 0xbc
568 101 m 0
 571 97 577 94 584 92 c 0x7c
 596 90 607 93 608 99 c 0
 610 106 601 114 589 116 c 0
 577 119 566 116 565 109 c 0
 564 106 565 103 568 101 c 0
EndSplineSet
Validated: 1
EndChar

StartChar: bracketleft
Encoding: 60 91 60
Width: 300
GlyphClass: 1
Flags: W
HStem: 0 29<238.004 266.456> 2.66667 79.1652<104.665 236.936> 51 38.8153<238.066 266.864> 53 3<313.717 319.43>
VStem: 0.507553 71.25<226.167 655.327> 8 70<106.913 235.767>
LayerCount: 2
Fore
SplineSet
232 0 m 0x94
 198.666666667 0 165.333333333 2.66666666667 110.074074074 2.66666666667 c 0x44
 82.4444444444 2.66666666667 49.3333333333 2 8 0 c 1x84
 6.42481980817 206.348605129 0.507552502089 374.859022548 0.507552502089 550.476995432 c 0
 0.507552502089 597.840461492 0.937950479564 645.720902252 2 695 c 1
 69.6695034434 696.780776406 196.798343317 703.318299727 285.267546952 703.318299727 c 0
 296.158603613 703.318299727 306.463773679 703.219223594 316 703 c 1
 294 673 96 623 80 619 c 1
 73.8574769393 597.501169288 71.7575170448 536.924227969 71.7575170448 459.566883163 c 0x88
 71.7575170448 360.611853299 75.1937582359 234.198435387 78 127 c 1
 111.237164193 90.6789752119 145.648426678 81.8318504726 177.532570764 81.8318504726 c 0x44
 207.820475703 81.8318504726 235.827962271 89.8153093313 258.382338397 89.8153093313 c 0x24
 281.377084208 89.8153093313 298.703698971 81.5170561589 307 48 c 1
 311 53 314 55 316 56 c 0x14
 318 56 320 55 321 54 c 0
 322 54 323 52 325 51 c 0x24
 327 49 329 46 332 44 c 0
 335 43 338 43 344 45 c 2
 353 55 l 1
 355 53 l 1
 346 44 l 5
 349 43 351.018565485 41.53670827 355 30 c 5
 353 29 l 1
 353 29 349 45 344 42 c 0
 338 40 334 40 331 42 c 0
 327 44 325 47 322 49 c 0
 321 50 320 51 319 52 c 0
 318 53 318 53 317 53 c 0
 315 53 312 51 307 44 c 1
 280 11 257 0 232 0 c 0x94
252 29 m 0xa0
 260 29 267 34 267 40 c 0
 267 46 260 51 252 51 c 0
 244 51 238 46 238 40 c 0
 238 34 244 29 252 29 c 0xa0
EndSplineSet
Validated: 1
EndChar

StartChar: backslash
Encoding: 61 92 61
Width: 315
GlyphClass: 1
Flags: W
HStem: 19.7586 14.2414<242.143 256.184> 380 20G<50 73>
VStem: 211.449 80.2758<32.2728 88.0612> 275 1<17.6467 20>
LayerCount: 2
Fore
SplineSet
294 4 m 1xd0
 294 4 287 8 286 6 c 0
 286 5 285 4 284 2 c 2
 284 2 280 -3 283 2 c 0
 286 7 286 11 285 11 c 0
 283 11 275 14 275 20 c 1xd0
 273.443444748 19.8389770429 271.832151779 19.7586201965 270.179110187 19.7586201965 c 0
 245.475737473 19.7586201965 211.448690591 37.7046268637 211.448690591 72.5644801732 c 0
 211.448690591 78.8316398308 212.548492999 85.6454789967 215 93 c 1
 133 246 80 318 20 400 c 1
 126 322 197 217 247 102 c 1
 267.905440712 95.7283677865 291.724464432 70.5184460148 291.724464432 47.3502551561 c 0xe0
 291.724464432 37.2713245907 287.216623122 27.578799407 276 20 c 1
 276 15 280 13 286 12 c 0
 287 11 287 9 287 7 c 2
 295 5 l 1
 294 4 l 1xd0
277 43 m 0
 281 44 282 50 278 55 c 0
 275 61 268 63 264 62 c 0
 261 60 260 54 264 49 c 0
 267 44 273 41 277 43 c 0
255 34 m 0
 259 36 260 42 256 47 c 0
 253 52 247 54 243 53 c 0
 239 51 238 45 242 40 c 0
 245 35 251 32 255 34 c 0
EndSplineSet
Validated: 1
EndChar

StartChar: bracketright
Encoding: 62 93 62
Width: 298
GlyphClass: 1
Flags: W
HStem: 0 47<42.5527 69.9949> 2.66667 74.7272<69.5559 190.038> 53 3<-9.46875 -3.93481> 69 19.338<42.29 69.7155> 677.828 20G<56.3026 111.535>
VStem: 219.925 76.2744<105.359 609.998>
LayerCount: 2
Fore
SplineSet
73 0 m 0x8c
 49 0 28 11 2 44 c 1
 -2 51 -5 53 -7 53 c 0
 -8 53 -8 53 -9 52 c 0
 -10 51 -11 50 -12 49 c 0
 -14 47 -17 44 -20 42 c 0
 -23 40 -27 40 -32 42 c 1
 -41 29 l 1
 -43 30 l 1
 -34 44 l 1
 -43 53 l 1
 -41 55 l 1
 -41 55 -37 48 -32 45 c 0
 -27 43 -24 43 -21 44 c 0
 -18 46 -16 49 -14 51 c 0
 -13 52 -12 54 -11 54 c 0
 -10 55 -8 56 -7 56 c 0
 -4 55 -1 53 2 48 c 1
 9.25604330088 79.8634944952 23.8771379523 88.3379745663 43.3827613987 88.3379745663 c 0xbc
 65.5490608301 88.3379745663 94.0233269815 77.3938813893 125.165208859 77.3938813893 c 0x4c
 153.48341043 77.3938813893 184.007405744 86.4433153136 214 121 c 1
 216.300684792 230.857698833 219.924657213 360.233890186 219.924657213 459.655973566 c 0
 219.924657213 533.090395713 217.947603227 590.183388706 212 611 c 1
 178 657 6 667 -14 697 c 1
 10.0172439427 697.585786438 40.1253249569 697.828427125 72.479924368 697.828427125 c 0
 150.590837072 697.828427125 241.795418536 696.414213562 292 695 c 1
 295.046740254 595.328068826 296.199067003 500.960495468 296.199067003 404.31150419 c 0
 296.199067003 278.905813252 294.259005569 149.659118948 292 0 c 1x8c
 253.333333333 2 221.333333333 2.66666666667 194.111111111 2.66666666667 c 0x4c
 139.666666667 2.66666666667 104.333333333 -8.881784197e-16 73 0 c 0x8c
56 47 m 4
 63 47 70 52 70 58 c 4
 70 64 63 69 56 69 c 4
 48 69 42 64 42 58 c 4
 42 52 48 47 56 47 c 4
EndSplineSet
Validated: 1
EndChar

StartChar: asciicircum
Encoding: 63 94 63
Width: 512
GlyphClass: 1
Flags: W
HStem: 418 21G<512.5 514> 432 1<507.374 508.992> 436.963 35.037<439.283 456.231> 677 20G<224.108 253.5>
VStem: 512 2<419 425.896>
LayerCount: 2
Fore
SplineSet
224 697 m 1x78
 283 673 327 640 399 551 c 1
 458 539 483 488 492 438 c 0
 496 432 501 432 508 433 c 0x78
 510 433 512 429 513 427 c 6
 513.409836066 426.508196721 512.949263211 428.60680376 524 429 c 1
 523 428 l 1
 523 428 513 428 513 426 c 5
 513 423.763932023 514 422 514 419 c 2
 512 418 l 1x98
 513 426 510 432 508 432 c 1
 506 430 495 430 491 437 c 1
 489.625309474 436.975451955 488.254837193 436.96295604 486.888938186 436.96295604 c 0
 432.612972381 436.96295604 385.558135188 456.693815113 368 524 c 1
 324 548 293 529 257 615 c 1
 257.356974235 613.65448173 257.530719849 612.256181552 257.530719849 610.809054171 c 0
 257.530719849 559.994281271 43.3007102861 448.975097728 25.418733764 448.975097728 c 0
 25.2644520927 448.975097728 25.124786275 448.98336183 25 449 c 0
 24.3833003457 449.072552901 24.0863840362 449.3925102 24.0863840362 449.944499902 c 0
 24.0863840362 464.279086133 224.322505395 635.093013884 224.322505395 693.175297448 c 0
 224.322505395 694.510898427 224.216626715 695.786890393 224 697 c 1x78
441 501 m 0
 440 501 439 501 438 500 c 0
 433 497 434 488 439 481 c 0
 445 473 453 469 457 472 c 0
 462 475 461 484 456 492 c 0
 452 498 446 502 441 501 c 0
EndSplineSet
Validated: 1
EndChar

StartChar: underscore
Encoding: 64 95 64
Width: 780
GlyphClass: 1
Flags: W
HStem: 330.667 82.8573<140.719 503.23> 334.169 20.831<581.534 639.633> 379 11<604.35 633.918> 415 22.9621<582.036 637.537>
LayerCount: 2
Fore
SplineSet
710 378 m 1x30
 710 377 l 1
 701 385 l 2
 699 383 695 381 693 382 c 0
 687 388 682 392 674 388 c 1
 666.582922732 349.202980446 630.845525571 334.168987928 595.017877602 334.168987928 c 0x70
 568.049978648 334.168987928 541.030945818 342.686876562 526 356 c 1
 427.898437192 341.192216935 358.490467029 330.667059637 293.103226796 330.667059637 c 0
 217.186959392 330.667059637 146.690558388 344.854768676 43 383 c 1
 172.004730531 401.911688245 223.457379571 413.524357056 324.610603721 413.524357056 c 0x90
 373.22139003 413.524357056 433.310203457 410.842486128 519 405 c 1
 544.397402068 428.881139258 570.369567363 437.962125413 593.702868744 437.962125413 c 0
 631.924335381 437.962125413 663.06505124 413.595503305 673 390 c 1
 682 394 693 387 693 384 c 0
 695 382 702 386 706 393 c 1
 707 392 l 2
 705 389 703 387 702 386 c 1
 710 378 l 1x30
640 367 m 4
 640 374 631 379 621 379 c 4
 610 379 602 374 601 368 c 4
 601 361 610 355 620 355 c 4
 631 355 639 360 640 367 c 4
638 402 m 4
 638 409 629 415 619 415 c 4
 609 415 600 410 600 403 c 4
 600 396 608 390 619 390 c 4
 629 390 637 396 638 402 c 4
EndSplineSet
Validated: 1
EndChar

StartChar: grave
Encoding: 65 96 65
Width: 830
GlyphClass: 1
Flags: W
HStem: 310.167 78.5825<709.464 763.465> 325 4<821 838>
VStem: 763 43.2884<388.751 420.674>
LayerCount: 2
Fore
SplineSet
799 336 m 1xa0
 809 333 816 326 828 329 c 1
 840 328 l 1
 838 325 l 1
 821 325 l 1x60
 834 311 l 1
 832 312 834 306 832 307 c 1
 817 327 806 331 796 332 c 1
 783.237510594 320.088343221 758.711383599 310.16745588 732.661479997 310.16745588 c 0
 697.477475136 310.16745588 659.513759534 328.265382413 644 384 c 1
 386 568 242 623 80 689 c 1
 109.61221142 693.137950941 138.70606173 695.135572133 167.303173436 695.135572133 c 0
 359.855995043 695.135572133 529.888041141 604.56886723 684 467 c 1
 716.811967646 461.819163003 806.288420598 453.655984675 806.288420598 377.48740438 c 0
 806.288420598 365.444083382 804.051505187 351.700624229 799 336 c 1xa0
727 394 m 4
 734.5 390.5 742.25 388.75 748.75 388.75 c 4xa0
 755.25 388.75 760.5 390.5 763 394 c 4
 768 401 761 413 746 420 c 4
 739 423.5 731.5 425.25 725 425.25 c 4
 718.5 425.25 713 423.5 710 420 c 4
 705 413 713 401 727 394 c 4
EndSplineSet
Validated: 1
EndChar

StartChar: a
Encoding: 66 97 66
Width: 497
GlyphClass: 1
Flags: W
HStem: -0.211237 67.2112<142.379 240.774> 2.40177 34.5982<412.115 445.859> 56 2<482 491.724> 61 19.15<412.473 445.018> 355.158 34.1165<164.952 243.334> 380 20G<302 330.507>
VStem: -1.09649 70.6004<128.095 273.62> 239.813 142.269<68.1904 387.807> 241 136<67 153.363> 254 128.082<165.929 392.719>
LayerCount: 2
Fore
SplineSet
313 400 m 0x0640
 348.013886211 399.02739205 382.081806196 389.541088075 382.081806196 376.14135943 c 0x07
 382.081806196 375.763976094 382.054784099 375.383488696 382 375 c 0
 381.552208562 359.439247516 381.367595912 344.379787963 381.367595912 329.806188706 c 0
 381.367595912 261.316867129 385.444904088 203.558132871 385.444904088 154.928186294 c 0
 385.444904088 121.471881682 383.515061473 92.3363501717 377 67 c 1x8680
 378 67 380 67 386 68 c 0
 393.2 76.1 403.64 80.15 415.862 80.15 c 0
 417.22 80.15 418.6 80.1 420 80 c 0
 445 80 474 66 482 58 c 1
 489 56 493 59 498 64 c 0
 499 66 503 64 505 63 c 2
 512 71 l 1
 512 70 l 1
 506 62 l 2
 507 61 509 59 511 57 c 2
 510 55 l 1
 505 62 500 65 498 63 c 0
 498 60 489 53 482 56 c 1
 469.007156047 21.6071777723 460.103232364 2.40177368799 424.930112953 2.40177368799 c 0x7280
 414.082281742 2.40177368799 400.735769374 4.22855901431 384 8 c 1
 374.682122626 1.01159196981 367.060003822 -0.211236924692 359.158534787 -0.211236924692 c 0
 354.904660313 -0.211236924692 350.569819838 0.143183994635 345.845821258 0.143183994635 c 0
 344.277216139 0.143183994635 342.665703461 0.104106466284 341 0 c 0
 330 2 318 13 315 54 c 1
 305 7 256 1 240 1 c 0
 84.4832636067 8.64836408492 -1.09649374579 112.492572947 -1.09649374579 210.854567562 c 0
 -1.09649374579 302.441142185 73.0994272317 389.274747793 234.119059431 389.274747793 c 0
 239.321915032 389.274747793 244.615419886 389.184088209 250 389 c 1
 247 379 244 365 242 355 c 1
 239.430520677 355.10595791 236.882969242 355.15823635 234.357824323 355.15823635 c 0
 134.362549322 355.15823635 69.5039495666 273.178038379 69.5039495666 196.219198163 c 0
 69.5039495666 128.390429467 119.886297955 64.4622660383 241 64 c 1x8a80
 241 65.2352941176 239.813148789 107.501730104 239.813148789 162.245064116 c 0x8b
 239.813148789 240.44982699 242.235294118 344.117647059 254 390 c 1
 269 397 291 400 313 400 c 0x0640
387 374 m 1
 445 350 451 340 481 283 c 1
 449 306 423 332 387 344 c 1
 387 374 l 1
429 61 m 4x52
 419 61 412 56 412 49 c 4
 412 43 419 37 429 37 c 4
 438 37 446 43 446 49 c 4
 446 56 438 61 429 61 c 4x52
EndSplineSet
Validated: 1
EndChar

StartChar: b
Encoding: 67 98 67
Width: 457
GlyphClass: 1
Flags: W
HStem: 0 49<55.1827 91.7219 130.839 286.805> 59 2<11.4178 20.1384> 69 15.9135<55.6331 91.3902> 303.703 86.2972<157.499 318.364>
VStem: 65 85.198<367.479 540.557> 368.911 70.0885<117.472 253.15>
LayerCount: 2
Fore
SplineSet
22 60 m 1
 25 59 l 1
 42.2350634838 73.9370550193 54.1892840646 84.9134778613 74.1357792166 84.9134778613 c 0
 88.9089040489 84.9134778613 108.066143897 78.8924259356 137 64 c 1
 163.05065793 58.4349987704 186.779110816 55.9077279475 208.248838217 55.9077279475 c 0
 318.198585421 55.9077279475 368.910540707 122.188444259 368.910540707 186.190876526 c 0
 368.910540707 245.939579318 324.715416382 303.702773051 243.261549896 303.702773051 c 0
 217.756457936 303.702773051 188.598291151 298.03931646 156 285 c 1
 144 147 148 168 146 67 c 1
 119.62578716 80.6124969497 96.8707163746 89.8820234337 75.8873291373 89.8820234337 c 0
 72.2070417353 89.8820234337 68.5812545754 89.5968757626 65 89 c 1
 61 189 61 698 61 698 c 1
 64.749116688 695.188162484 150.198012279 550.060581073 150.198012279 397.653623337 c 0
 150.198012279 387.454857732 149.815370764 377.223494964 149 367 c 1
 196 386 213 390 250 390 c 0
 373.239945561 389.546911965 438.999036195 290.965793019 438.999036195 193.130402224 c 0
 438.999036195 96.5451982048 374.909809163 0.686785574164 238.766431026 0.686785574164 c 0
 208.447185272 0.686785574164 174.554365785 5.44094755121 137 16 c 1
 117 5 100 0 85 0 c 0
 52 0 36 27 23 54 c 1
 22 57 l 1
 20 58 19 59 17 59 c 1
 10 59 8 56 2 52 c 1
 1 51 -4 54 -5 54 c 2
 -12 46 l 1
 -12 47 l 1
 -6 54 l 2
 -7 55 -9 57 -11 59 c 2
 -10 61 l 1
 -5 54 0 52 2 54 c 0
 4 56 13 64 20 61 c 1
 21 61 21 61 22 60 c 1
74 69 m 4
 64 69 55 65 55 59 c 4
 55 53 64 49 74 49 c 4
 84 49 92 53 92 59 c 4
 92 65 84 69 74 69 c 4
EndSplineSet
Validated: 1
EndChar

StartChar: c
Encoding: 68 99 68
Width: 453
GlyphClass: 1
Flags: W
HStem: 2.94888 71.9529<200.049 325.597> 6.06812 43.9319<366.159 403.614> 73 21.9187<372.212 403.51> 373.309 43.8508<194.405 334.086>
VStem: 37.8458 86.5016<146.079 301.071>
LayerCount: 2
Fore
SplineSet
434 56 m 1x38
 424.901693841 34.7706189629 408.905123103 6.06811796438 372.063060426 6.06811796438 c 0x78
 360.313138572 6.06811796438 346.442931767 8.98757321695 330 16 c 1
 300.371883359 7.02926468371 272.789316404 2.94888325236 247.349295148 2.94888325236 c 0
 112.496025248 2.94888325236 37.8457531477 117.602771127 37.8457531477 226.267503445 c 0
 37.8457531477 324.143217732 98.4082895002 417.16002875 230.090468845 417.16002875 c 0
 259.746356884 417.16002875 293.009338621 412.442339815 330 402 c 1
 412 358 423 330 423 330 c 1
 377 352 328 366 328 366 c 1
 308.830423232 371.007562911 290.854635241 373.309204594 274.142091635 373.309204594 c 0
 178.603958835 373.309204594 124.347354442 298.093919552 124.347354442 223.187240035 c 0
 124.347354442 148.892727474 177.720769746 74.9017969555 297.12715667 74.9017969555 c 0x98
 305.43069435 74.9017969555 314.05355639 75.2596046667 323 76 c 1
 345.292502378 89.5844936365 362.00395972 94.9187467861 375.585491818 94.9187467861 c 0
 400.995457379 94.9187467861 415.44961049 76.2470302097 435 58 c 1
 442 55 446 58 451 63 c 0
 453 65 457 62 458 61 c 2
 467 68 l 1
 467 67 l 1
 459 60 l 1
 461 59 462 57 464 54 c 2
 463 53 l 1
 459 60 453 63 452 61 c 1
 451 59 442 53 434 56 c 1x38
388 50 m 4
 397 50 404 55 404 61 c 4
 404 68 397 73 388 73 c 4
 379 73 372 68 372 61 c 4
 372 55 379 50 388 50 c 4
EndSplineSet
Validated: 1
EndChar

StartChar: d
Encoding: 69 100 69
Width: 449
GlyphClass: 1
Flags: W
HStem: 0 49<383.11 419.952> 0.686786 58.3794<189.683 357.047> 69 15.7364<383.789 419.368> 299.315 90.6855<167.245 293.832>
VStem: 36.9079 85.4876<121.025 253.463>
LayerCount: 2
Fore
SplineSet
486 61 m 1x78
 486 58 l 1
 485 57 482 56 481 55 c 1
 483 53 l 1
 488 47 l 1
 488 46 l 1
 480 54 l 2
 479 53 l 1
 478 53 478 52 477 52 c 1
 475 51 474 51 474 52 c 0
 468 58 457 58 455 56 c 1
 454 55 l 0
 454 25 424 1 390 0 c 0xb8
 376 -0 359 5 338 16 c 1
 300.545247917 5.44094755121 266.742119243 0.686785574164 236.503629867 0.686785574164 c 0
 100.82027939 0.686785574164 36.9078511105 96.4077157255 36.9078511105 192.922541533 c 0
 36.9078511105 290.826112983 102.672775583 389.546591087 226 390 c 0
 262 390 304 381 350 362 c 1
 349.153319259 373.500746735 348.759659443 384.976602211 348.759659443 396.379094042 c 0
 348.759659443 546.584036161 417.070556728 684.058350927 418 698 c 1
 418 698 410 170 410 95 c 1
 407.644845847 95.3925256922 405.231913036 95.5731963082 402.779156258 95.5731963082 c 0
 380.237301707 95.5731963082 354.331765808 80.3130800386 339 74 c 1
 340.130506645 96.6101329078 341.181135461 121.137333729 341.181135461 145.369193238 c 0
 341.181135461 206.875386162 334.412306885 266.47879984 305 288 c 0
 295 291 285 294 276 296 c 0
 274 295 273 295 271 295 c 1
 272 295 273 295 274 296 c 1
 261.965323948 298.25650176 250.600181123 299.314539043 239.921616481 299.314539043 c 0
 163.641766964 299.314539043 122.395446874 245.326834187 122.395446874 188.536347559 c 0
 122.395446874 125.526398987 173.170721135 59.0661544171 283.206962857 59.0661544171 c 0
 300.069446191 59.0661544171 318.323612476 60.626904996 338 64 c 1
 367.118387292 78.7831812407 386.403367852 84.7363645988 401.338869366 84.7363645988 c 0
 419.743387292 84.7363645988 431.543305295 75.6965706504 447 63 c 1
 449 61 451 59 454 57 c 1
 458 62 471 56 474 54 c 0
 476 52 483 57 486 61 c 1x78
402 69 m 4
 392 69 383 65 383 59 c 4
 383 53 392 49 402 49 c 4
 412 49 420 53 420 59 c 4
 420 65 412 69 402 69 c 4
EndSplineSet
Validated: 1
EndChar

StartChar: e
Encoding: 70 101 70
Width: 461
GlyphClass: 1
Flags: W
HStem: -0 52<228.415 333> 189 10<194.835 321.057> 336 73<180.543 324.5>
VStem: 28 87<140.727 275.648> 332.626 26.3741<70.77 88.7642> 344 85<236.267 316.441> 386 43<72.4136 91.9985> 420 3<115 134>
LayerCount: 2
Fore
SplineSet
418 113 m 1xf8
 419 114 l 1
 420 114 420 115 420 115 c 1
 420 123 422 133 421 134 c 2
 413 144 l 1
 415 145 l 1
 422 137 l 1
 432 148 l 1
 433 147 l 1
 425 137 l 2
 423 134 422 120 423 115 c 1
 423 113 l 0xf9
 424 112 424 112 424 111 c 1
 427 101 429 91 429 82 c 0xf2
 429 27 365 10 365 10 c 1
 328 3 295 -0 264 -0 c 0
 100 -0 28 93 28 190 c 0
 28 270 77 353 164 388 c 0
 195 400 222 408 251 409 c 0
 269 409 286 408 302 406 c 0
 383 396 429 343 429 292 c 0
 429 240 380 189 270 189 c 0
 239 189 204 193 164 202 c 1
 181 200 197 199 212 199 c 0
 305 199 344 238 344 274 c 0xf4
 344 306 314 336 263 336 c 0
 244 336 221 332 196 321 c 1
 145 303 115 257 115 209 c 0
 115 139 178 63 333 52 c 1
 332.748319235 54.2651268821 332.625858614 56.4593093721 332.625858614 58.5838228512 c 0
 332.625858614 97.5023283124 373.720934519 113.041454775 414.35774789 113.041454775 c 0
 415.572611589 113.041454775 416.787065717 113.027566688 418 113 c 1xf8
377 92 m 0
 374 91 371 90 368 89 c 0
 360 84 356 77 359 72 c 0
 362 67 370 66 378 71 c 0
 385 75 389 82 386 87 c 0xfa
 385 90 381 92 377 92 c 0
401 76 m 0
 397 76 393 73 390 69 c 0
 384 62 382 53 386 48 c 0
 389 43 397 44 403 51 c 0
 409 58 411 68 407 73 c 0
 406 75 404 76 401 76 c 0
EndSplineSet
Validated: 1
EndChar

StartChar: f
Encoding: 71 102 71
Width: 343
GlyphClass: 1
Flags: W
HStem: -20 14<168 169.747> 322.628 42.9216<68.4327 252.083> 326.427 29.573<259.651 279.814> 368 17<265.08 279.738> 636.039 63.0873<186.775 266.06>
VStem: 67.141 92.7857<378.543 582.293> 112.541 14.4589<38.3386 61.9138> 143 18<38.0926 60.9956> 168 1<-20 -18.1148> 178 19.4345<36.2348 71.1233> 315 1.91284<542.35 608.799>
LayerCount: 2
Fore
SplineSet
149 694 m 0x9ce0
 165.212011815 697.514492072 180.02305553 699.126752229 193.526388396 699.126752229 c 0
 285.657073934 699.126752229 316.912841939 624.074836809 316.912841939 566.06804904 c 0
 316.912841939 557.584782741 316.244346047 549.466076282 315 542 c 1
 299.392818592 608.798736425 272.288467122 636.039413144 245.061516546 636.039413144 c 0
 202.642898094 636.039413144 159.926700603 569.919400848 159.926700603 484.258465813 c 0
 159.926700603 448.756800748 167.263800112 409.898711117 185 371 c 1
 165.381260926 369.822875656 152.998546401 369.415541157 142.53584467 369.415541157 c 0
 126.333474576 369.415541157 114.735509614 370.392374781 88 371 c 1
 73.9305228044 412.226840155 67.1409876434 459.127752777 67.1409876434 504.206518516 c 0
 67.1409876434 596.900244235 95.8485743826 681.889548594 149 694 c 0x9ce0
267 385 m 0
 282 385 297 375 304 354 c 1
 313 350 319 353 325 358 c 0
 326 360 330 357 332 355 c 2
 342 363 l 1
 342 362 l 1
 333 355 l 1
 335 354 336 351 338 349 c 2
 338 347 l 1
 333 355 327 358 325 356 c 0
 324 354 312 347 304 352 c 1
 296.942891537 336.474361382 281.917338297 326.427028547 263.492367329 326.427028547 c 0xb8e0
 255.808952597 326.427028547 247.534385457 328.174241002 239 332 c 1
 209.78463797 326.031270123 184.4180397 322.628382753 160.76109054 322.628382753 c 0
 109.111895295 322.628382753 65.6119310694 338.848620665 8 380 c 1
 58.1492580794 372.545380556 86.2536826811 365.550028476 139.310835334 365.550028476 c 0xd8e0
 164.544557695 365.550028476 195.422355301 367.132312121 237 371 c 0
 250 372 257 385 267 385 c 0
273 368 m 0
 269 368 265 365 265 362 c 0
 265 358 269 356 273 356 c 0
 277 356 280 358 280 362 c 0
 280 365 277 368 273 368 c 0
169 -20 m 1
 168 -20 l 1
 167 -21 169 -14 168 -13 c 1
 167 -13 162 -19 161 -19 c 1
 160 -19 161 -19 160 -19 c 2
 159 -19 l 1
 163 -16 169 -8 167 -7 c 0
 166 -6 162 -5 162 0 c 1
 134.11698291 9.07819161067 112.541126248 27.8273625436 112.541126248 53.2483046098 c 0x9be0
 112.541126248 67.030455427 118.88301709 82.7736706373 134 100 c 1
 135.1 105.2 135.59 111.58 135.59 118.851 c 0
 135.59 178.230833333 102.909722222 297.035416667 102.909722222 317.85474537 c 0
 102.909722222 319.904440473 103.226482578 321.004393217 103.922374383 321.004393217 c 0
 103.947744667 321.004393217 103.973618865 321.002931237 104 321 c 0
 124.8 319.4 140.32 318.76 153.12 318.76 c 0
 172.32 318.76 185.4 320.2 201 322 c 1
 201 322 197 141 175 100 c 1
 190.45768785 90.1242549846 197.434476604 78.0361015093 197.434476604 64.2105217875 c 0
 197.434476604 45.8371805058 185.112931932 24.3954110595 164 1 c 0
 163 -3 165 -5 169 -6 c 0
 170 -6 170 -19 169 -20 c 1
169 61 m 4
 165 61 161 55 161 49 c 4
 161 42 165 36 169 36 c 4
 174 36 178 42 178 49 c 4
 178 55 174 61 169 61 c 4
135 62 m 4
 130 62 127 57 127 50 c 4
 127 44 130 38 135 38 c 4
 140 38 143 44 143 50 c 4
 143 57 140 62 135 62 c 4
EndSplineSet
Validated: 1
EndChar

StartChar: g
Encoding: 72 103 72
Width: 442
GlyphClass: 1
Flags: W
HStem: -222.702 75.2<175.489 268.003> -121 42.035<97.1538 127.8> -103 24.035<100.074 138.754> 1.59578 89.7066<143.627 219.141> 374 55.7815<160.103 305.275> 420 20G<377.5 379.213>
VStem: 32.3435 75.6654<134.467 280.919> 74.4075 22.5925<-143.9 -110.52> 347.626 70.3232<-30.1186 158.886>
LayerCount: 2
Fore
SplineSet
390 440 m 1x9680
 365 390 340 395 232 374 c 1
 231.774806823 374.000897184 231.549967818 374.001345212 231.325482616 374.001345212 c 0
 141.073786202 374.001345212 108.008862867 301.584361043 108.008862867 230.054535316 c 0x9a80
 108.008862867 160.256079372 139.492494112 91.3023545328 180.047450085 91.3023545328 c 0
 213.050375152 91.3023545328 252.060716289 136.966436357 285 265 c 1
 285.81208364 269.150649714 286.160088875 273.097756269 286.160088875 276.867032074 c 0
 286.160088875 299.468770652 273.647313785 315.676478507 273.647313785 331.033790173 c 0
 273.647313785 341.499312537 279.458236006 351.569911626 299 363 c 0
 330 382 316 381 377 396 c 1
 404.155833744 297.842975945 417.948780753 197.525485172 417.948780753 107.021311043 c 0
 417.948780753 -78.4460591831 360.025270027 -222.702384985 240.477189322 -222.702384985 c 0
 212.132239842 -222.702384985 180.322953938 -214.592755269 145 -197 c 1
 129.861798079 -196.158988782 74.4075036514 -162.074883743 74.4075036514 -114.972487093 c 0x9980
 74.4075036514 -106.068024796 76.3893253174 -96.6983157118 81 -87 c 1
 81 -87 81 -84 68 -77 c 0
 62 -73 61 -72 61 -72 c 2
 62 -70 69 -76 69 -75 c 0
 68 -71 61 -61 62 -61 c 0
 67 -66 63 -63 69 -71 c 0
 76 -82 83 -83 84 -83 c 0
 89.3452659978 -80.3273670011 96.2543768739 -78.9649824137 103.893153815 -78.9649824137 c 0
 133.410282784 -78.9649824137 173.822348615 -99.3072934569 177 -143 c 1
 177 -143 187 -142 199 -145 c 0
 204.850713841 -146.659157656 210.876814094 -147.502387219 216.997062242 -147.502387219 c 0
 277.68305481 -147.502387219 347.62560412 -64.5966317787 347.62560412 127.830972119 c 0
 347.62560412 138.232568339 347.421239037 148.954176365 347 160 c 1
 337 90 326 24 270 7 c 1
 247.717712746 3.32398814338 227.239299487 1.59577639813 208.468893802 1.59577639813 c 0
 81.0578076148 1.59577639813 32.3434919031 81.223457838 32.3434919031 171.802028107 c 0
 32.3434919031 291.267091634 117.083308658 429.781510553 217.774803466 429.781510553 c 0xda80
 228.366714864 429.781510553 239.135136328 428.248807274 250 425 c 1
 272.233860537 421.489390442 298.575847564 405.312057537 327.022901621 405.312057537 c 0
 347.194847056 405.312057537 368.42528284 413.446501957 390 440 c 1x9680
130 -103 m 4xb080
 127 -103 124 -104 123 -107 c 4
 120 -111 121 -118 125 -122 c 4
 130 -126 136 -126 139 -121 c 4xd080
 142 -117 141 -110 137 -106 c 4
 135 -104 132 -103 130 -103 c 4xb080
106 -121 m 4
 101 -121 97 -126 97 -133 c 4xd180
 97 -139 101 -144 106 -144 c 4
 111 -144 115 -139 115 -133 c 4
 115 -126 111 -121 106 -121 c 4
EndSplineSet
Validated: 1
EndChar

StartChar: h
Encoding: 73 104 73
Width: 383
GlyphClass: 1
Flags: W
HStem: 268.094 112.404<171.741 253.589> 680 20G<27 48.5>
VStem: 8.72788 128.239<22.9784 55.4475 58.5719 215.057> 31 68.9927<345.381 651.792> 301.447 20.5531<37.4385 69.9019> 368 13.0773<49.1945 82.0234>
LayerCount: 2
Fore
SplineSet
36 700 m 1xdc
 61 699 69 686 75 676 c 1
 85 657 90 640 94 620 c 1
 98.332424631 587.867850654 99.9927449894 559.352818067 99.9927449894 533.28429178 c 0xdc
 99.9927449894 447.728266822 82.1089315926 388.524302134 82.1089315926 314.290085319 c 0
 82.1089315926 285.843365965 84.7350617324 255.189544734 92 220 c 1
 110.743885695 334.025304644 160.290426204 380.498252444 211.164176677 380.498252444 c 0
 280.330146271 380.498252444 351.949339056 294.597365375 351.949339056 175.768591752 c 0
 351.949339056 158.176777069 350.379672249 139.863286972 347 121 c 1
 360.430889689 110.926832733 381.077331291 83.7167296722 381.077331291 49.9693622629 c 0
 381.077331291 33.4633686649 376.138220622 15.393508871 363 -3 c 1
 366 -9 377 -9 376 -11 c 1
 372 -15 378 -16 385 -28 c 1
 384 -28 l 1
 380 -23 379 -22 377 -20 c 1
 370 -27 l 1
 368 -27 l 1
 376 -19 l 2
 375 -17 371 -14 372 -12 c 1
 374 -8 361 -10 358 -4 c 1
 324.834867272 -1.78899115148 301.446854801 37.3578053326 301.446854801 75.8102756816 c 0
 301.446854801 89.5319117928 304.425073738 103.165132728 311 115 c 1
 285.29955912 226.0259046 247.709890335 268.094287349 213.30520799 268.094287349 c 0
 180.775858919 268.094287349 151.09374429 230.4870477 137 178 c 1
 136.977606797 177.440169928 136.966747072 176.849751069 136.966747072 176.229709133 c 0
 136.966747072 156.241678065 148.252141817 105.469433046 148.252141817 56.2644390156 c 0
 148.252141817 38.83353895 146.835898043 21.5993187085 143 6 c 1
 131.5 0 115.75 -5.75 97.125 -5.75 c 0
 78.5 -5.75 57 0 34 17 c 1
 14.9887786208 47.1011005171 8.72788234375 106.116324101 8.72788234375 176.104308704 c 0xec
 8.72788234375 311.150866437 32.0386497593 487.051555708 32.0386497593 574.911544927 c 0
 32.0386497593 585.223201756 31.7175565044 594.322145403 31 602 c 1
 31.0986431171 604.959293513 31.146471586 607.760737268 31.146471586 610.411227916 c 0
 31.146471586 642.623199949 24.082181051 652.539317171 15.3138987308 652.539317171 c 0
 2.86157157999 652.539317171 -13.0274387036 632.540070053 -17 628 c 1
 -11 660 18 699 36 700 c 1xdc
360 83 m 5
 359 83 359 83 359 83 c 5
 354 82 352 74 354 65 c 5
 356 56 359 48 363 49 c 4
 368 50 370 58 368 67 c 4
 367 75 364 83 360 83 c 5
329 70 m 5
 329 70 329 70 328 70 c 4
 323 68 320 60 322 51 c 4
 324 42 329 36 335 37 c 4
 340 38 343 46 341 55 c 4
 339 63 334 70 329 70 c 5
EndSplineSet
Validated: 1
EndChar

StartChar: i
Encoding: 74 105 74
Width: 161
GlyphClass: 1
Flags: W
HStem: 384 20G<58.2823 81.4852> 427.695 38.3051<44.6453 88.9552> 490 20<42.625 58.8617 72.2815 88.6659>
VStem: 22.9148 19.0852<467.019 488.362> 28.2181 100.527<111.112 315.177> 34.6982 21.3018<24.0686 51.7741> 59 13<467.343 488.491> 75 12<26.6357 51.1805> 89 19.9329<466.032 488.7> 109 23.9874<25.1985 52.7727>
LayerCount: 2
Fore
SplineSet
81 489 m 0xe280
 76 489 72 484 72 477 c 0
 72 471 76 466 81 466 c 0
 85 466 89 471 89 477 c 0
 89 484 85 489 81 489 c 0xe280
85 506 m 1
 86 506 l 1
 100.614474131 498.344799265 108.932855056 483.909190463 108.932855056 469.097084707 c 0
 108.932855056 462.625207332 107.344799265 456.081453209 104 450 c 0
 96.9198719845 435.839743969 81.8192299347 427.694873464 66.1512712777 427.694873464 c 0
 59.6897449554 427.694873464 53.1317311675 429.080128015 47 432 c 0
 31.8238336723 439.22674587 22.9147700495 453.765111563 22.9147700495 469.198906278 c 0xf080
 22.9147700495 475.121604501 24.2267458703 481.176166328 27 487 c 0
 34 501 49 510 65 510 c 0
 72 510 78 509 85 506 c 1
51 490 m 0
 46 490 42 485 42 478 c 0
 42 472 46 467 51 467 c 0
 55 467 59 472 59 478 c 0xf2
 59 485 55 490 51 490 c 0
76 -25 m 1
 74 -25 l 1
 80 -16 l 2
 79 -14 76 -11 77 -9 c 0
 80 -6 82 -3 82 1 c 0
 59.1545038343 4.80758269428 34.6981536716 20.2938568674 34.6981536716 41.0698018921 c 0xe540
 34.6981536716 53.032652097 42.8066327114 66.7492875128 64 81 c 1
 37.0060161285 132.025213416 28.2180744585 174.92272942 28.2180744585 212.65354174 c 0
 28.2180744585 283.066079115 58.8232478555 335.484885072 58.8232478555 389.154121671 c 0
 58.8232478555 394.08720192 58.5646765253 399.030846577 58 404 c 1
 104.970313487 339.167736314 128.745001403 275.210779253 128.745001403 201.706006584 c 0xe8
 128.745001403 164.101474842 122.52251269 123.998017559 110 80 c 1
 123.90963488 72.8208336101 132.987354443 58.3937942438 132.987354443 43.6747739626 c 0
 132.987354443 25.5899404664 119.28333444 7.06432310693 84 1 c 1
 83 -4 80 -9 79 -10 c 1
 78 -11 81 -16 88 -20 c 1
 87 -21 l 2xe140
 84 -19 82 -18 81 -17 c 1
 76 -25 l 1
98 53 m 4
 92 53 87 47 87 39 c 4
 87 31 92 25 98 25 c 4
 104 25 109 31 109 39 c 4
 109 47 104 53 98 53 c 4
66 52 m 4
 60 52 56 46 56 38 c 4
 56 31 60 24 66 24 c 4
 71 24 75 31 75 38 c 4
 75 46 71 52 66 52 c 4
EndSplineSet
Validated: 1
EndChar

StartChar: j
Encoding: 75 106 75
Width: 374
GlyphClass: 1
Flags: W
HStem: -211.129 79.7458<127.734 221.278> 70 42<31.4778 48.9693 61.0029 78.9872> 423.084 34.9162<180.002 225.813> 480 16<180.198 225.456>
VStem: 14.2141 16.7859<40.1015 69.3663> 48 1<112 112.466> 49 12<42.049 69.1534> 79 14.6799<41.4437 72.5253> 164.307 15.6934<459.227 478.312> 198 10<460.217 478.783> 226 14.8909<458.251 479.594> 262.958 92.1323<-80.1572 113.646>
LayerCount: 2
Fore
SplineSet
217 480 m 0xf9f0
 212 480 208 475 208 469 c 0
 208 463 212 458 217 458 c 0
 222 458 226 463 226 469 c 0
 226 475 222 480 217 480 c 0xf9f0
220 492 m 1
 233.453885627 485.627106808 240.89091679 472.735954613 240.89091679 459.362294382 c 0
 240.89091679 453.849251439 239.627106808 448.254213616 237 443 c 0
 229.948321907 430.306979433 216.432242505 423.083836898 202.763514006 423.083836898 c 0
 197.04858897 423.083836898 191.306979433 424.346510283 186 427 c 0
 172.289252564 433.494564575 164.306567587 446.237924561 164.306567587 459.969294083 c 0
 164.306567587 465.266502116 165.494564575 470.710747436 168 476 c 0
 175 488 188 496 202 496 c 0
 208 496 215 495 220 492 c 1
189 481 m 0
 184 481 180 476 180 470 c 0
 180 464 184 459 189 459 c 0
 194 459 198 464 198 470 c 0
 198 476 194 481 189 481 c 0
198 377 m 1
 198 377 226 327 240 305 c 0
 323.199557204 174.25783868 355.0901062 70.544127688 355.0901062 -8.57919653866 c 0
 355.0901062 -148.064910411 255.981263611 -211.12908725 164.151023732 -211.12908725 c 0
 84.8860979461 -211.12908725 11.0441607664 -164.142553427 11.0441607664 -78.7597525892 c 0
 11.0441607664 -54.8000657377 16.8588239447 -27.8168753255 30 2 c 1
 18.6158011252 20.2147181997 14.2141320017 38.1120486834 14.2141320017 54.0058291743 c 0
 14.2141320017 86.9764723726 33.1557821499 111.325262825 48 112 c 1
 52 117 50 121 45 125 c 0
 44 126 46 128 47 129 c 1
 41 135 l 1
 42 135 l 1
 47 130 l 1
 48 131 50 132 52 133 c 2
 53 132 l 1
 48 130 45 126 46 125 c 0
 49 124 54 117 49 112 c 1xfdf0
 69.3926331803 111.342173123 93.679892159 86.0183828567 93.679892159 53.6778903741 c 0
 93.679892159 36.8557632922 87.1086561608 18.1351755305 70 0 c 1
 88.832939835 -83.6617134978 134.94892758 -131.383258114 177.374346383 -131.383258114 c 0
 222.228676782 -131.383258114 262.957761657 -78.0410522199 262.957761657 42.5662923276 c 0
 262.957761657 122.861001133 244.905525928 232.969444841 198 377 c 1
70 73 m 4
 65 73 61 66 61 57 c 4xfbf0
 61 48 65 41 70 41 c 4
 75 41 79 48 79 57 c 4
 79 66 75 73 70 73 c 4
40 70 m 4
 35 70 31 64 31 55 c 4
 31 47 35 40 40 40 c 4
 45 40 49 47 49 55 c 4
 49 64 45 70 40 70 c 4
EndSplineSet
Validated: 1
EndChar

StartChar: k
Encoding: 76 107 76
Width: 337
GlyphClass: 1
Flags: W
HStem: -13 1<334 346> 368.507 30.4986<247.223 293.019>
VStem: 27.4894 72.5106<174.705 185 230.86 550.448> 42.0589 8.94107<36.2245 67.5621> 71 13<34.5625 63.4279> 107 18.7654<32.5658 64.4137> 225.77 102.848<22.3933 71.1426> 329 2<-21 -19.1457>
LayerCount: 2
Fore
SplineSet
75 681 m 1xe7
 91.6666666667 559.333333333 100 442.527777778 100 330.00462963 c 0xe7
 100 307.5 99.6666666667 285.166666667 99 263 c 1
 85 246 74 225 72 215 c 1
 104 185 l 1
 107 124 l 1
 117.666666667 105.777777778 125.765432099 83.4074074074 125.765432099 62.244170096 c 0
 125.765432099 35.7901234568 113.111111111 11.2222222222 77 -1 c 1
 76 -7 79 -6 84 -11 c 0
 86 -13 83 -17 81 -19 c 1
 90 -28 l 1
 88 -28 l 1
 81 -20 l 2
 79 -21 77 -23 74 -25 c 2
 72 -24 l 1
 81 -19 84 -13 82 -11 c 0
 80 -10 72 -7 74 0 c 1
 52.3042482665 10.013423877 42.05892967 33.3341078863 42.05892967 60.148976483 c 0xdf
 42.05892967 81.536165511 48.576437142 105.146162346 61 126 c 1
 38.4454464563 209.000757041 27.4894327033 275.315895435 27.4894327033 347.800984235 c 0
 27.4894327033 436.004265213 43.7121910398 533.343498065 75 681 c 1xe7
270 399 m 0
 289.518001459 399 309.036002918 366.619047619 309.036002918 333.457716648 c 0
 309.036002918 332.638795039 309.024099927 331.81939752 309 331 c 1
 300.621661078 357.859968898 289.571480654 368.506717772 276.837058448 368.506717772 c 0
 237.894130402 368.506717772 183.200382952 268.939648151 141 229 c 1
 181 204 221 173 263 110 c 1
 314.666416041 92.3578091567 328.617965645 71.1426309667 328.617965645 47.1048859617 c 0
 328.617965645 32.9922183497 323.808982823 17.9066354906 319 2 c 0
 322 -1 326 -3 331 -4 c 0
 334 -5 334 -9 334 -12 c 2
 346 -15 l 1
 345 -16 l 1
 333 -13 l 1
 333 -15 332 -18 331 -21 c 2
 329 -21 l 1
 333 -13 333 -6 330 -5 c 0
 328 -6 323 -4 319 0 c 1
 319 0 319 0 318 0 c 0
 299.587847222 13.5668494153 225.77005781 -3.85589454122 225.77005781 75.1351459229 c 0
 225.77005781 77.6571032557 225.845303363 80.2773391817 226 83 c 1
 172 118 125 170 76 216 c 1
 83.9717466636 258.848138317 207.125593402 399.005292215 269.340797853 399.005292215 c 0
 269.561299981 399.005292215 269.781036643 399.003531667 270 399 c 0
298 84 m 4
 297 84 297 84 296 84 c 4
 290 82 287 74 290 64 c 4
 292 55 299 48 305 50 c 4
 311 51 314 60 311 70 c 4
 309 78 303 85 298 84 c 4
61 71 m 0
 55 71 51 62 51 52 c 0
 51 42 55 33 61 33 c 0
 66 33 71 42 71 52 c 0xdf
 71 62 66 71 61 71 c 0
95 65 m 0
 89 65 84 58 84 48 c 0
 84 39 89 32 95 32 c 0
 102 32 107 39 107 48 c 0
 107 58 102 65 95 65 c 0
267 61 m 4
 265 61 263 60 262 59 c 4
 256 55 255 45 261 37 c 4
 266 29 275 25 282 29 c 4
 288 33 288 43 283 52 c 4
 279 58 272 61 267 61 c 4
EndSplineSet
Validated: 1
EndChar

StartChar: l
Encoding: 77 108 77
Width: 166
GlyphClass: 1
Flags: W
HStem: -32 21G<77 78> -1 43<75.0029 95.9407> 677 20G<71.0581 89.3213>
VStem: 21.5102 113.451<181.134 511.619> 23.7679 17.2321<42.659 74.5544> 63 12<43.9287 73.1018> 96 19.7381<41.2844 75.7879>
LayerCount: 2
Fore
SplineSet
73 -24 m 1xe2
 78 -31 l 1
 77 -32 l 1
 77 -32 74 -27 72 -25 c 1
 70 -24 63 -31 63 -31 c 1
 63 -31 63 -31 62 -30 c 1
 68 -25 72 -21 70 -19 c 0
 69 -17 62 -8 66 -1 c 1
 45.0733455707 8.23234754235 23.7678634029 36.0272542669 23.7678634029 69.560665928 c 0xee
 23.7678634029 90.5097325976 32.0829206609 113.698410497 54 136 c 1
 30 212 21.5102040816 278.285714286 21.5102040816 337.655976676 c 0
 21.5102040816 481.249169435 71.1725256896 584.389399676 71.1725256896 686.674531802 c 0
 71.1725256896 690.116819903 71.1162790698 693.558139535 71 697 c 1
 107.642653399 591.957726922 134.96111202 472.742677781 134.96111202 353.47693306 c 0xf0
 134.96111202 277.452653193 123.860948591 201.407774463 97 129 c 1
 108.429933791 115.876742684 115.738059779 92.5385703776 115.738059779 69.1513553812 c 0
 115.738059779 37.2928606079 102.17681625 5.34336030737 67 -1 c 1
 64 -8 67 -13 72 -19 c 0
 73 -20 73 -20 73 -21 c 1
 73 -24 l 1xe2
85 41 m 0
 91 41 96 49 96 58 c 0
 96 68 91 76 85 76 c 0
 79 76 75 68 75 58 c 0
 75 49 79 41 85 41 c 0
52 42 m 0
 58 42 63 49 63 59 c 0
 63 68 58 75 52 75 c 0
 46 75 41 68 41 59 c 0
 41 49 46 42 52 42 c 0
EndSplineSet
Validated: 1
EndChar

StartChar: m
Encoding: 78 109 78
Width: 535
GlyphClass: 1
Flags: W
HStem: 71 22.7802<465.439 496.988> 305.253 96.0498<128.471 180.391 317.03 380.034>
VStem: 58.2802 19.1363<244.759 349.044> 190.823 73.1766<2.58992 209.769> 405.817 71.8829<129.516 275.864> 538 2<79.0462 81>
LayerCount: 2
Fore
SplineSet
537 79 m 1
 538 80 538 80 538 81 c 1
 537 83 l 1
 533 87 530 90 529 90 c 2
 518 94 l 2
 518 94 518 95 518 96 c 1
 528 92 l 1
 532 103 l 1
 534 103 l 1
 530 91 l 1
 538 88 543 81 540 77 c 1
 538 75 l 1
 533.932114766 18.0496067193 473.785945806 0.170148821307 421.135925574 0.170148821307 c 0
 396.128857861 0.170148821307 372.81287987 4.203655703 358 10 c 1
 392.572030515 67.860134403 405.817220812 128.025873154 405.817220812 178.831409947 c 0
 405.817220812 251.658724629 378.60119506 305.252831497 347.973135309 305.252831497 c 0
 310.97114853 305.252831497 268.989217673 227.030968757 264 10 c 1
 252.944852754 2.37576052025 242.616318354 -0.1621890406 232.571207172 -0.1621890406 c 0
 216.265857541 -0.1621890406 200.707276702 6.52484789595 184 9 c 1
 187.683014193 96.6557378025 190.823444645 158.945685669 190.823444645 202.864046279 c 0
 190.823444645 278.191385805 181.584929033 299.473205677 150 302 c 0
 149.878566162 302.002168461 149.757532013 302.003250709 149.636896247 302.003250709 c 0
 116.095775921 302.003250709 113.351398857 218.341001052 113.351398857 136.269395884 c 0
 113.351398857 120.211183235 113.456462471 104.213865593 113.456462471 88.9160327353 c 0
 113.456462471 53.0006287465 112.877361859 20.9407181302 109 1 c 1
 15 1 l 1
 35.9960948912 105.980474456 58.2802423775 207.096791127 58.2802423775 282.421322029 c 0
 58.2802423775 339.836124695 45.3331899767 382.265942988 9 400 c 1
 71.0816326531 386.469387755 77.4164931279 357.735110371 77.4164931279 346.570374589 c 0
 77.4164931279 343.707621824 77 342 77 342 c 1
 92.6274834121 384.789537914 115.731035328 403.351076047 139.562415058 403.351076047 c 0
 179.779604266 403.351076047 222.069575829 350.489632702 234 272 c 1
 235.693471422 351.169788979 301.375744606 401.302642704 364.116603395 401.302642704 c 0
 422.167411719 401.302642704 477.700126621 358.384783404 477.700126621 255.839240801 c 0
 477.700126621 207.432411052 465.325599474 145.738559644 435 69 c 1
 445.403581298 83.0754335214 461.050356554 93.780242356 484.003065059 93.780242356 c 0
 498.556291615 93.780242356 516.046670007 89.4766649966 537 79 c 1
497 66 m 4
 497 70 481 72 480 71 c 4
 471 69 464 60 464 56 c 4
 464 51 478 54 484 56 c 6
 484 56 497 62 497 66 c 4
EndSplineSet
Validated: 1
EndChar

StartChar: n
Encoding: 79 110 79
Width: 362
GlyphClass: 1
Flags: W
HStem: 1.90073 32.0993<280.838 327.655> 47 18.2558<302.13 323.906> 326.046 75.9098<155.565 252.481> 397.61 20G<59.3007 71.8991>
VStem: 18.0096 101.622<47.6616 287.611> 264.801 79.2556<143.642 316.182>
LayerCount: 2
Fore
SplineSet
364 48 m 0xec
 362 40 361 26 361 25 c 0
 356.736232227 10.6097837648 320.942020165 1.90072866249 288.286749764 1.90072866249 c 0
 259.671759426 1.90072866249 233.467029028 8.58804206529 233 24 c 1
 255.698567857 131.061578392 264.800920891 199.767519178 264.800920891 244.03255103 c 0
 264.800920891 316.77498537 240.219455179 323.513237857 211 326 c 1
 209.962851149 326.030504378 208.936519558 326.045655224 207.920910317 326.045655224 c 0xec
 139.304400589 326.045655224 119.631264885 256.887906236 119.631264885 181.079412519 c 0
 119.631264885 110.875740831 136.50291288 34.9684016825 147 3 c 1
 146.900713132 3.02482171707 146.762610852 3.03670496374 146.587405988 3.03670496374 c 0
 142.641318479 3.03670496374 119.874119455 -2.9913363437 97.855102436 -2.9913363437 c 0
 81.4654225289 -2.9913363437 65.4902691682 0.348470182835 58 12 c 0
 28.6922390604 54.9149356616 18.0095578044 122.419845807 18.0095578044 190.135389809 c 0
 18.0095578044 303.577159812 47.9907925569 417.610079445 70.6105774756 417.610079445 c 0xdc
 73.1876809227 417.610079445 75.6692300956 416.129891015 78 413 c 0
 92.0520768953 393.327092347 94.6953038087 334.162011679 94.9732623277 334.162011679 c 0
 94.9920128159 334.162011679 95 334.431246137 95 335 c 0
 97.0739366399 364.864687615 163.838119604 401.955413383 227.711268 401.955413383 c 0
 287.135043055 401.955413383 344.056531147 369.852151598 344.056531147 269.959963931 c 0
 344.056531147 218.364284227 328.870654334 148.6834435 291 56 c 1
 296.378151261 56 305.227243839 65.2558435139 317.858398525 65.2558435139 c 0
 328.713297084 65.2558435139 342.361344538 58.4201680672 359 33 c 0
 359 32 362 36 362 48 c 0
 362 55 358 51 356 63 c 1
 356 63 360 52 364 52 c 0
 368 53 372 64 371 60 c 0
 368 48 366 56 364 48 c 0xec
324 46 m 4
 322 47 319 47 316 47 c 4
 309 48 303 45 302 42 c 4
 302 38 307 35 315 34 c 4
 322 34 328 36 328 40 c 4
 328 42 327 44 324 46 c 4
EndSplineSet
Validated: 1
EndChar

StartChar: o
Encoding: 80 111 80
Width: 385
GlyphClass: 1
Flags: W
HStem: -0.97866 75.5598<140.878 251.94> 337.735 32.2647<141.064 165.817> 385 15<141.101 173>
VStem: 17.7073 59.1165<138.419 257.795> 293.257 67.2888<116.803 273.342>
LayerCount: 2
Fore
SplineSet
170 400 m 1
 176 400 184 399 191 397 c 0
 306.462938808 361.187965503 360.545737253 266.664492399 360.545737253 178.399463566 c 0
 360.545737253 123.713338009 339.785317454 71.4296016432 300 37 c 1
 291.886409274 23.2693080015 240.535130105 -0.978659563894 183.142541511 -0.978659563894 c 0
 148.577860273 -0.978659563894 111.821966188 7.81619835892 81 33 c 0
 40.6357897535 66.4048636523 17.7072813136 114.231851021 17.7072813136 167.392863859 c 0
 17.7072813136 228.813756344 48.31433715 297.354990556 118 359 c 1
 96.8812778459 321.913463534 76.8238297559 268.907816108 76.8238297559 217.749263644 c 0
 76.8238297559 169.58832908 94.59962313 123.064371377 146 93 c 0
 165.362401389 82.0105289414 179.795477303 74.5811262817 196.321352881 74.5811262817 c 0
 211.375103409 74.5811262817 228.165407282 80.7458606607 252 96 c 0
 277.364159095 113.332175381 293.256915403 154.789622009 293.256915403 199.597372602 c 0
 293.256915403 260.784266877 263.621585977 328.218495457 188 349 c 1
 178.632265805 340.881297031 170.142076049 337.735345886 162.285857309 337.735345886 c 0
 144.982677065 337.735345886 130.75484387 352.996124904 117 364 c 0
 112 365 108 362 103 358 c 0
 102 356 98 359 96 360 c 2
 88 353 l 1
 88 354 l 1
 96 361 l 1
 94 362 93 364 91 367 c 2
 91 368 l 1
 96 361 101 358 103 359 c 1
 104 362 111 366 117 366 c 1
 128 388 146 400 170 400 c 1
153 385 m 4
 147 385 141 382 141 377 c 4
 141 373 147 370 153 370 c 4
 160 370 166 373 166 377 c 4
 166 382 160 385 153 385 c 4
EndSplineSet
Validated: 1
EndChar

StartChar: p
Encoding: 81 112 81
Width: 487
GlyphClass: 1
Flags: W
HStem: -339 21G<163 170> 0.189453 63.0489<131.206 289.709> 104 14.2452<70.4332 94.0713> 393 8<75.2661 299.247> 403 21G<141.903 190>
VStem: 124.364 8.63561<-265.077 -240.718> 127.053 73.3004<83.7762 367.364> 141.713 41.2872<205.923 372.123> 141.713 32.9169<403.958 448.127> 146 9<-264.395 -241.605> 164 2<-327.821 -322.169> 172 18.1713<-265.549 -240.092> 394.866 72.0375<143.486 282.996>
LayerCount: 2
Fore
SplineSet
183 477 m 1xf908
 177.445767933 456.919314835 174.629656622 444.322826403 174.629656622 434.921054213 c 0
 174.629656622 422.317437181 179.69047517 415.455027589 190 404 c 1
 142 403 l 1
 141.805604632 405.041151361 141.712768704 407.018532841 141.712768704 408.935473148 c 0xf888
 141.712768704 446.462688952 177.291593052 460.826180313 183 477 c 1xf908
175 401 m 0
 385.786256125 401 466.903251265 299.31691045 466.903251265 198.604093424 c 0
 466.903251265 118.710045773 415.856134714 39.4265929107 338 12 c 1
 307.186163549 4.40206772442 269.601691775 0.189453110641 233.895598265 0.189453110641 c 0
 185.011613862 0.189453110641 139.648350146 8.08532780794 120 26 c 1
 114.829983148 25.32856924 109.980047974 25.0132856997 105.424162802 25.0132856997 c 0
 42.1266601981 25.0132856997 35.5899954039 85.872859988 16 98 c 1
 11 102 7 98 2 92 c 0
 1 90 -2 93 -4 95 c 1
 -11 86 l 1
 -11 87 l 1
 -4 96 l 1
 -6 97 -7 100 -8 103 c 2
 -8 105 l 1
 -4 96 -0 92 2 94 c 0
 3 97 12 105 18 99 c 1
 44.7244828629 110.776890753 64.4731738654 118.245204181 80.8704761836 118.245204181 c 0
 100.673718577 118.245204181 115.5887201 107.352133167 132 80 c 1
 145.92 68.48 167.5008 63.2384 192.443136 63.2384 c 0
 271.4272 63.2384 384.12 115.8 394 188 c 1
 394.57494049 194.690216612 394.865766245 201.1646153 394.865766245 207.431477747 c 0
 394.865766245 321.064827772 299.246774583 366.463484884 68 393 c 1
 107 399 142 401 175 401 c 0
140 379 m 1
 156 377 167 374 186 371 c 1
 194.784609691 293.402614398 200.353829072 217.41292395 200.353829072 144.992452884 c 0
 200.353829072 118.48472072 199.607695155 92.455173281 198 67 c 1
 195.218073021 66.808142967 192.518966565 66.717511017 189.90179787 66.717511017 c 0
 165.236477582 66.717511017 147.848857802 74.7674281321 137 82 c 1
 130.039645117 119.846929674 127.053420477 160.532523807 127.053420477 203.315853197 c 0xfa08
 127.053420477 258.879990536 132.090310522 317.982395457 140 379 c 1
79 104 m 0
 74 103 71 102 70 99 c 0
 69 94 73 89 81 87 c 0
 88 84 95 86 96 90 c 0
 98 95 93 100 86 103 c 0
 84 103 81 104 79 104 c 0
130 7 m 1
 130 13 l 1
 143.10347058 4.5763403412 174.60347058 -2.09526889667 193.342794159 -2.09526889667 c 0
 194.624924324 -2.09526889667 195.847319318 -2.06403781569 197 -2 c 1
 180 -189 l 1
 186.586943713 -214.185373022 190.171269608 -232.014332388 190.171269608 -246.500663818 c 0
 190.171269608 -269.401570691 181.21357985 -283.948821981 161 -306 c 0
 159 -313 162 -317 166 -323 c 0
 167 -324 165 -328 164 -330 c 2
 170 -339 l 1
 169 -339 l 1
 163 -331 l 1
 162 -333 160 -334 158 -336 c 1
 157 -335 l 1
 163 -331 166 -325 164 -323 c 0
 162 -322 158 -313 159 -306 c 1
 134.973564434 -290.554434279 124.364392953 -270.527363748 124.364392953 -246.667613102 c 0xfc38
 124.364392953 -228.818741411 130.301449742 -208.825042527 141 -187 c 1
 130 7 l 1
163 -240 m 4
 159 -240 155 -246 155 -253 c 4xf858
 155 -260 159 -266 163 -266 c 4
 168 -266 172 -260 172 -253 c 4
 172 -246 168 -240 163 -240 c 4
139 -240 m 4
 136 -240 133 -246 133 -253 c 4xfc48
 133 -260 136 -266 139 -266 c 4
 143 -266 146 -260 146 -253 c 4
 146 -246 143 -240 139 -240 c 4
EndSplineSet
Validated: 1
EndChar

StartChar: q
Encoding: 82 113 82
Width: 510
GlyphClass: 1
Flags: W
HStem: 7 59<188.278 301> 374 23<274.459 322.844> 374 14<353.142 389.162> 415 20G<314 331.5>
VStem: 15 68<144.168 263.703> 283 13<-321.422 -292.468> 316 15<-319.638 -291.637> 349 16<-319.46 -289.395>
LayerCount: 2
Fore
SplineSet
331 435 m 1x9f
 332 432 333 427 333 426 c 1
 346 361 360 -26 360 -26 c 1
 359 -43 l 1
 343 -243 l 1
 356 -267 365 -287 365 -306 c 0
 365 -332 353 -354 325 -371 c 1
 327 -379 321 -389 319 -390 c 0
 316 -391 323 -400 328 -405 c 1
 326 -406 l 2
 326 -406 321 -398 320 -398 c 1
 314 -407 l 1
 312 -407 l 1
 319 -397 l 17
 317 -395 316 -390 317 -389 c 0
 323 -383 323 -378 323 -371 c 1
 299 -346 283 -329 283 -303 c 0
 283 -288 289 -269 301 -244 c 1
 306 17 297 113 331 435 c 1x9f
291 397 m 0xdf
 315 397 l 0
 318 397 321 397 325 397 c 1
 324 391 323 382 322 374 c 1
 249 365 83 306 83 201 c 0
 83 196 84 190 85 184 c 0
 97 116 207 66 292 66 c 0
 296 66 299 66 302 66 c 1
 301 45 302 28 301 9 c 1
 288 8 272 7 258 7 c 0
 224 7 188 11 152 19 c 0
 59 46 15 112 15 182 c 0
 15 286 112 397 291 397 c 0xdf
341 374 m 1xbf
 339 396 l 0
 339 396 409 391 438 388 c 1
 404 383 370 378 341 374 c 1xbf
428 111 m 0
 447 110 469 103 498 93 c 1
 505 98 514 91 516 88 c 0
 518 86 523 90 528 98 c 1
 529 97 l 1
 526 93 526 92 524 90 c 1
 531 82 l 1
 531 80 l 1
 523 89 l 1
 521 87 518 85 516 86 c 0
 509 91 505 94 499 91 c 1
 477 80 471 24 400 24 c 0
 394 24 388 24 382 25 c 1
 376 20 371 14 362 10 c 1
 361 29 360 49 359 69 c 1
 363 71 365 73 369 75 c 1
 388 93 405 111 428 111 c 0
422 99 m 0
 413 97 407 91 408 87 c 0
 409 83 417 82 425 84 c 0
 434 86 440 91 439 95 c 0
 438 99 430 101 422 99 c 0
443 75 m 0
 440 75 436 75 433 74 c 0
 424 71 419 64 420 60 c 0
 422 55 430 54 439 57 c 0
 447 60 453 66 451 71 c 0
 450 74 447 75 443 75 c 0
306 -291 m 0
 301 -291 296 -299 296 -307 c 0
 296 -316 301 -323 306 -323 c 0
 312 -323 316 -316 316 -307 c 0
 316 -299 312 -291 306 -291 c 0
340 -289 m 0
 335 -289 331 -296 331 -304 c 0
 331 -313 335 -320 340 -320 c 0
 345 -320 349 -313 349 -304 c 0
 349 -296 345 -289 340 -289 c 0
EndSplineSet
Validated: 33
EndChar

StartChar: r
Encoding: 83 114 83
Width: 336
GlyphClass: 1
Flags: W
HStem: 350.261 68.3496<161.8 248.854> 371.762 18.8293<25.1753 44.5166>
VStem: 69.2087 71.3366<112.214 327.855> 251.138 60.566<202.43 271.438> 259.944 44.4963<275.286 367.501>
LayerCount: 2
Fore
SplineSet
320 180 m 1xb0
 321 176 l 1
 320 176 l 1
 319 179 l 1
 318 181 l 1
 318 180 316 176 316 176 c 2
 315 176 l 1
 316 179 317 181 317 182 c 1
 317 183 317 183 317 184 c 1
 316 185 l 1
 314 185 311 186 310 188 c 0
 260.131147541 195.032786885 251.138403655 229.452566514 251.138403655 253.36517594 c 0xb0
 251.138403655 266.854340231 254 277 254 277 c 1
 258.113442782 284.471355258 259.943581386 291.956804986 259.943581386 299.136885202 c 0
 259.943581386 326.998092625 232.387005227 350.261321396 203.750855854 350.261321396 c 0xa8
 172.779485997 350.261321396 140.545289627 323.049251215 140.545289627 245.011021614 c 0
 140.545289627 192.29421676 155.254866851 116.383679746 195 10 c 1
 186.385030063 -0.135258749522 157.738983491 -4.87753532826 123.377383311 -4.87753532826 c 0
 89.9329194731 -4.87753532826 51.073934939 -0.385030062906 20 8 c 1
 50.6938001078 35.0521628069 69.2086512275 141.673459003 69.2086512275 232.543760963 c 0
 69.2086512275 307.513637157 56.6063496257 371.762456045 27.8437711323 371.762456045 c 0
 24.4553927281 371.762456045 20.8427413334 370.870808281 17 369 c 1
 24.9730290251 384.627136889 34.3700079473 390.591756619 43.6663650197 390.591756619 c 0x68
 63.5193972294 390.591756619 82.913526966 363.389128653 87 345 c 1
 107.015815149 386.461331379 169.956579161 418.610901364 223.003094914 418.610901364 c 0
 267.147534859 418.610901364 304.439915724 396.346374826 304.439915724 338.655625239 c 0xa8
 304.439915724 320.204402976 300.625236464 298.129392818 292 272 c 1
 308.07513441 260.058471581 311.704402019 244.741792843 311.704402019 230.119163414 c 0
 311.704402019 218.080636045 309.244517194 206.512529032 309.244517194 197.68550529 c 0
 309.244517194 193.890051824 309.699309937 190.601380126 311 188 c 1
 314 187 315 186 317 185 c 1
 318 184 320 181 319 182 c 1
 320 180 l 1xb0
301 241 m 0
 300 242 299 242 298 242 c 0
 296 241 296 235 298 228 c 0
 299 222 303 217 305 219 c 0
 307 220 307 226 306 232 c 0
 305 236 303 240 301 241 c 0
EndSplineSet
Validated: 1
EndChar

StartChar: s
Encoding: 84 115 84
Width: 378
GlyphClass: 1
Flags: W
HStem: -1 59.1836<163.218 282.788> 24.0712 45.9288<84.4037 116.997> 73 1<28.7548 32> 388.198 16.4385<190.054 295.038>
VStem: 26.4816 76.7391<290.981 347.645> 286.83 90.6634<64.7658 137.717>
LayerCount: 2
Fore
SplineSet
5 88 m 1x7c
 11 84 l 1
 14 85 18 86 19 84 c 0
 22 78 26 74 32 74 c 1
 59.6845378827 95.2248123768 85.2400934383 104.953120187 106.702003604 104.953120187 c 0
 131.75394949 104.953120187 151.228179294 91.6980055527 162 68 c 1
 188.053980052 61.1661691666 209.770257767 58.1835693806 227.38835605 58.1835693806 c 0
 267.993308728 58.1835693806 286.829639818 74.0264789384 286.829639818 95.0783288999 c 0
 286.829639818 129.049764085 237.779124661 176.585476145 152 193 c 1
 61.3015581979 230.329262221 26.481552577 268.934287825 26.481552577 302.787752164 c 0
 26.481552577 360.653145327 128.214216572 404.636031093 226.514025075 404.636031093 c 0
 267.900777321 404.636031093 308.679012346 396.839506173 341 379 c 1
 322.304059876 385.231980041 296.895452428 388.197528215 269.624630312 388.197528215 c 0
 193.649456134 388.197528215 103.220660013 365.180357916 103.220660013 325.652092449 c 0
 103.220660013 297.407128855 149.392084384 260.731877405 280 218 c 1
 337.479402822 202.221340402 377.493071678 147.70050728 377.493071678 95.954333129 c 0
 377.493071678 55.8744008091 353.487843352 17.459057717 295 0 c 1
 248 -1 l 2xbc
 208 1 198 11 139 27 c 1
 129.792856849 25.0141455949 121.433102629 24.0712314128 113.732453028 24.0712314128 c 0
 78.7778377758 24.0712314128 57.4035012219 43.4991598713 32 73 c 1
 24 73 18 80 18 82 c 1
 17 85 11 83 5 77 c 1
 4 78 l 1
 6 80 8 81 9 82 c 1
 10 82 9 83 10 83 c 1
 4 87 l 1
 5 88 l 1x7c
108 70 m 4x7c
 113 71 117 74 117 77 c 4
 118 82 111 87 102 89 c 4
 93 90 85 87 84 82 c 4
 83 77 90 71 99 70 c 4
 102 69 105 70 108 70 c 4x7c
EndSplineSet
Validated: 1
EndChar

StartChar: t
Encoding: 85 116 85
Width: 440
GlyphClass: 1
Flags: W
HStem: -32 21G<202 206> 319.929 56.4551<78.0327 300.309> 327.642 40.3584<349.136 379.75> 359 2<426 436.407> 386 19.3791<349.205 379.398> 682 20G<188 214>
VStem: 150.334 25.6664<48.3215 84.573> 200 15<49.5809 81.0803> 236 24.5744<46.0894 81.921>
LayerCount: 2
Fore
SplineSet
210 -30 m 1x8f80
 206 -26 l 1
 203 -32 l 1
 202 -31 l 1
 204 -25 l 2
 205 -25 204 -24 204 -24 c 1
 203 -22 201 -19 201 -18 c 0
 206 -12 208 -7 205 1 c 1
 174.875618472 17.5388761331 150.333572122 35.8222320095 150.333572122 63.063001227 c 0
 150.333572122 81.9403316886 162.119212776 105.119212776 192 135 c 1
 163 314 l 1
 172.016915815 312.939186375 179.908506083 312.51136837 187.364913693 312.51136837 c 0
 208.024312409 312.51136837 225.342932847 315.795610219 254 318 c 1
 227 137 l 1
 250.542033372 103.31053845 260.574363565 79.1767206125 260.574363565 60.4524479267 c 0
 260.574363565 33.0461337336 239.081555136 17.228983314 207 0 c 1
 210 -7 205 -17 203 -18 c 0
 201 -19 205 -25 212 -29 c 1
 212 -30 210 -30 210 -30 c 1x8f80
188 85 m 4
 182 85 176 76 176 66 c 4
 176 56 182 48 188 48 c 4
 194 48 200 56 200 66 c 4
 200 76 194 85 188 85 c 4
225 82 m 4
 220 82 215 74 215 64 c 4
 215 54 220 46 225 46 c 4
 231 46 236 54 236 64 c 4
 236 74 231 82 225 82 c 4
458 368 m 1xaf80
 450 363 l 1
 451 362 453 358 453 358 c 2
 452 357 l 1
 452 358 450 361 448 363 c 1
 446 365 442 366 442 365 c 1
 440 361 433 357 426 359 c 1x9f80
 398.653589742 334.444039768 380.962577557 327.641553413 361.280675128 327.641553413 c 0xaf80
 345.696039467 327.641553413 328.863139715 331.906630037 305 335 c 1
 260.324195066 325.576197397 222.226764614 319.928869033 186.668364512 319.928869033 c 0
 120.348908809 319.928869033 62.8615815048 339.573348358 -12 391 c 1
 47.8849852473 382.616102065 85.1768383087 376.383931006 143.257123677 376.383931006 c 0xcf80
 182.16322835 376.383931006 230.397574035 379.180447492 301 386 c 1
 320.277075246 399.991425582 338.974120892 405.379078772 355.798677821 405.379078772 c 0
 393.086195275 405.379078772 421.176443979 378.916065219 426 361 c 1x9f80
 434 360 437 361 441 366 c 0
 443 367 445 366 447 365 c 1
 448 364 448 364 448 364 c 2
 456 368 l 1
 458 368 l 1xaf80
364 386 m 0
 356 386 349 382 349 377 c 0
 349 372 356 368 364 368 c 0xaf80
 373 368 380 372 380 377 c 0
 380 382 373 386 364 386 c 0
252 387 m 1
 222 383 204 383 158 382 c 1
 190 702 l 1
 238 655 252 387 252 387 c 1
EndSplineSet
Validated: 1
EndChar

StartChar: u
Encoding: 86 117 86
Width: 414
GlyphClass: 1
Flags: W
HStem: 2.21369 71.8167<108.066 239.561> 380.029 20G<314.816 328.206>
VStem: 25.1111 44.8889<187.86 230.24> 300.84 10.16<37.0081 60.8583> 326 7<37.5443 59.1718> 348 26.2665<36.2608 60.8517>
LayerCount: 2
Fore
SplineSet
314 400 m 0
 314.326711769 400.019218339 314.65314653 400.02883372 314.979262581 400.02883372 c 0
 341.433413048 400.02883372 365.790365813 336.757094875 365.790365813 203.583051847 c 0
 365.790365813 167.549953821 364.007219455 126.399383165 360 80 c 1
 370.733548254 64.3469087962 374.266530375 52.0940849327 374.266530375 42.0786359184 c 0
 374.266530375 29.6997405225 368.869381759 20.7387635185 365 13 c 1
 355 4 344 4 344 4 c 2
 341 3 336 4 332 5 c 1
 338 -1 332 -11 329 -11 c 0
 328 -13 331 -18 339 -21 c 1
 337 -22 l 2
 334 -20 332 -19 331 -18 c 1
 325 -25 l 1
 324 -25 l 1
 331 -17 l 1
 329 -16 326 -13 328 -11 c 0
 333 -6 336 -1 330 6 c 1
 312 10.2 300.84 24.48 300.84 41.928 c 0
 300.84 53.56 305.8 66.6 317 79 c 0
 317 83 317 86 317 90 c 1
 312 82 307 73 296 54 c 0
 279.254656719 24.3736234252 218.54024348 2.21369269221 159.272986313 2.21369269221 c 0
 126.51772352 2.21369269221 94.2044868025 8.98232491009 70 25 c 0
 36.3333333333 47.6666666667 25.1111111111 96.3333333333 25.1111111111 151.148148148 c 0
 25.1111111111 260.777777778 70 395 70 395 c 1
 81.5121135559 239.586466996 54.4827003983 74.0304269612 159.050226988 74.0304269612 c 0
 181.64834771 74.0304269612 210.392528037 81.7625010658 247 99 c 1
 246.699427538 110.662211542 246.55424642 122.002799138 246.55424642 133.018721443 c 0
 246.55424642 305.251826945 282.043892744 398.120228985 314 400 c 0
319 62 m 4
 315 62 311 56 311 49 c 4
 311 41 315 36 319 36 c 4
 323 36 326 41 326 49 c 4
 326 56 323 62 319 62 c 4
340 61 m 4
 336 61 333 55 333 48 c 4
 333 41 336 36 340 36 c 4
 344 36 348 41 348 48 c 4
 348 55 344 61 340 61 c 4
EndSplineSet
Validated: 1
EndChar

StartChar: v
Encoding: 87 118 87
Width: 381
GlyphClass: 1
Flags: W
HStem: 392 17<314.396 328.403> 421 20G<289 297 301.5 304>
VStem: 35.9982 2.00185<267 406.115> 261.752 25.2481<353.84 387.959> 300.121 57.2232<122.412 305.834> 305 9<369.442 386.076> 329 14.0789<368.285 391.863>
LayerCount: 2
Fore
SplineSet
290 441 m 1xf8
 297 433 l 1
 298 434 300 436 303 438 c 2
 304 437 l 1
 297 433 294 427 296 425 c 0
 298 424 304 415 301 408 c 1
 305 409 308 409 312 409 c 2
 313 409 l 2
 329.175024672 408.326040639 343.07894324 397.204993201 343.07894324 369.820451455 c 0xf2
 343.07894324 356.572659387 339.824975328 339.518682153 332 318 c 1
 349.535456685 264.346737008 357.34404809 217.8858744 357.34404809 178.276784104 c 0
 357.34404809 66.5462715882 295.210444248 9.33587472252 214 -1 c 0
 212.32782523 -1.21930160924 210.600042701 -1.32889061552 208.821369688 -1.32889061552 c 0
 150.122315913 -1.32889061552 35.9981526764 118.025103873 35.9981526764 352.290753826 c 0
 35.9981526764 369.879995752 36.6415135187 388.11703791 38 407 c 1
 69 267 114 167 206 75 c 1
 254.272850647 171.545701293 300.120864551 178.978652299 300.120864551 243.61608041 c 0
 300.120864551 261.996756455 296.41341412 285.003211138 288 316 c 1
 269.031733278 331.097191881 261.751938488 346.793792579 261.751938488 360.885463523 c 0
 261.751938488 383.19626869 280.000332008 401.483967357 299 407 c 1
 302 414 299 419 294 425 c 0
 292 426 295 430 296 432 c 2
 289 441 l 1
 290 441 l 1xf8
322 392 m 4
 318 392 314 387 314 380 c 4xf6
 314 373 318 368 322 368 c 4
 326 368 329 373 329 380 c 4
 329 387 326 392 322 392 c 4
296 388 m 4
 291 388 287 382 287 375 c 4
 287 368 291 362 296 362 c 4
 301 362 305 368 305 375 c 4
 305 382 301 388 296 388 c 4
EndSplineSet
Validated: 1
EndChar

StartChar: w
Encoding: 88 119 88
Width: 607
GlyphClass: 1
Flags: W
HStem: 2.31879 92.1291<160.359 239.747 429.026 501.01> 381 13<541.982 552.936> 406 20G<298.458 326.568 522 530 534.5 537>
VStem: 31.6246 2.37536<254 385.947> 245.822 123.411<208.831 369.182> 261.765 107.467<174.456 316.435> 492.844 24.1559<341.487 376.78> 530.861 51.1103<126.429 304.124> 532 9<356.938 377.769> 554 16.2252<356.027 380.72>
LayerCount: 2
Fore
SplineSet
523 426 m 1xfb
 530 418 l 1
 531 420 533 421 536 423 c 2
 537 422 l 1
 530 418 527 412 528 411 c 0
 531 410 537 400 533 393 c 1
 536 393 538 394 540 394 c 0
 541 394 541 394 542 394 c 0
 557.46976122 393.327401686 570.225191489 382.70225655 570.225191489 356.647601328 c 0xf240
 570.225191489 343.964937883 567.202837094 327.626306222 560 307 c 1
 575.305432347 259.767106628 581.970819981 217.409473595 581.970819981 180.444166865 c 0
 581.970819981 69.6607087854 522.103941004 7.30980465111 455.523882479 7.30980465111 c 0
 409.330035294 7.30980465111 359.904658167 37.3237216315 325 102 c 1
 304.304310371 37.7719977021 257.507588728 2.31879167251 207.234651814 2.31879167251 c 0
 124.174214482 2.31879167251 31.6246432354 99.0965207447 31.6246432354 322.771837642 c 0
 31.6246432354 343.12314837 32.3908095592 364.52497351 34 387 c 1
 63 254 127 117 190 97 c 0
 195.072966758 95.2803502516 199.961108812 94.4478590804 204.635821124 94.4478590804 c 0
 238.950694397 94.4478590804 261.765246766 139.305316862 261.765246766 207.397478961 c 0xf7
 261.765246766 237.913765456 257.182972598 273.096713109 247 311 c 1
 246.201391525 312.290059844 245.821677015 314.18015699 245.821677015 316.545566307 c 0
 245.821677015 339.248146862 280.799682162 405.734863031 316.116707416 405.734863031 c 0
 337.019656403 405.734863031 358.041365981 382.444204245 372 313 c 1
 370.103363738 300.434784767 369.23249984 288.052241324 369.23249984 275.965636077 c 0
 369.23249984 186.089789231 417.385971355 112.577522804 450 102 c 0
 455.520973575 100.128483534 460.919357063 99.2201748858 466.140251297 99.2201748858 c 0
 502.89976616 99.2201748858 530.860513994 144.248231251 530.860513994 215.142363177 c 0
 530.860513994 241.781602787 526.912562093 272.073034491 518 305 c 1
 499.839272867 319.755590795 492.84405649 334.797476738 492.84405649 348.175909808 c 0
 492.84405649 370.15755801 511.72880294 387.648439374 531 392 c 1
 535 400 532 405 527 410 c 0
 525 412 528 415 529 417 c 2
 522 426 l 1
 523 426 l 1xfb
548 381 m 4
 544 381 541 375 541 368 c 4xf2c0
 541 361 544 356 548 356 c 4
 551 356 554 361 554 368 c 4
 554 375 551 381 548 381 c 4
524 379 m 4
 520 379 517 373 517 365 c 4
 517 358 520 351 524 351 c 4
 529 351 532 358 532 365 c 4
 532 373 529 379 524 379 c 4
EndSplineSet
Validated: 1
EndChar

StartChar: x
Encoding: 89 120 89
Width: 424
GlyphClass: 1
Flags: W
HStem: -1 1<395 404> 3.9278 38.0722<341.922 359.392> 5 1<385.888 391.922> 6 22<80.0476 100.367 317.321 348.996> 6 11<106.094 122.216> 388 20G<297.5 310>
VStem: 67.0653 10.9347<31.0527 58.0736> 70 1<-19 -9> 287.62 29.3803<30.3905 63.7438> 349 35.7609<24.4944 41.9509> 393 1<-8 -6.38007>
LayerCount: 2
Fore
SplineSet
71 -19 m 1x95e0
 70 -18 l 1x95e0
 72 -8 l 1
 70 -8 68 -8 65 -6 c 2
 65 -5 l 1
 72 -8 78 -8 79 -6 c 1
 78 -3 81 5 88 7 c 1
 73.000222518 17.2271210104 67.0652587301 29.7785532244 67.0652587301 42.1979587411 c 0x96e0
 67.0652587301 66.2093498405 89.2498331115 89.7272322694 111 95 c 1
 110.580229882 101.296551775 110.375823816 107.377739497 110.375823816 113.273697631 c 0
 110.375823816 149.514789349 118.098850592 178.757394674 131 208 c 1
 147 188 164 173 182 155 c 1
 172 133 160 109 149 83 c 1
 153.4 72.8 155.32 63.64 155.32 55.504 c 0
 155.32 22.96 124.6 6.8 99 6 c 0
 96 6 93 6 90 6 c 0
 83 5 81 0 80 -7 c 0
 79 -9 75 -9 73 -9 c 2
 71 -19 l 1x95e0
393 -8 m 1
 395 -1 393 5 391 5 c 1xa4e0
 389 4 379 5 376 12 c 1
 367 7 359 5 351 4 c 0
 350.056201996 3.95160010235 349.118846004 3.92779698067 348.188229646 3.92779698067 c 0xc4e0
 313.118420958 3.92779698067 287.619708537 37.7311161182 287.619708537 62.8641113153 c 0
 287.619708537 64.6234145892 287.744651321 66.3402335843 288 68 c 1
 170 156 67 269 25 396 c 1
 96 312 204 268 316 95 c 1
 366.693839729 92.858006772 384.760941761 65.7361674939 384.760941761 40.9337990411 c 0
 384.760941761 30.9988469525 381.862038375 21.4360586907 377 14 c 1
 380 7 385 6 392 6 c 0x8ce0
 394 6 394 2 395 0 c 2
 405 0 l 1
 404 -1 l 1
 395 -1 l 1
 395 -3 395 -5 394 -8 c 2
 393 -8 l 1
336 24 m 0
 343 24 349 27 349 32 c 0
 350 37 343 41 334 42 c 0xc4e0
 325 43 317 39 317 34 c 0
 317 29 323 24 332 24 c 0
 334 24 335 24 336 24 c 0
112 17 m 5x8ce0
 116 17 121 20 124 24 c 4
 130 31 132 39 129 43 c 4
 125 47 117 45 111 38 c 4
 105 31 103 22 106 19 c 4
 108 17 110 17 112 17 c 5x8ce0
357 42 m 2xc4e0
 358 42 l 2
 363 43 364 53 360 62 c 0
 357 72 350 79 346 77 c 0
 341 76 340 66 344 57 c 0
 347 48 352 42 357 42 c 2xc4e0
91 28 m 4x96e0
 97 28 101 36 101 45 c 4
 100 54 95 61 89 61 c 4
 83 61 78 53 78 44 c 0
 79 35 84 27 91 28 c 4x96e0
221 224 m 1
 202 243 191 258 171 272 c 1
 214 336 264 360 331 408 c 1
 289 345 268 315 221 224 c 1
EndSplineSet
Validated: 1
EndChar

StartChar: y
Encoding: 90 121 90
Width: 485
GlyphClass: 1
Flags: W
HStem: -300 1<26 39> -293 1<42.7246 49.7298> -194 44<80.189 101.906> 390 20G<101 130.5 358.311 422>
VStem: 40 1<-309 -307.337>
LayerCount: 2
Fore
SplineSet
98 410 m 1
 163 211 278 214 299 181 c 1
 259 112 l 1
 244 160 104 170 98 410 c 1
450 414 m 1
 394 92 176 -172 173 -172 c 1
 173.158905091 -175.217828103 173.237323168 -178.353591014 173.237323168 -181.408856111 c 0
 173.237323168 -255.261513054 127.417792263 -282.079452546 65 -284 c 1
 61 -292 47 -294 44 -293 c 0
 41 -293 39 -300 41 -309 c 1
 40 -309 l 1
 39 -305 38 -302 39 -300 c 1
 26 -300 l 1
 25 -299 l 1
 39 -299 l 1
 39 -296 40 -291 43 -292 c 0
 52 -292 59 -290 63 -283 c 1
 53.7369890093 -266.390463051 48.861070792 -247.740417836 48.861070792 -229.754698477 c 0
 48.861070792 -191.431960259 70.9978203907 -156.125272451 120 -150 c 1
 119.996617331 -149.993234661 119.994928144 -149.983402746 119.994928144 -149.970513775 c 0
 119.994928144 -146.173106845 266.622411151 122.987739435 450 414 c 1
326 54 m 1
 331 61 345 85 362 129 c 1
 421 126 449 49 451 15 c 1
 456 10 460 12 463 15 c 0
 464 16 466 14 468 13 c 2
 473 17 l 1
 473 16 l 1
 468 12 l 1
 469 11 470 10 471 8 c 2
 471 7 l 1
 468 12 465 15 463 14 c 0
 463 12 455 8 451 14 c 1
 440.873665062 7.46688068541 425.625532367 3.92147672933 409.159422098 3.92147672933 c 0
 375.217421091 3.92147672933 336.100160514 18.9861102179 326 54 c 1
392 75 m 0
 389 72 392 65 398 59 c 0
 404 54 411 52 414 55 c 0
 416 58 414 65 408 70 c 0
 402 76 395 78 392 75 c 0
96 -194 m 4
 90 -194 84 -198 80 -205 c 4
 75 -214 76 -225 83 -228 c 4
 90 -232 100 -228 105 -219 c 4
 110 -210 109 -199 102 -195 c 4
 100 -195 98 -194 96 -194 c 4
EndSplineSet
Validated: 1
EndChar

